<svg width="18" height="18" viewBox="0 0 18 18" fill="none" xmlns="http://www.w3.org/2000/svg">
<path fill-rule="evenodd" clip-rule="evenodd" d="M5.40758 8.09673L5.40276 8.09214C5.10964 7.80212 4.6366 7.80276 4.34467 8.0947C4.05178 8.38759 4.05178 8.86246 4.34467 9.15536L4.875 8.62503C4.34467 9.15536 4.34565 9.15633 4.34565 9.15633L4.34677 9.15745L4.34944 9.16009L4.35648 9.16699C4.36194 9.17229 4.36891 9.179 4.37739 9.18701C4.39435 9.20303 4.41735 9.2243 4.44631 9.25004C4.50419 9.30149 4.58608 9.37101 4.69126 9.45244C4.90136 9.6151 5.20621 9.82667 5.60018 10.0368C6.38887 10.4574 7.54067 10.875 9 10.875C10.4593 10.875 11.6111 10.4574 12.3998 10.0368C12.7938 9.82667 13.0986 9.6151 13.3087 9.45244C13.4139 9.37101 13.4958 9.30149 13.5537 9.25004C13.5827 9.2243 13.6057 9.20303 13.6226 9.18701C13.6311 9.179 13.6381 9.17229 13.6435 9.16699L13.6506 9.16009L13.6532 9.15745L13.6553 9.15536C13.9482 8.86246 13.9482 8.38759 13.6553 8.0947C13.3634 7.80276 12.8904 7.80212 12.5972 8.09214L12.5924 8.09673C12.5861 8.10268 12.5743 8.11365 12.5571 8.12892C12.5227 8.1595 12.4669 8.20717 12.3905 8.26636C12.2373 8.38495 12.0031 8.54838 11.6939 8.71326C11.0764 9.04263 10.1657 9.37503 9 9.37503C7.83433 9.37503 6.92363 9.04263 6.30607 8.71326C5.99691 8.54838 5.76271 8.38495 5.60952 8.26636C5.53306 8.20717 5.47725 8.1595 5.44285 8.12892C5.42567 8.11365 5.41388 8.10268 5.40758 8.09673ZM13.125 8.62503C13.6553 9.15536 13.6553 9.15536 13.6553 9.15536L13.125 8.62503Z" fill="#5B5B5B"/>
<path fill-rule="evenodd" clip-rule="evenodd" d="M1.5 1.5C1.08579 1.5 0.75 1.83579 0.75 2.25V13.5C0.75 13.9142 1.08579 14.25 1.5 14.25H9.19795L12.7896 16.0458C13.0221 16.1621 13.2982 16.1496 13.5193 16.013C13.7404 15.8763 13.875 15.6349 13.875 15.375V14.25H16.5C16.9142 14.25 17.25 13.9142 17.25 13.5V2.25C17.25 1.83579 16.9142 1.5 16.5 1.5H1.5ZM2.25 12.75V3H15.75V12.75H13.125C12.7108 12.75 12.375 13.0858 12.375 13.5V14.1615L9.71041 12.8292C9.60627 12.7771 9.49143 12.75 9.375 12.75H2.25Z" fill="#5B5B5B"/>
</svg>
