<svg width="14" height="16" viewBox="0 0 14 16" fill="none" xmlns="http://www.w3.org/2000/svg">
<path d="M6.25 0.5C9.301 0.5 11.8195 2.777 12.2005 5.72375L13.888 8.378C13.999 8.55275 13.9765 8.813 13.7192 8.924L12.25 9.5525V11.75C12.25 12.5787 11.5787 13.25 10.75 13.25H9.25075L9.25 15.5H2.5V12.7295C2.5 11.8445 2.173 11.0068 1.567 10.2508C0.74275 9.22325 0.25 7.919 0.25 6.5C0.25 3.1865 2.9365 0.5 6.25 0.5ZM6.25 2C3.7645 2 1.75 4.0145 1.75 6.5C1.75 7.53875 2.101 8.51975 2.737 9.3125C3.5575 10.3355 4 11.5002 4 12.7295V14H7.75L7.7515 11.75H10.75V8.564L11.9125 8.066L10.7552 6.24725L10.7125 5.91575C10.4245 3.68825 8.518 2 6.25 2ZM6.25 4.25C6.664 4.25 7 4.586 7 5V5.75H7.75C8.164 5.75 8.5 6.086 8.5 6.5C8.5 6.914 8.164 7.25 7.75 7.25H7V8C7 8.414 6.664 8.75 6.25 8.75C5.836 8.75 5.5 8.414 5.5 8V7.24925L4.75 7.25C4.336 7.25 4 6.914 4 6.5C4 6.086 4.336 5.75 4.75 5.75L5.5 5.74925V5C5.5 4.586 5.836 4.25 6.25 4.25Z" fill="#5B5B5B"/>
</svg>
