<svg width="1920" height="680" viewBox="0 0 1920 680" opacity="0.5" fill="none" xmlns="http://www.w3.org/2000/svg">
<path opacity="0.5" d="M-33.988 1022.97C691.487 982.966 383.121 605.686 485.463 481.785C514.05 447.174 570.413 458.763 600.831 487.11C641.701 525.196 616.206 601.007 556.173 592.423C495.573 583.76 483.897 489.303 519.541 450.238C537.226 430.857 564.619 422.84 590.848 422.576C687.817 421.617 760.652 506.922 841.521 549.677C900.663 580.951 966.412 602.759 1033.29 600.782C1107.95 598.579 1179.1 563.351 1221.66 501.176C1325.04 350.191 1312.17 54.2029 1547.54 25.3959C1755.47 -0.0438988 1912.44 234.239 1999.67 390.627M1998.76 383.599C1944.98 290.6 1864.94 169.783 1765.65 96.9485C1723.39 66.037 1678.25 43.9545 1629.88 35.2234C1603.13 30.3977 1575.27 29.6735 1546.35 33.951C1500.58 40.6168 1464.1 57.3547 1434.14 80.9739C1379.79 123.798 1346.64 189.957 1319.48 258.524C1300.45 306.545 1284.75 355.154 1268.42 400.67C1256.14 434.88 1242.44 467.602 1224.28 495.881C1206.9 522.994 1183.69 545.449 1156.89 562.294C1122.43 584.005 1082.2 596.475 1040.65 598.531C974.31 601.956 908.307 581.391 848.783 550C766.103 506.452 692.955 426.834 599.725 430.133C593.599 430.348 587.443 431.043 581.414 432.218C562.838 435.829 545.153 443.866 532.724 457.824C499.448 495.078 511.3 583.917 567.409 591.082C576.755 592.276 585.152 591.346 592.493 588.693C630.133 575.322 640.498 519.451 606.214 489.45C575.737 462.777 520.334 452.381 491.726 487.11C481.078 500.031 474.766 515.663 471.193 533.34C440.619 684.961 598.375 984.464 -33.1463 1006.9M1997.85 376.551C1942.83 284.776 1860.61 165.613 1761.11 96.8798C1718.68 67.74 1674.33 48.0656 1627.03 41.1648C1600.87 37.367 1573.57 37.5823 1545.16 42.4666C1500.29 50.1798 1464.21 67.3486 1434.29 91.1048C1380.18 133.978 1345.57 199.373 1317.11 264.779C1297.18 310.588 1281.08 355.242 1266.73 398.017C1255.84 430.504 1243.78 462.405 1226.89 490.546C1210.76 517.562 1188.46 540.437 1162.33 557.743C1128.72 580.129 1089.12 593.294 1048.01 596.25C982.188 600.978 915.941 581.802 856.035 550.304C771.535 505.963 698.054 432.031 608.602 437.679C602.74 438.051 596.897 438.922 591.23 440.224C573.839 444.218 557.407 452.146 545.907 465.4C515 500.853 527.028 584.044 578.644 589.731C587.443 590.7 595.302 589.721 602.103 587.039C637.444 573.58 646.017 519.979 611.577 491.779C581.052 466.78 526.588 457.579 497.961 492.425C487.342 505.336 480.922 520.899 477.164 538.469C444.974 689.131 580.974 981.782 -32.3241 990.826M1996.93 369.504C1940.68 278.952 1856.28 161.444 1756.56 96.8212C1713.97 69.4629 1670.4 52.1768 1624.17 47.126C1598.6 44.3559 1571.87 45.4815 1543.97 51.0119C1500 59.7235 1464.31 77.3817 1434.41 101.265C1380.56 144.197 1344.48 208.809 1314.73 271.063C1293.9 314.66 1277.41 355.35 1265.04 395.384C1255.54 426.139 1245.1 457.227 1229.48 485.241C1214.62 512.168 1193.2 535.445 1167.75 553.221C1134.99 576.272 1096.03 590.191 1055.36 593.998C990.067 600.116 923.575 582.243 863.287 550.627C776.976 505.503 703.114 437.249 617.479 445.236C611.881 445.755 606.351 446.802 601.037 448.231C584.83 452.616 569.65 460.418 559.08 472.976C530.541 506.618 542.736 584.152 589.87 588.39C598.13 589.134 605.441 588.106 611.714 585.395C644.765 571.848 651.557 520.518 616.95 494.119C586.376 470.793 532.851 462.786 504.215 497.74C493.635 510.641 487.107 526.136 483.153 543.608C449.349 693.311 563.602 979.11 -31.4825 974.764M1996.01 362.466C1938.53 273.128 1852.11 157.019 1752 96.7623C1709.31 71.068 1666.45 56.2877 1621.3 53.0869C1596.32 51.3446 1570.16 53.3805 1542.76 59.5472C1499.68 69.2572 1464.41 87.4048 1434.53 111.416C1380.92 154.396 1343.37 218.235 1312.33 277.337C1290.59 318.722 1273.73 355.438 1263.33 392.741C1255.23 421.773 1246.33 452 1232.07 479.916C1218.38 506.706 1197.9 530.374 1173.16 548.679C1141.21 572.327 1102.92 587.068 1062.7 591.728C997.926 599.225 931.199 582.664 870.52 550.94C782.398 505.023 708.125 442.436 626.336 452.792C621.002 453.468 615.776 454.681 610.833 456.248C595.801 461.015 581.913 468.728 572.244 480.562C546.161 512.462 558.405 584.239 601.086 587.049C608.798 587.558 615.57 586.491 621.305 583.75C652.066 570.125 657.086 521.066 622.304 496.458C591.7 474.816 539.105 467.984 510.439 503.065C499.889 515.956 493.253 531.383 489.113 548.747C453.694 697.49 546.191 976.428 -30.6702 958.701M1995.1 355.418C1936.38 267.304 1847.81 152.781 1747.46 96.7037C1704.61 72.7615 1662.54 60.3989 1618.45 59.0383C1594.06 58.3238 1568.45 61.2603 1541.58 68.0827C1499.4 78.7813 1464.52 97.4281 1434.68 121.566C1381.31 164.595 1342.3 227.661 1309.97 283.602C1287.34 322.784 1270.11 355.506 1261.65 390.098C1254.98 417.388 1247.66 446.812 1234.69 474.601C1222.24 501.293 1202.67 525.363 1178.61 544.147C1147.49 568.451 1109.86 583.965 1070.08 589.466C1005.82 598.364 938.852 583.094 877.801 551.253C787.859 504.553 713.136 447.634 635.242 460.349C630.163 461.181 625.259 462.561 620.669 464.264C606.801 469.413 594.196 477.028 585.446 488.158C561.762 518.276 574.309 581.509 612.331 585.718C619.456 586.51 625.729 584.886 630.936 582.116C659.396 568.402 662.675 521.634 627.686 498.807C597.073 478.839 545.378 473.201 516.703 508.39C506.192 521.271 499.448 536.629 495.113 553.886C458.079 701.67 528.819 973.755 -29.8188 942.638M1994.18 348.371C1934.23 261.47 1843.5 148.552 1742.91 96.6352C1699.9 74.4451 1658.6 64.51 1615.59 64.9896C1591.79 65.3029 1566.76 69.1399 1540.39 76.6083C1499.09 88.2956 1464.62 107.442 1434.8 131.707C1381.68 174.785 1341.2 237.078 1307.59 289.866C1284.06 326.837 1266.49 355.556 1259.96 387.446C1254.72 412.993 1248.96 441.614 1237.29 469.266C1226.08 495.861 1207.41 520.332 1184.03 539.595C1153.75 564.555 1116.76 580.833 1077.42 587.186C1013.68 597.473 946.476 583.505 885.034 551.556C793.281 504.064 718.049 452.832 644.099 467.886C639.274 468.865 634.684 470.421 630.466 472.261C617.753 477.802 606.439 485.299 598.609 495.724C577.323 524.051 589.899 580.814 623.547 584.357C630.123 585.052 635.858 583.251 640.527 580.452C666.697 566.65 668.243 522.162 633.04 501.137C602.426 482.843 551.632 478.399 522.937 513.705C512.455 526.577 505.614 541.866 501.083 559.015C462.434 705.84 511.428 971.073 -29.0065 926.566M1993.27 341.323C1932.09 255.646 1839.19 144.324 1738.36 96.5765C1695.2 76.1385 1654.67 68.621 1612.73 70.9506C1589.52 72.2916 1565.06 77.0292 1539.19 85.1437C1498.8 97.8195 1464.73 117.455 1434.94 141.857C1382.06 184.994 1340.12 246.514 1305.22 296.14C1280.78 330.899 1262.9 355.585 1258.27 384.813C1254.5 408.598 1250.26 436.436 1239.9 463.961C1229.92 490.458 1212.16 515.33 1189.47 535.073C1160.02 560.689 1123.67 577.74 1084.77 584.934C1021.56 596.632 954.11 583.946 892.296 551.879C798.733 503.594 722.943 458.058 652.976 475.452C648.405 476.588 644.119 478.311 640.282 480.278C628.704 486.21 618.702 493.59 611.792 503.31C592.913 529.846 605.402 580.021 634.782 583.026C640.811 583.642 646.008 581.646 650.147 578.817C674.028 564.927 673.851 522.73 638.413 503.486C607.809 486.875 557.896 483.616 529.181 519.04C518.738 531.902 511.78 547.122 507.063 564.164C466.799 710.029 494.036 968.411 -28.1745 910.513M1992.35 334.285C1929.94 249.832 1834.85 140.105 1733.8 96.5177C1690.48 77.8318 1650.73 72.7322 1609.87 76.902C1587.25 79.2708 1563.37 84.9089 1538 93.6792C1498.51 107.334 1464.83 127.478 1435.07 152.008C1382.43 195.194 1339.03 255.94 1302.84 302.415C1277.5 334.971 1259.31 355.585 1256.57 382.17C1254.3 404.174 1251.57 431.248 1242.5 458.636C1233.76 485.045 1216.9 510.318 1194.9 530.531C1166.29 556.813 1130.59 574.637 1092.13 582.664C1029.43 595.76 961.753 584.367 899.548 552.183C804.164 503.114 727.758 463.295 661.853 482.999C657.527 484.291 653.553 486.19 650.089 488.285C639.627 494.618 630.965 501.881 624.966 510.886C608.494 535.631 620.748 584.308 646.008 581.675C651.488 581.107 656.147 580.021 659.748 577.163C681.338 563.185 679.469 523.268 643.776 505.816C613.202 490.869 564.15 488.804 535.425 524.345C525.012 537.197 517.955 552.349 513.042 569.283C471.164 714.199 476.645 965.719 -27.3426 894.431M1991.44 327.238C1927.8 243.998 1830.54 135.886 1729.25 96.4591C1685.76 79.5253 1646.81 76.8433 1607.01 82.8631C1584.97 86.2596 1561.65 92.7884 1536.79 102.215C1498.2 116.848 1464.93 137.501 1435.2 162.158C1382.81 205.393 1337.93 265.366 1300.45 308.689C1274.21 339.033 1255.76 355.516 1254.87 379.527C1254.13 399.72 1252.87 426.061 1245.09 453.321C1237.59 479.632 1221.64 505.307 1200.32 525.999C1172.55 552.937 1137.49 571.534 1099.48 580.403C1037.3 594.919 969.377 584.798 906.8 552.506C809.606 502.644 732.514 468.601 670.729 490.556C666.638 492.004 662.988 494.07 659.905 496.302C650.549 503.046 643.228 510.172 638.149 518.482C624.095 541.445 636.054 584.259 657.243 580.344C662.136 579.443 666.296 578.416 669.369 575.528C688.659 561.462 685.116 523.816 649.149 508.165C618.624 494.882 570.423 494.021 541.669 529.68C531.295 542.522 524.131 557.606 519.022 574.442C475.529 718.398 459.253 963.057 -26.5108 878.378M1990.52 320.19C1925.65 238.174 1826.19 131.667 1724.7 96.3904C1681.04 81.2185 1642.87 80.9542 1604.15 88.8142C1582.7 93.2386 1559.96 100.658 1535.6 110.75C1497.91 126.352 1465.04 147.525 1435.32 172.309C1383.18 215.592 1336.84 274.792 1298.07 314.963C1270.93 343.095 1252.23 355.369 1253.18 376.894C1253.99 395.218 1254.18 420.892 1247.7 448.006C1241.43 474.229 1226.39 500.305 1205.74 521.467C1178.81 549.07 1144.39 568.441 1106.83 578.141C1045.16 594.067 977.011 585.238 914.042 552.819C815.037 502.165 737.202 473.964 679.596 498.112C675.74 499.727 672.403 501.969 669.702 504.308C661.432 511.483 655.491 518.452 651.312 526.058C639.685 547.23 652.535 587.685 668.459 578.993C672.882 578.631 676.425 576.8 678.97 573.874C695.97 559.72 690.763 524.345 654.512 510.504C624.056 498.876 576.677 499.228 547.913 534.995C537.578 547.827 530.297 562.832 525.002 579.57C479.894 722.568 441.872 960.375 -25.6887 862.306M1989.61 313.143C1923.5 232.35 1821.86 127.459 1720.16 96.3317C1676.34 82.9217 1638.95 85.0654 1601.3 94.7656C1580.44 100.218 1558.27 108.528 1534.43 119.275C1497.64 135.847 1465.15 157.538 1435.48 182.449C1383.59 225.792 1335.77 284.208 1295.71 321.228C1267.67 347.157 1248.73 355.095 1251.5 374.241C1253.88 390.627 1255.51 415.695 1250.32 442.681C1245.3 468.816 1231.16 495.293 1211.19 516.925C1185.1 545.194 1151.32 565.348 1114.2 575.871C1053.05 593.225 984.655 585.659 921.314 553.132C820.489 501.695 741.87 479.407 688.493 505.659C684.862 507.44 681.847 509.858 679.537 512.315C672.344 519.95 667.783 526.733 664.515 533.634C655.334 553.005 668.253 588.077 679.714 577.652C683.589 577.114 686.594 575.185 688.6 572.229C703.31 557.987 696.459 524.864 659.905 512.844C629.526 502.85 582.96 504.426 554.177 540.319C543.871 553.142 536.492 568.079 531.001 584.709C484.279 726.747 424.5 957.703 -24.8372 846.243M1988.69 306.105C1921.35 226.526 1817.51 123.259 1715.6 96.2729C1671.6 84.6248 1635.01 89.1764 1598.43 100.727C1578.16 107.207 1556.56 116.407 1533.22 127.821C1497.33 145.361 1465.25 167.561 1435.6 192.609C1383.95 236.001 1334.66 293.654 1293.32 327.512C1264.38 351.229 1245.16 354.684 1249.8 371.618C1253.74 385.958 1256.81 410.536 1252.91 437.376C1249.14 463.422 1235.89 490.301 1216.61 512.403C1191.36 541.347 1158.22 562.275 1121.55 573.619C1060.9 592.403 992.289 586.099 928.556 553.455C825.921 501.225 746.451 484.976 697.36 513.225C693.954 515.183 691.262 517.787 689.344 520.341C683.217 528.476 680.056 535.024 677.688 541.24C670.974 558.81 683.952 588.488 690.939 576.331C694.267 575.616 696.733 573.59 698.211 570.595C710.621 556.265 702.155 525.382 665.268 515.193C634.978 506.824 589.224 509.643 560.421 545.654C550.154 558.467 542.667 573.335 536.981 589.858C488.644 730.937 407.109 955.04 -24.0053 830.19M1987.78 299.057C1919.21 220.702 1813.17 119.06 1711.06 96.2143C1666.88 86.3281 1631.06 93.219 1595.57 106.688C1575.88 114.156 1554.86 124.277 1532.03 136.356C1497.04 154.856 1465.35 177.584 1435.72 202.76C1384.32 246.2 1333.58 303.08 1290.94 333.776C1261.1 355.281 1238.58 355.732 1248.1 368.965C1250.86 381.994 1258.11 405.349 1255.5 432.051C1252.96 458.01 1240.62 485.29 1222.03 507.861C1197.62 537.471 1165.11 559.182 1128.89 571.348C1068.75 591.561 999.913 586.52 935.798 553.769C831.352 500.755 751.012 490.673 706.227 520.782C703.036 522.926 700.677 525.715 699.141 528.358C694.091 537.021 692.329 543.305 690.851 548.826C686.623 564.565 699.63 588.889 702.155 574.99C704.944 574.099 706.863 571.975 707.802 568.95C717.922 554.542 707.851 525.872 670.622 517.532C640.439 510.769 595.468 514.85 566.655 550.969C556.418 563.772 548.823 578.572 542.951 594.987C492.999 735.107 389.717 952.358 -23.1832 814.118M1986.86 292.01C1917.05 214.878 1808.81 114.871 1706.51 96.1457C1662.15 88.0312 1627.12 97.3204 1592.72 112.629C1573.61 121.126 1553.17 132.128 1530.83 144.872C1496.75 164.331 1465.46 187.588 1435.86 212.891C1384.71 256.38 1332.49 312.487 1288.57 340.031C1257.83 359.334 1234.75 355.771 1246.42 366.303C1250.44 377.569 1259.44 400.151 1258.11 426.707C1256.82 452.577 1245.39 480.268 1227.46 503.3C1203.9 533.585 1172.03 556.069 1136.25 569.058C1076.63 590.71 1007.55 586.922 943.05 554.052C836.784 500.246 755.582 496.507 715.093 528.299C712.118 530.639 710.112 533.614 708.947 536.326C704.993 545.556 704.621 551.507 704.024 556.362C702.312 570.223 715.328 589.232 713.381 573.6C715.622 572.533 716.992 570.311 717.413 567.257C725.242 552.76 713.567 526.293 675.985 519.833C645.919 514.664 601.731 520.018 572.889 556.255C562.691 569.038 554.989 583.78 548.921 600.087C497.354 739.247 372.316 949.637 -22.3709 798.016M1985.95 284.962C1914.91 209.044 1804.46 110.691 1701.96 96.087C1657.43 89.7442 1623.18 101.441 1589.86 118.59C1571.34 128.114 1551.46 139.997 1529.64 153.417C1496.45 173.826 1465.56 197.621 1435.99 223.051C1385.08 266.599 1331.4 321.923 1286.19 346.315C1254.55 363.406 1230.91 355.839 1244.73 363.68C1250.02 373.184 1260.76 395.002 1260.72 421.411C1260.69 447.203 1250.14 475.286 1232.9 498.788C1210.18 529.738 1178.94 553.015 1143.62 566.816C1084.52 589.917 1015.2 587.372 950.322 554.395C842.245 499.796 760.201 502.556 723.99 535.885C721.23 538.421 719.576 541.582 718.773 544.372C715.955 554.19 716.933 559.759 717.217 563.978C718.01 575.89 731.036 589.662 724.626 572.288C726.319 571.045 727.151 568.725 727.034 565.642C732.573 551.057 719.312 526.763 681.368 522.201C651.42 518.599 608.005 525.245 579.153 561.599C568.984 574.373 561.184 589.046 554.921 605.255C501.738 743.456 354.944 946.994 -21.5195 781.983M1985.03 277.924C1912.77 203.23 1800.09 106.531 1697.41 96.0282C1652.7 91.4571 1619.25 105.552 1587 124.551C1569.07 135.113 1549.76 147.867 1528.45 161.953C1496.15 183.311 1465.66 207.644 1436.13 233.202C1385.46 276.799 1330.31 331.359 1283.81 352.589C1251.27 367.468 1227.08 355.888 1243.04 361.037C1249.59 368.779 1262.08 389.824 1263.33 416.086C1264.54 441.79 1254.9 470.274 1238.33 494.246C1216.47 525.872 1185.85 549.931 1150.97 564.545C1092.39 589.094 1022.82 587.793 957.574 554.698C847.687 499.316 764.87 508.733 732.866 543.422C730.332 546.173 729.04 549.511 728.59 552.369C726.955 562.784 729.216 567.932 730.4 571.554C733.63 581.411 746.735 590.044 735.861 570.947C737.006 569.528 737.3 567.11 736.654 563.997C739.893 549.325 725.056 527.183 686.75 524.541C656.93 522.485 614.278 530.453 585.407 566.924C575.277 579.688 567.36 594.292 560.91 610.394C506.113 747.636 337.563 944.322 -20.6778 765.92M1984.12 270.877C1910.63 197.406 1795.74 102.361 1692.87 95.9696C1647.98 93.1799 1615.32 109.673 1584.14 130.503C1566.8 142.092 1548.06 155.717 1527.26 170.488C1495.86 192.786 1465.78 217.658 1436.26 243.352C1385.84 286.998 1329.22 340.785 1281.44 358.864C1248 371.53 1223.25 355.947 1241.36 358.394C1249.17 364.375 1263.43 384.646 1265.94 410.771C1268.41 436.387 1259.67 465.282 1243.77 489.714C1222.75 522.015 1192.78 546.868 1158.34 562.284C1100.28 588.292 1030.48 588.223 964.836 555.012C853.128 498.837 769.646 515.075 741.753 550.979C739.434 553.954 738.523 557.459 738.416 560.376C738.015 571.387 741.44 576.086 743.593 579.13C749.083 586.892 762.452 590.426 747.097 569.596C747.694 568.001 747.449 565.485 746.265 562.343C747.214 547.582 730.792 527.565 692.114 526.87C662.42 526.342 620.542 535.65 591.651 572.239C581.551 584.993 573.535 599.529 566.89 615.523C510.478 751.805 320.181 941.64 -19.8458 749.848M1983.2 263.829C1908.47 191.572 1791.38 98.211 1688.31 95.901C1643.24 94.8928 1611.38 113.784 1581.28 136.454C1564.52 149.071 1546.35 163.568 1526.06 179.014C1495.54 202.251 1465.87 227.671 1436.39 253.493C1386.21 297.188 1328.14 350.201 1279.06 365.128C1244.7 375.592 1219.4 355.996 1239.65 355.751C1248.73 359.97 1264.74 379.468 1268.53 405.446C1272.26 430.984 1264.41 460.28 1249.19 485.172C1229.01 518.149 1199.68 543.794 1165.68 560.013C1108.14 587.479 1038.09 588.654 972.079 555.325C858.56 498.357 774.539 521.545 750.62 558.535C748.545 561.746 747.987 565.397 748.212 568.392C749.074 579.982 753.585 584.298 756.756 586.716C764.351 592.501 778.131 590.827 758.313 568.255C758.371 566.474 757.579 563.87 755.866 560.699C754.525 545.85 736.517 527.927 697.477 529.219C667.911 530.198 626.796 540.858 597.885 577.564C587.824 590.308 579.701 604.775 572.86 620.662C514.833 755.985 302.78 938.968 -19.0335 733.776M1982.28 256.782C1906.32 185.748 1787.02 94.0609 1683.75 95.8423C1638.51 96.6254 1607.45 117.895 1578.42 142.415C1562.25 156.06 1544.64 171.418 1524.86 187.559C1495.24 211.726 1465.98 237.704 1436.52 263.653C1386.58 307.397 1327.04 359.637 1276.68 371.413C1241.42 379.664 1215.57 356.064 1237.96 353.118C1248.29 355.575 1266.07 374.3 1271.14 400.141C1276.13 425.591 1269.17 455.288 1254.62 480.65C1235.31 514.302 1206.6 540.74 1173.04 557.762C1116.02 586.697 1045.73 589.095 979.331 555.648C864.001 497.897 779.599 528.104 759.497 566.092C757.667 569.547 757.481 573.335 758.029 576.409C760.192 588.546 765.731 592.579 769.939 594.302C779.628 598.266 793.839 591.219 769.548 566.914C769.059 564.957 767.727 562.255 765.476 559.054C761.836 544.117 742.242 528.26 702.84 531.559C673.401 534.026 633.059 546.065 604.129 582.889C594.098 595.623 585.867 610.022 578.84 625.801C519.198 760.174 285.389 936.286 -18.2017 717.713M1981.36 249.744C1904.18 179.934 1782.67 89.9301 1679.2 95.7835C1633.78 98.3579 1603.56 122.075 1575.56 148.366C1560.02 163.078 1542.93 179.268 1523.67 196.084C1494.93 221.191 1466.08 247.718 1436.65 273.794C1386.97 317.596 1325.95 369.053 1274.3 377.677C1238.15 383.716 1211.61 345.405 1236.27 350.475C1247.64 352.815 1267.41 369.122 1273.74 394.816C1279.99 420.178 1273.93 450.287 1260.05 476.108C1241.59 510.446 1213.52 537.667 1180.4 555.491C1123.91 585.894 1053.38 589.515 986.593 555.961C869.443 497.417 784.835 534.681 768.373 573.649C766.808 577.349 766.974 581.254 767.835 584.426C771.31 597.082 777.896 600.909 783.113 601.898C794.974 604.139 809.527 591.63 780.773 565.593C779.736 563.459 777.867 560.66 775.087 557.429C769.156 542.404 747.958 528.593 708.213 533.918C678.882 537.853 639.323 551.292 610.373 588.233C600.381 600.958 592.042 615.288 584.82 630.959C523.563 764.374 268.007 933.633 -17.3698 701.67M1980.44 242.696C1902.02 174.1 1778.31 85.7995 1674.65 95.7248C1629.06 100.09 1599.63 126.186 1572.69 154.327C1557.74 170.067 1541.21 187.118 1522.47 204.63C1494.6 230.666 1466.17 257.751 1436.77 283.954C1387.34 327.805 1324.85 378.499 1271.91 383.961C1234.86 387.798 1207.13 353.196 1234.56 347.842C1247.23 345.376 1268.73 363.954 1276.33 389.511C1283.85 414.784 1278.67 445.304 1265.46 471.586C1247.85 506.599 1220.42 534.623 1187.74 553.24C1131.79 585.121 1060.99 589.956 993.825 556.284C874.865 496.948 790.188 541.259 777.231 581.205C775.948 585.16 776.438 589.173 777.632 592.432C782.427 605.578 790.13 608.759 796.276 609.474C810.31 611.099 821.115 596.279 791.989 564.242C790.11 562.167 787.996 559.035 784.688 555.775C776.467 540.662 753.654 528.867 713.576 536.247C684.343 541.631 645.577 556.48 616.617 593.538C606.654 606.253 598.208 620.515 590.8 636.078C527.928 768.534 250.616 930.941 -16.538 685.588M1979.53 235.649C1899.88 168.276 1773.97 81.6786 1670.11 95.6563C1624.34 101.823 1595.71 130.287 1569.84 160.279C1555.48 177.046 1539.5 194.959 1521.28 213.155C1494.29 240.112 1466.29 267.754 1436.91 294.095C1387.72 337.995 1323.76 387.916 1269.53 390.216C1231.58 391.841 1203.23 353.754 1232.87 345.18C1246.7 341.176 1270.07 358.746 1278.94 384.167C1287.73 409.352 1283.44 440.283 1270.89 467.025C1254.15 502.713 1227.35 531.539 1195.09 550.949C1139.68 584.318 1068.63 590.357 1001.08 556.578C880.307 496.458 795.699 547.739 786.107 588.742C785.129 592.941 785.931 597.072 787.448 600.429C793.565 614.045 802.324 617.549 809.459 617.04C825.891 615.866 837.812 595.976 803.225 562.881C800.856 560.62 798.145 557.4 794.299 554.111C783.788 538.92 759.34 529.112 718.94 538.567C689.804 545.39 651.841 561.668 622.861 598.844C612.938 611.549 604.384 625.742 596.779 641.207C532.293 772.704 233.224 928.259 -15.706 669.515M1978.61 228.601C1897.73 162.452 1769.62 77.5578 1665.55 95.5976C1619.61 103.565 1591.77 134.398 1566.98 166.23C1553.2 184.025 1537.77 202.799 1520.09 221.681C1493.97 249.568 1466.4 277.768 1437.05 304.235C1388.1 348.185 1322.69 397.332 1267.16 396.48C1228.31 395.893 1199.42 354.263 1231.19 342.537C1246.25 336.977 1271.41 353.568 1281.54 378.852C1291.59 403.939 1288.21 435.291 1276.32 462.493C1260.44 498.856 1234.28 528.485 1202.45 548.689C1147.58 583.535 1076.26 590.788 1008.33 556.891C885.738 495.978 801.316 554.16 794.984 596.299C794.319 600.733 795.425 604.971 797.255 608.446C804.683 622.512 814.548 625.879 822.632 624.636C841.404 621.739 854.224 595.77 814.45 561.55C811.593 559.084 808.285 555.795 803.91 552.467C791.099 537.187 765.007 529.357 724.313 540.917C695.246 549.168 658.104 566.885 629.106 604.169C619.211 616.864 610.559 630.989 602.759 646.346C536.658 776.883 215.843 925.587 -14.8839 653.453M1977.7 221.563C1895.59 156.628 1765.29 73.4565 1661.01 95.5389C1614.9 105.308 1587.84 138.519 1564.13 172.191C1550.95 191.014 1536.06 210.649 1518.9 230.226C1493.64 259.033 1466.5 287.801 1437.18 314.396C1388.48 358.404 1321.6 406.768 1264.8 402.764C1225.04 399.975 1195.65 354.714 1229.5 339.904C1245.83 332.768 1272.76 348.39 1284.15 373.537C1295.48 398.536 1292.98 430.299 1281.77 457.961C1266.74 495.009 1241.22 525.431 1209.82 546.427C1155.5 582.762 1083.91 591.219 1015.6 557.214C891.199 495.518 807.042 560.464 803.881 603.855C803.538 608.515 804.928 612.87 807.091 616.453C815.83 630.949 826.821 634.189 835.835 632.212C856.965 627.582 870.5 595.623 825.705 560.209C822.339 557.547 818.453 554.18 813.54 550.822C798.439 535.455 770.683 529.592 729.696 543.256C700.697 552.927 664.378 572.092 635.369 609.493C625.514 622.179 616.745 636.235 608.758 651.485C541.043 781.063 198.471 922.905 -14.0324 637.39M1976.78 214.516C1893.44 150.804 1760.95 69.3454 1656.46 95.4801C1610.19 107.05 1583.91 142.63 1561.26 178.152C1548.67 198.003 1534.33 218.5 1517.7 238.761C1493.3 268.488 1466.6 297.824 1437.31 324.546C1388.85 368.603 1320.5 416.194 1262.41 409.039C1221.75 404.037 1191.89 355.105 1227.8 337.271C1245.41 328.52 1274.09 343.212 1286.75 368.231C1299.34 393.133 1297.74 425.307 1287.18 453.429C1273.03 491.153 1248.13 522.387 1217.16 544.166C1163.38 581.998 1091.53 591.649 1022.83 557.527C896.621 495.039 812.777 566.65 812.738 611.412C812.738 616.296 814.392 620.769 816.877 624.469C826.919 639.397 839.045 642.499 848.988 639.798C872.487 633.416 886.6 595.555 836.911 558.868C833.026 556 828.573 552.574 823.131 549.178C805.74 533.722 776.291 529.807 735.049 545.595C706.089 556.685 670.631 577.29 641.594 614.818C631.777 627.494 622.901 641.482 614.719 656.624C545.388 785.242 181.06 920.233 -13.2201 621.327M1975.87 207.468C1891.3 144.97 1756.63 65.244 1651.91 95.4116C1605.47 108.792 1579.98 146.732 1558.4 184.094C1546.39 204.972 1532.61 226.32 1516.51 247.287C1492.97 277.944 1466.7 307.837 1437.44 334.687C1389.23 378.793 1319.41 425.62 1260.03 415.303C1218.47 408.089 1188.16 355.438 1226.11 334.618C1245.01 324.243 1275.43 338.005 1289.35 362.897C1303.22 387.7 1302.5 420.295 1292.61 448.877C1279.32 487.277 1255.07 519.314 1224.52 541.895C1171.3 581.215 1099.17 592.07 1030.1 557.84C902.063 494.559 818.571 572.719 821.614 618.959C821.947 624.049 823.875 628.659 826.694 632.476C838.027 647.824 851.298 650.8 862.171 647.374C888.048 639.24 902.64 595.526 848.147 557.518C843.743 554.444 838.722 550.949 832.742 547.524C813.051 531.98 781.889 530.003 740.412 547.925C711.492 560.425 676.885 582.487 647.838 620.123C638.051 632.79 629.076 646.709 620.699 661.743C549.753 789.402 163.669 917.541 -12.3882 605.245M1974.95 200.43C1889.14 139.156 1752.3 61.1526 1647.36 95.3627C1600.75 110.554 1576.05 150.862 1555.55 190.065C1544.12 211.971 1530.87 234.18 1515.31 255.832C1492.63 287.409 1466.81 317.861 1437.57 344.847C1389.61 389.002 1318.32 435.056 1257.65 421.587C1215.2 412.171 1184.44 355.751 1224.41 331.985C1244.62 319.975 1276.77 332.827 1291.95 357.591C1307.09 382.287 1307.27 415.313 1298.04 444.355C1285.62 483.44 1262.01 516.279 1231.87 539.644C1179.22 580.461 1106.8 592.52 1037.34 558.164C907.495 494.099 824.355 578.68 830.481 626.525C831.157 631.821 833.349 636.568 836.5 640.503C849.116 656.262 863.542 659.11 875.345 654.98C903.599 645.074 918.622 595.574 859.372 556.196C854.45 552.927 848.861 549.354 842.353 545.899C820.371 530.267 787.478 530.228 745.785 550.294C716.875 564.203 683.159 587.724 654.082 625.478C644.334 638.134 635.242 651.984 626.678 666.912C554.118 793.611 146.287 914.898 -11.5661 589.202M1974.04 193.383C1887 133.332 1748 57.061 1642.81 95.2942C1596.04 112.296 1572.11 154.964 1552.69 196.016C1541.86 218.95 1529.14 242.021 1514.12 264.368C1492.27 296.865 1466.92 327.884 1437.7 354.998C1389.98 399.211 1317.23 444.482 1255.27 427.862C1211.92 416.233 1180.72 356.025 1222.73 329.352C1244.25 315.688 1278.13 327.639 1294.57 352.276C1310.98 376.874 1312.11 410.331 1303.48 439.823C1292 479.603 1268.96 513.235 1239.24 537.383C1187.16 579.698 1114.45 592.951 1044.61 558.477C912.956 493.62 830.168 584.543 839.378 634.082C840.395 639.563 842.842 644.457 846.326 648.51C860.214 664.68 875.814 667.401 888.537 662.556C919.17 650.888 934.565 595.623 870.618 554.845C865.166 551.37 859.02 547.729 851.973 544.245C827.702 528.525 793.056 530.424 751.168 552.623C722.267 567.942 689.432 592.912 660.345 630.783C650.627 643.42 641.437 657.211 632.678 672.041C558.503 797.781 128.915 912.216 -10.7147 573.13M1973.12 186.335C1884.85 127.498 1743.75 53.1164 1638.25 95.2355C1591.37 114.117 1568.18 159.075 1549.82 201.967C1539.58 225.929 1527.39 249.861 1512.92 272.893C1491.92 306.32 1467.01 337.897 1437.84 365.138C1390.36 409.401 1316.15 453.899 1252.89 434.126C1208.64 420.285 1176.99 356.26 1221.04 326.7C1243.88 311.371 1279.51 322.412 1297.17 346.952C1314.89 371.413 1316.86 405.319 1308.91 435.281C1298.28 475.726 1275.89 510.181 1246.59 535.112C1195.07 578.934 1122.08 593.372 1051.85 558.79C918.378 493.14 835.923 590.318 848.245 641.628C849.605 647.296 852.316 652.347 856.133 656.516C871.293 673.098 888.068 675.721 901.711 670.132C934.741 656.742 950.459 595.702 881.843 553.504C875.863 549.824 869.159 546.114 861.584 542.6C835.013 526.792 798.605 530.619 756.531 554.963C727.621 571.691 695.686 598.119 666.589 636.108C656.91 648.735 647.613 662.448 638.658 677.18C562.868 801.961 111.524 909.534 -9.88279 557.067M1972.21 179.288C1882.7 121.674 1739.42 48.9465 1633.71 95.1669C1586.66 115.82 1564.27 163.176 1546.97 207.918C1537.32 232.908 1525.63 257.682 1511.74 281.419C1491.54 315.746 1467.13 347.911 1437.98 375.279C1390.74 419.591 1315.06 463.325 1250.53 440.381C1205.37 424.328 1173.28 356.466 1219.35 324.037C1243.51 307.035 1280.84 317.205 1299.78 341.607C1318.75 365.98 1321.63 400.288 1314.35 430.72C1304.57 471.831 1282.88 507.137 1253.96 532.822C1203.07 578.2 1129.73 593.773 1059.12 559.074C923.839 492.641 841.687 595.995 857.141 649.156C858.844 654.999 861.809 660.207 865.959 664.504C882.391 681.496 900.331 683.973 914.903 677.689C950.303 662.487 966.353 595.79 893.078 552.134C886.57 548.258 879.308 544.47 871.195 540.926C842.333 525.04 804.135 530.796 761.904 557.273C732.964 575.411 701.959 603.298 672.834 641.403C663.184 654.021 653.778 667.665 644.637 682.289C567.233 806.121 94.1424 906.833 -9.05093 540.975M1971.29 172.25C1880.55 115.859 1735.09 44.7865 1629.15 95.118C1581.93 117.553 1560.32 167.307 1544.1 213.889C1521.96 277.494 1487.38 338.915 1438.09 385.449C1391.12 429.809 1313.96 472.77 1248.13 446.675C1202.07 428.419 1169.53 356.701 1217.64 321.424C1243.12 302.738 1282.14 312.046 1302.37 336.321C1322.6 360.596 1326.36 395.316 1319.76 426.217C1295.05 541.866 1177.51 613.918 1066.36 559.416C914.277 484.849 830.158 627.7 875.756 672.54C940.418 736.134 1024.21 598.638 880.806 539.311C821.34 508.811 729.637 564.585 650.617 687.457C571.598 810.33 76.7511 904.19 -8.22874 524.942M1968.57 166.592C1880.77 112.022 1739.85 48.3789 1635.22 101.265C1589.25 124.503 1567.67 173.561 1551.4 219.85C1529.18 283.014 1494.78 344.005 1445.97 390.421C1399.32 434.811 1323.27 477.625 1257.95 453.243C1212.21 436.201 1179.43 367.223 1224.57 333.248C1234.81 325.535 1247.44 322.784 1260.02 324.017C1276.78 325.633 1293.41 334.295 1304.08 347.666C1322.88 371.09 1325.58 404.585 1318.43 434.459C1291.66 546.134 1175.14 616.854 1064.75 565.074C915.217 494.931 831.705 634.287 874.346 679.509C934.663 743.486 1014.73 610.883 873.877 554.336C814 525.803 724.313 581.401 643.58 699.213C561.233 819.364 73.1886 905.09 -9.37386 530.257M1965.85 160.944C1880.97 108.185 1744.64 51.932 1641.29 107.432C1596.58 131.442 1575.03 179.845 1558.68 225.841C1536.39 288.564 1502.17 349.134 1453.83 395.413C1407.51 439.823 1332.56 482.49 1267.75 459.82C1222.33 443.993 1189.32 377.755 1231.48 345.092C1241.02 337.672 1252.89 335.049 1264.67 336.243C1280.41 337.799 1295.95 346.168 1305.78 359.03C1323.1 381.661 1324.8 413.855 1317.08 442.72C1288.26 550.401 1172.79 619.81 1063.14 570.751C916.205 505.013 833.202 640.836 872.927 686.498C928.859 750.788 1005.24 623.138 866.938 569.391C806.65 542.815 718.822 598.247 636.524 710.988C550.732 828.516 69.6165 906.011 -10.5482 535.602M1963.14 155.287C1881.19 104.348 1749.46 55.4264 1647.37 113.579C1603.91 138.333 1582.4 186.11 1565.98 231.812C1543.62 294.095 1509.58 354.244 1461.71 400.386C1415.72 444.825 1341.88 487.345 1277.57 466.379C1232.46 451.765 1199.21 388.268 1238.4 356.916C1247.25 349.8 1258.33 347.294 1269.33 348.459C1284.04 349.966 1298.52 358.022 1307.5 370.375C1323.35 392.183 1324.04 423.104 1315.75 450.962C1284.9 554.64 1170.5 622.757 1061.53 576.409C917.242 515.046 834.66 647.296 871.528 693.477C923.036 758.002 995.773 635.393 860.018 584.426C799.31 559.818 713.185 615.063 629.497 722.754C540.133 837.747 66.0638 906.911 -11.6934 540.926M1960.42 149.629C1881.39 100.511 1754.29 58.8622 1653.43 119.736C1611.23 145.205 1589.75 192.384 1573.27 237.783C1550.84 299.625 1516.98 359.343 1469.58 405.368C1423.92 449.827 1351.17 492.21 1287.37 472.947C1242.59 459.546 1209.1 398.79 1245.32 368.75C1253.47 361.928 1263.77 359.539 1273.99 360.675C1287.68 362.123 1301.09 369.876 1309.21 381.72C1323.61 402.706 1323.27 432.345 1314.41 459.204C1281.54 558.849 1168.24 625.693 1059.92 582.067C918.329 525.04 836.06 653.678 870.108 700.446C917.184 765.108 986.279 647.638 853.079 599.46C791.96 576.82 707.362 631.86 622.441 734.51C529.367 847.036 62.4915 907.812 -12.8679 546.241M1957.7 143.981C1881.6 96.6841 1759.12 62.2586 1659.5 125.892C1618.55 152.047 1597.11 198.649 1580.56 243.763C1558.06 305.155 1524.36 364.463 1477.46 410.35C1432.13 454.828 1360.49 497.075 1297.2 479.515C1252.73 467.328 1219.08 409.401 1252.25 380.574C1259.73 374.075 1269.23 371.785 1278.65 372.891C1291.32 374.281 1303.66 381.72 1310.94 393.074C1323.87 413.238 1322.53 441.595 1313.09 467.455C1278.23 563.048 1166.05 628.63 1058.34 587.724C919.503 535.004 837.469 659.972 868.738 707.416C911.37 772.106 976.835 659.884 846.189 614.495C784.659 593.813 701.411 648.607 615.443 746.275C518.513 856.394 58.9683 908.722 -13.9835 551.576M1954.98 138.324C1881.8 92.8471 1763.98 65.5866 1665.57 132.049C1625.87 158.859 1604.46 204.923 1587.84 249.744C1565.27 310.696 1531.75 369.582 1485.31 415.333C1440.31 459.84 1369.78 501.939 1307 486.082C1262.85 475.11 1228.98 419.943 1259.16 392.408C1265.95 386.212 1274.66 384.03 1283.29 385.106C1294.94 386.438 1306.2 393.573 1312.63 404.419C1324.09 423.751 1321.76 450.825 1311.74 475.697C1274.91 567.218 1163.86 631.556 1056.72 593.382C920.678 544.92 838.81 666.177 867.309 714.385C905.508 778.988 967.342 672.129 839.25 629.52C777.309 610.805 695.236 665.306 608.387 758.031C507.454 865.79 55.3862 909.622 -15.1482 556.891M1952.26 132.676C1882.01 89.0199 1768.82 68.8658 1671.65 138.206C1633.2 165.643 1611.83 211.197 1595.14 255.715C1572.5 316.226 1539.16 374.682 1493.19 420.305C1448.53 464.832 1379.13 506.658 1316.81 492.65C1273 482.794 1238.9 430.485 1266.08 404.242C1272.17 398.35 1280.1 396.285 1287.95 397.332C1298.57 398.604 1308.76 405.427 1314.35 415.783C1324.33 434.283 1321 460.065 1310.4 483.958C1271.62 571.388 1161.74 634.493 1055.11 599.059C921.93 554.806 840.141 672.295 865.9 721.374C899.695 785.761 957.858 684.394 832.321 644.575C769.969 627.827 688.904 681.966 601.35 769.806C496.268 875.236 51.8336 910.542 -16.303 562.226M1949.54 127.018C1882.21 85.1829 1773.67 72.0861 1677.72 144.363C1640.5 172.397 1619.18 217.472 1602.43 261.695C1579.72 321.766 1546.56 379.801 1501.07 425.297C1456.74 469.853 1388.43 511.522 1326.63 499.228C1283.14 490.575 1248.82 441.037 1273.01 416.077C1278.42 410.487 1285.55 408.54 1292.62 409.548C1302.22 410.762 1311.32 417.271 1316.07 427.128C1324.57 444.795 1320.28 469.276 1309.08 492.2C1268.39 575.518 1159.67 637.39 1053.52 604.717C923.242 564.624 841.492 678.295 864.51 728.353C893.959 792.398 948.394 696.648 825.412 659.61C762.648 644.819 682.415 698.538 594.323 781.572C484.934 884.672 48.2809 911.443 -17.4481 567.56M1946.82 121.37C1882.42 81.3458 1778.5 75.2477 1683.78 150.52C1647.79 179.121 1626.54 223.736 1609.73 267.676C1586.94 327.306 1553.96 384.92 1508.94 430.279C1464.94 474.855 1397.74 516.367 1336.44 505.796C1293.26 498.347 1258.74 451.579 1279.92 427.911C1284.64 422.625 1291 420.785 1297.27 421.773C1305.84 422.938 1313.87 429.124 1317.77 438.492C1324.79 455.318 1319.53 478.506 1307.74 500.462C1265.18 579.649 1157.64 640.287 1051.9 610.394C924.602 574.402 842.832 684.208 863.091 735.342C888.283 798.907 938.901 708.913 818.473 674.664C755.298 661.841 675.74 715.041 587.276 793.347C473.435 894.118 44.7185 912.363 -18.6127 572.895M1944.1 115.713C1882.62 77.5088 1783.32 78.3409 1689.85 156.667C1655.07 185.816 1633.9 230.001 1617.02 273.637C1594.16 332.817 1561.36 390.01 1516.81 435.242C1473.14 479.838 1407.04 521.203 1346.25 512.345C1303.4 506.1 1268.67 462.101 1286.85 439.725C1290.89 434.743 1296.45 433.02 1301.94 433.979C1309.49 435.085 1316.42 440.949 1319.49 449.827C1325.01 465.811 1318.83 487.698 1306.41 508.694C1262.02 583.74 1155.66 643.136 1050.31 616.042C926.031 584.083 844.232 689.992 861.692 742.301C882.714 805.259 929.437 721.149 811.553 689.679C747.968 678.824 668.929 731.417 580.239 805.093C461.788 903.495 41.1561 913.254 -19.7578 578.2M1941.38 110.065C1882.83 73.6816 1788.11 81.3849 1695.92 162.833C1662.34 192.502 1641.25 236.285 1624.3 279.628C1601.37 338.367 1568.75 395.139 1524.67 440.244C1481.32 484.869 1416.33 526.068 1356.05 518.932C1313.51 513.901 1278.6 472.663 1293.75 451.569C1297.1 446.89 1301.87 445.285 1306.58 446.205C1313.1 447.252 1318.95 452.783 1321.19 461.191C1325.21 476.314 1318.1 496.918 1305.06 516.955C1258.88 587.861 1153.7 645.974 1048.68 621.709C927.479 593.705 845.661 695.699 860.273 749.28C877.243 811.514 919.944 733.403 804.614 704.724C740.618 695.836 661.95 747.724 573.193 816.868C449.985 912.843 37.5935 914.174 -20.9225 583.535M1938.66 104.407C1883.05 69.8446 1792.89 84.3704 1702 168.981C1669.6 199.138 1648.62 242.549 1631.6 285.598C1608.6 343.898 1576.16 400.249 1532.56 445.216C1489.54 489.861 1425.64 530.913 1365.88 525.5C1323.64 521.673 1288.57 483.195 1300.67 463.403C1303.36 459.028 1307.33 457.53 1311.23 458.43C1316.74 459.419 1321.49 464.607 1322.9 472.545C1325.43 486.787 1317.41 506.129 1303.73 525.206C1255.83 591.963 1151.83 648.774 1047.09 627.377C929.016 603.258 847.188 701.317 858.873 756.259C871.939 817.681 910.47 745.658 797.695 719.768C733.287 712.838 654.865 763.924 566.156 828.634C438.035 922.112 34.0312 915.084 -22.0773 588.869M1935.94 98.7592C1883.26 66.0173 1797.63 87.2971 1708.07 175.147C1676.83 205.775 1655.97 248.833 1638.89 291.579C1615.82 349.438 1583.55 405.358 1540.42 450.199C1497.74 494.872 1434.94 535.768 1375.68 532.068C1333.77 529.445 1298.52 493.707 1307.59 475.237C1309.6 471.155 1312.77 469.785 1315.89 470.646C1320.38 471.576 1324.04 476.412 1324.61 483.9C1325.64 497.241 1316.73 515.33 1302.39 533.458C1252.82 596.074 1149.98 651.524 1045.47 633.044C930.582 612.723 848.802 706.867 857.464 763.248C866.761 823.769 900.996 757.923 790.766 734.813C725.947 729.85 647.642 780.006 559.119 840.409C425.949 931.284 30.4687 915.995 -23.2322 594.204M1933.22 93.1015C1883.47 62.1803 1802.31 90.165 1714.13 181.294C1684.06 212.372 1663.33 255.088 1646.18 297.55C1623.05 354.968 1590.95 410.468 1548.29 455.181C1505.95 499.874 1444.24 540.623 1385.5 538.636C1343.9 537.226 1308.5 504.21 1314.51 487.061C1315.84 483.273 1318.21 482.03 1320.55 482.862C1324.01 483.733 1326.59 488.197 1326.33 495.244C1325.87 507.656 1316.08 524.531 1301.06 541.7C1249.88 600.185 1148.17 654.216 1043.88 638.702C932.207 622.091 850.545 712.359 856.064 770.217C861.741 829.779 891.522 770.159 783.856 749.848C718.627 746.853 640.331 795.97 552.092 852.175C413.725 940.309 26.9259 916.905 -24.3772 599.529M1930.5 87.4537C1883.67 58.3433 1806.95 92.9939 1720.2 187.461C1691.26 218.969 1670.69 261.372 1653.47 303.54C1630.26 360.508 1598.34 415.597 1556.16 460.173C1514.15 504.896 1453.54 545.497 1395.3 545.214C1354.02 545.018 1318.48 514.684 1321.43 498.905C1322.09 495.401 1323.65 494.285 1325.21 495.088C1327.65 495.91 1329.15 499.982 1328.04 506.599C1326.11 518.061 1315.43 533.742 1299.72 549.951C1246.99 604.325 1146.4 656.859 1042.26 644.369C933.861 631.37 852.414 717.83 854.645 777.196C856.857 835.77 882.029 782.414 776.917 764.883C711.277 763.845 632.893 811.808 545.046 863.931C401.364 949.187 23.3536 917.805 -25.5321 604.854M1927.78 81.7961C1883.88 54.5063 1811.54 95.7543 1726.27 193.608C1698.45 225.528 1678.04 267.637 1660.76 309.511C1637.47 366.039 1605.73 420.697 1564.03 465.145C1522.34 509.888 1462.83 550.353 1405.11 551.772C1364.14 552.79 1328.44 525.089 1328.34 510.729C1328.32 507.499 1329.1 506.53 1329.86 507.304C1331.27 508.067 1331.73 511.738 1329.74 517.953C1326.39 528.456 1314.8 542.962 1298.37 558.203C1244.16 608.505 1144.67 659.423 1040.65 650.036C935.544 640.552 854.41 723.302 853.236 784.175C852.12 841.76 872.555 794.669 769.988 779.927C703.936 780.857 625.387 827.547 537.999 875.706C388.866 957.898 19.7912 918.726 -26.6967 610.188M1925.06 76.1482C1884.08 50.679 1816.07 98.4851 1732.34 199.774C1705.62 232.095 1685.4 273.921 1668.05 315.492C1644.69 371.579 1613.13 425.816 1571.9 470.127C1530.54 514.889 1472.13 555.207 1414.92 558.349C1374.26 560.581 1338.34 535.474 1335.26 522.563C1334.56 519.597 1334.54 518.785 1334.52 519.519C1334.91 520.224 1334.33 523.503 1331.45 529.298C1326.73 538.832 1314.18 552.193 1297.04 566.444C1241.4 612.714 1142.98 661.9 1039.05 655.684C937.286 649.606 856.593 728.764 851.836 791.145C847.52 847.75 863.082 806.914 763.069 794.962C696.606 797.859 617.821 843.15 530.972 887.462C376.29 966.385 16.2385 919.626 -27.8418 615.503M1922.34 70.4906C1884.29 46.8421 1820.54 101.157 1738.4 205.922C1712.77 238.624 1692.75 280.176 1675.34 321.463C1651.91 377.109 1620.53 430.925 1579.77 475.11C1538.74 519.901 1481.43 560.072 1424.72 564.917C1384.38 568.363 1348.16 545.84 1342.17 534.398C1340.75 531.696 1339.97 531.03 1339.16 531.745C1338.52 532.391 1336.94 535.288 1333.15 540.662C1327.09 549.246 1313.56 561.443 1295.68 574.696C1238.65 616.981 1141.28 664.288 1037.42 661.352C939.009 658.572 858.873 734.294 850.398 798.124C843.009 853.8 853.569 819.169 756.11 809.997C689.236 814.852 610.168 858.645 523.906 899.227C363.567 974.656 12.6566 920.527 -29.026 620.838M1919.62 64.8428C1884.49 43.0149 1824.93 103.791 1744.47 212.088C1719.9 245.163 1700.11 286.46 1682.63 327.453C1659.13 382.659 1627.93 436.045 1587.65 480.102C1546.95 524.913 1490.74 564.957 1434.55 571.495C1394.52 576.154 1357.94 556.274 1349.11 546.241C1346.98 543.814 1345.44 543.295 1343.83 543.97C1342.18 544.558 1339.62 547.093 1334.89 552.017C1327.52 559.691 1313.01 570.712 1294.38 582.948C1236.01 621.308 1139.66 666.579 1035.85 667.019C940.809 667.421 861.379 739.893 849.037 805.103C838.663 859.908 844.144 831.424 749.23 825.042C681.945 831.864 602.563 874.022 516.908 911.003C350.834 982.692 9.13325 921.447 -30.1417 626.173M1916.91 59.1851C1884.71 39.1778 1829.27 106.384 1750.55 218.235C1727.01 251.672 1707.48 292.724 1689.92 333.414C1666.35 388.17 1635.33 441.144 1595.52 485.064C1555.15 529.905 1500.03 569.802 1444.36 578.044C1404.64 583.926 1367.69 566.748 1356.02 558.046C1353.15 555.912 1350.87 555.521 1348.48 556.167C1345.8 556.695 1342.27 558.898 1336.59 563.351C1327.92 570.154 1312.43 579.982 1293.04 591.179C1233.36 625.673 1138 668.722 1034.24 672.667C942.561 676.152 863.972 745.551 847.618 812.062C834.347 866.064 834.651 843.659 742.291 840.057C674.595 848.847 594.881 889.273 509.862 922.739C337.974 990.405 5.56097 922.328 -31.2966 631.468M1914.19 53.5373C1884.91 35.3506 1833.5 108.949 1756.62 224.402C1734.11 258.201 1714.83 299.008 1697.21 339.405C1673.58 393.72 1642.72 446.273 1603.38 490.066C1563.35 534.926 1509.33 574.696 1454.16 584.631C1414.77 591.728 1377.45 577.319 1362.94 569.9C1359.36 568.069 1356.31 567.785 1353.14 568.412C1349.44 568.882 1344.93 570.771 1338.31 574.725C1328.33 580.686 1311.86 589.31 1291.7 599.451C1230.72 630.147 1136.32 670.778 1032.62 678.354C944.313 684.795 866.693 751.345 846.209 819.061C830.09 872.339 825.167 855.934 735.362 855.121C667.255 865.878 587.198 904.454 502.815 934.534C325.075 997.893 1.99858 923.267 -32.4612 636.832M1911.47 47.8796C1885.12 31.5038 1837.67 111.484 1762.69 230.549C1741.17 264.7 1722.19 305.263 1704.5 345.376C1680.79 399.25 1650.12 451.373 1611.25 495.039C1571.55 539.928 1518.63 579.561 1463.97 591.199C1424.89 599.519 1387.26 587.881 1369.85 581.734C1365.55 580.217 1361.74 580.04 1357.79 580.628C1353.06 581.049 1347.56 582.634 1340.01 586.08C1328.7 591.228 1311.28 598.638 1290.36 607.702C1228.08 634.669 1134.62 672.677 1031.02 684.012C946.045 693.311 869.521 757.228 844.8 826.04C825.881 878.691 815.693 868.188 728.443 870.166C659.925 882.881 579.535 919.509 495.788 946.299C312.156 1005.04 -1.55411 924.178 -33.6063 642.157M1908.75 42.222C1885.33 27.6668 1841.75 113.99 1768.75 236.696C1748.23 271.2 1729.54 311.528 1711.79 351.337C1688.01 404.771 1657.52 456.473 1619.13 500.001C1579.76 544.91 1527.94 584.416 1473.8 597.747C1435.03 607.291 1397.11 598.442 1376.79 593.538C1371.79 592.334 1367.22 592.266 1362.47 592.824C1356.72 593.186 1350.22 594.488 1341.74 597.405C1329.1 601.761 1310.74 607.976 1289.05 615.924C1225.47 639.23 1132.91 674.38 1029.43 689.65C947.768 701.699 872.457 763.199 843.41 832.99C821.722 885.103 806.229 880.414 721.533 885.171C652.604 899.854 571.911 934.436 488.761 958.035C299.237 1011.83 -5.0969 925.049 -34.7513 647.452M1906.03 36.5741C1885.53 23.8395 1845.76 116.486 1774.82 242.863C1755.26 277.709 1736.9 317.812 1719.09 357.327C1695.23 410.321 1664.91 461.602 1627 505.003C1587.96 549.932 1537.24 589.31 1483.6 604.335C1445.16 615.102 1406.97 609.033 1383.7 605.392C1377.99 604.501 1372.65 604.531 1367.11 605.059C1360.34 605.363 1352.82 606.381 1343.43 608.779C1329.42 612.342 1310.15 617.373 1287.69 624.195C1222.79 643.909 1131.09 675.976 1027.81 695.337C949.402 710.039 875.413 769.346 841.991 839.988C817.543 891.661 796.736 892.689 714.594 900.235C645.244 916.885 564.297 949.324 481.714 969.83C286.309 1018.34 -8.66918 925.988 -35.9062 652.816M1903.3 30.9164C1885.75 20.0025 1849.66 118.962 1780.89 249.01C1762.27 284.208 1744.25 324.076 1726.37 363.298C1702.45 415.842 1672.3 466.702 1634.86 509.976C1596.14 554.933 1546.53 594.184 1493.4 610.893C1455.27 622.884 1416.83 619.595 1390.61 617.216C1384.21 616.639 1378.08 616.776 1371.76 617.275C1363.96 617.52 1355.42 618.264 1345.14 620.123C1329.74 622.903 1309.56 626.77 1286.35 632.437C1220.1 648.607 1129.2 677.356 1026.19 700.994C950.978 718.251 878.427 775.572 840.572 846.958C813.354 898.278 787.252 904.934 707.655 915.261C637.894 933.868 556.721 964.085 474.658 981.576C273.4 1024.47 -12.2415 926.879 -37.0807 658.122M1900.58 25.2687C1885.95 16.1753 1853.49 121.439 1786.96 255.176C1769.27 290.727 1751.61 330.351 1733.66 369.279C1709.66 421.382 1679.7 471.821 1642.74 514.958C1604.35 559.935 1555.85 599.069 1503.21 617.461C1465.41 630.675 1426.7 630.166 1397.53 629.041C1390.43 628.767 1383.53 629.021 1376.42 629.481C1367.6 629.667 1358.04 630.137 1346.85 631.468C1330.06 633.465 1308.97 636.186 1285.02 640.679C1217.38 653.355 1127.21 678.56 1024.6 706.652C952.505 726.385 881.491 781.914 839.172 853.927C809.175 904.983 777.779 917.169 700.736 930.295C630.564 950.87 549.234 978.787 467.631 993.342C260.589 1030.26 -15.7941 927.79 -38.2257 663.447M1897.86 19.6111C1886.16 12.3384 1857.23 123.905 1793.03 261.323C1776.25 297.237 1758.97 336.615 1740.95 375.249C1716.88 426.912 1687.1 476.93 1650.61 519.93C1612.55 564.937 1565.19 604.022 1513.02 624.029C1475.56 638.535 1436.59 640.728 1404.45 640.875C1396.65 640.914 1388.97 641.266 1381.07 641.707C1371.23 641.834 1360.63 642.02 1348.56 642.823C1330.37 644.027 1308.37 645.632 1283.67 648.931C1214.6 658.151 1125.08 679.578 1022.98 712.32C953.904 734.47 884.544 788.355 837.763 860.916C804.967 911.786 768.295 929.434 693.807 945.35C623.224 967.892 541.806 993.43 460.584 1005.13C247.846 1035.74 -19.3663 928.719 -39.3904 668.801M1895.15 13.9632C1886.37 8.50133 1860.89 126.372 1799.1 267.49C1783.22 303.766 1766.33 342.899 1748.25 381.24C1724.12 432.462 1694.51 482.05 1658.48 524.932C1620.77 569.958 1574.5 608.906 1522.85 630.617C1485.71 646.337 1446.49 651.299 1411.37 652.728C1402.89 653.071 1394.42 653.541 1385.74 653.942C1374.88 654.02 1363.24 653.913 1350.28 654.187C1330.68 654.598 1307.76 655.097 1282.35 657.192C1211.8 662.996 1122.81 680.439 1021.39 717.987C955.216 742.487 887.608 794.894 836.363 867.895C800.739 918.647 758.831 941.689 686.888 960.385C615.893 984.885 534.476 1007.99 453.557 1016.88C235.241 1040.86 -22.9091 929.61 -40.5354 674.116M1892.43 8.30544C1886.58 4.66419 1864.46 128.849 1805.17 273.637C1790.17 310.285 1773.69 349.164 1755.53 387.201C1731.33 437.983 1701.9 487.149 1666.34 529.895C1628.96 574.95 1583.79 613.751 1532.64 637.165C1495.82 654.099 1456.36 661.89 1418.28 664.533C1409.1 665.199 1399.86 665.766 1390.39 666.138C1378.5 666.158 1365.82 665.766 1351.99 665.522C1330.97 665.14 1307.12 664.553 1281 665.424C1208.91 667.832 1120.31 681.095 1019.77 723.635C956.39 750.455 890.642 801.481 834.954 874.854C796.472 925.558 749.348 953.924 679.968 975.41C608.563 1001.88 527.233 1022.49 446.521 1028.64C222.743 1045.67 -26.4716 930.511 -41.6805 679.431M1889.71 2.65755C1886.78 0.836926 1867.94 131.335 1811.24 279.804C1797.1 316.833 1781.04 355.438 1762.82 393.191C1738.54 443.523 1709.29 492.278 1674.22 534.887C1637.16 579.962 1593.11 618.626 1542.46 643.743C1505.96 661.89 1466.26 672.422 1425.2 676.377C1415.33 677.336 1405.31 678.021 1395.04 678.364C1382.13 678.325 1368.4 677.649 1353.69 676.876C1331.25 675.701 1306.46 674.028 1279.66 673.675C1205.98 672.706 1117.62 681.604 1018.16 729.302C957.428 758.422 893.646 808.167 833.535 881.833C792.156 932.547 739.854 966.179 673.029 990.444C601.213 1018.88 520.069 1036.96 439.474 1040.39C210.392 1050.18 -30.034 931.411 -42.8451 684.746M1886.99 -3C1886.99 -3 1809.08 678.971 1399.7 690.59C1271.16 689.689 1070.94 615.2 832.135 888.822C593.334 1162.45 -26.8337 1089.85 -44 690.1M2191.66 303.07C2191.66 303.07 1841.49 150.363 1779.5 428.977C1737.56 617.451 1761.1 761.79 1688.83 850.521C1628.1 925.098 1478.3 920.301 1402.66 895.968C1297.22 862.041 1188.67 731.28 1080.59 706.398C854.645 654.392 662.851 1070.43 869.541 1312M2191.83 306.614C2191.83 306.614 1846.5 156.726 1780.9 427.294C1736.59 610.032 1756.33 751.052 1683.78 839.724C1670.04 856.54 1651.86 869.402 1631.08 879.005C1618.01 885.054 1603.95 889.821 1589.35 893.472C1525.14 909.544 1449.97 903.632 1403.22 890.124C1299.57 860.329 1192.79 736.272 1086 713.876C863.375 666.559 672.286 1069.52 863.336 1299.23M2192.01 310.147C2192.01 310.147 1851.52 163.059 1782.3 425.61C1735.63 602.602 1751.57 740.314 1678.73 828.918C1665.08 845.568 1647.14 858.439 1626.72 868.188C1613.86 874.335 1600.08 879.279 1585.81 883.155C1523.03 900.235 1449.69 895.977 1403.78 884.28C1301.93 858.606 1196.86 741.547 1091.41 721.344C871.997 679.304 681.73 1068.6 857.131 1286.44M2192.18 313.681C2192.18 313.681 1856.54 169.372 1783.69 423.927C1734.68 595.153 1746.79 729.576 1673.67 818.121C1660.1 834.615 1642.41 847.486 1622.34 857.382C1609.7 863.637 1596.2 868.746 1582.26 872.838C1520.93 890.917 1449.4 888.323 1404.33 878.427C1304.27 856.883 1200.97 746.667 1096.81 728.813C880.688 691.745 691.164 1067.68 850.916 1273.66M2192.35 317.224C2192.35 317.224 1861.6 175.676 1785.09 422.243C1733.75 587.695 1742.03 718.839 1668.62 807.325C1655.14 823.662 1637.69 836.533 1617.98 846.566C1605.55 852.919 1592.33 858.204 1578.73 862.521C1518.84 881.608 1449.14 880.551 1404.89 872.584C1306.67 854.906 1205.08 751.796 1102.23 736.281C889.399 704.176 700.599 1066.76 844.712 1260.88M2192.52 320.758C2192.52 320.758 1866.67 181.94 1786.47 420.56C1732.81 580.217 1737.23 708.091 1663.55 796.528C1650.15 812.708 1632.95 825.58 1613.59 835.76C1601.38 842.22 1588.45 847.672 1575.17 852.204C1516.72 872.29 1448.84 872.867 1405.42 866.73C1309 853.114 1209.18 756.905 1107.62 743.75C898.099 716.597 710.024 1065.84 838.487 1248.09M2192.69 324.292C2192.69 324.292 1871.77 188.185 1787.87 418.876C1731.91 572.738 1732.46 697.353 1658.5 785.732C1645.18 801.745 1628.23 814.627 1609.23 824.954C1597.22 831.512 1584.58 837.14 1571.64 841.897C1514.64 862.991 1448.55 865.193 1405.98 860.896C1311.35 851.343 1213.31 762.034 1113.03 751.228C906.839 729.009 719.458 1064.93 832.272 1235.33M2192.87 327.835C2192.87 327.835 1876.91 194.411 1789.27 417.192C1731.03 565.24 1727.7 686.615 1653.45 774.926C1640.22 790.783 1623.52 803.664 1604.86 814.137C1593.07 820.803 1580.71 826.598 1568.1 831.58C1512.54 853.672 1448.27 857.51 1406.54 855.043C1313.69 849.561 1217.44 767.134 1118.44 758.697C915.588 741.401 728.903 1064.01 826.067 1222.54M2193.04 331.369C2193.04 331.369 1882.06 200.607 1790.66 415.509C1730.16 557.723 1722.92 675.878 1648.39 764.129C1635.24 779.83 1618.79 792.711 1600.49 803.331C1588.91 810.095 1576.83 816.066 1564.55 821.263C1510.44 844.364 1447.96 849.836 1407.09 849.199C1316.02 847.79 1221.57 772.234 1123.84 766.165C924.338 753.773 738.337 1063.08 819.853 1209.76M2193.21 334.912C2193.21 334.912 1887.26 206.793 1792.06 413.835C1729.34 550.215 1717.97 664.993 1643.34 753.342C1630.24 768.857 1614.07 781.768 1596.12 792.525C1584.76 799.396 1572.97 805.534 1561.02 810.956C1508.34 835.055 1447.67 842.161 1407.65 843.365C1318.35 846.038 1225.71 777.343 1129.26 773.653C933.117 766.145 747.772 1062.18 813.648 1197M2193.38 338.445C2193.38 338.445 1892.5 212.95 1793.44 412.142C1728.53 542.669 1713.17 654.226 1638.27 742.536C1625.26 757.884 1609.31 770.775 1591.74 781.709C1580.57 788.658 1569.08 794.992 1557.46 800.63C1506.24 825.737 1447.36 834.477 1408.18 837.502C1320.66 844.256 1229.84 782.404 1134.65 781.102C941.876 778.459 757.197 1061.24 807.423 1184.19M2193.56 341.979C2193.56 341.979 1897.79 219.087 1794.84 410.458C1727.77 535.132 1708.4 643.478 1633.22 731.74C1620.29 746.931 1604.6 759.812 1587.37 770.903C1576.42 777.95 1565.22 784.459 1553.92 790.323C1504.13 816.438 1447.06 826.823 1408.74 831.668C1322.98 842.514 1234 787.494 1140.06 788.59C950.674 790.792 766.631 1060.34 801.218 1171.43M2193.73 345.522C2193.73 345.522 1903.14 225.224 1796.24 408.784C1727.04 527.595 1703.62 632.741 1628.17 720.943C1615.32 735.968 1599.87 748.859 1583.01 760.096C1572.27 767.251 1561.33 773.898 1550.39 780.015C1501.99 807.031 1446.76 819.159 1409.3 825.825C1325.3 840.762 1238.16 792.554 1145.47 796.058C959.473 803.086 776.076 1059.42 795.013 1158.65M2193.9 349.056C2193.9 349.056 1908.53 231.342 1797.63 407.101C1726.35 520.048 1698.84 621.993 1623.11 710.147C1610.34 725.015 1595.14 737.906 1578.63 749.29C1568.1 756.543 1557.45 763.365 1546.85 769.699C1499.89 797.713 1446.46 811.495 1409.85 819.981C1327.6 839.029 1242.31 797.615 1150.88 803.537C968.281 815.361 785.51 1058.51 788.799 1145.87M2194.07 352.599C2194.07 352.599 1914 237.469 1799.02 405.417C1725.71 512.511 1694.06 611.255 1618.06 699.35C1605.38 714.062 1590.43 726.953 1574.27 738.474C1563.95 745.835 1553.59 752.824 1543.3 759.382C1497.78 788.404 1446.15 803.84 1410.4 814.128C1329.91 837.287 1246.46 802.646 1156.28 810.995C977.089 827.596 794.935 1057.58 782.584 1133.08M2194.24 356.133C2194.24 356.133 1919.53 243.597 1800.4 403.733C1725.09 504.974 1689.27 600.508 1612.99 688.554C1600.39 703.099 1585.69 716 1569.88 727.668C1559.78 735.126 1549.69 742.291 1539.75 749.065C1495.67 779.086 1445.83 796.186 1410.94 808.284C1332.21 835.574 1250.62 807.677 1161.68 818.474C985.898 839.822 804.37 1056.67 776.36 1120.31M2194.42 359.667C2194.42 359.667 1925.14 249.734 1801.8 402.05C1724.55 497.456 1684.51 589.77 1607.94 677.757C1595.43 692.146 1580.97 705.047 1565.52 716.861C1555.62 724.428 1545.83 731.759 1536.22 738.758C1493.57 769.787 1445.54 788.541 1411.5 802.44C1334.53 833.861 1254.79 812.689 1167.09 825.942C994.716 852.008 813.804 1055.75 770.155 1107.53M2194.59 363.21C2194.59 363.21 1930.83 255.92 1803.2 400.366C1724.06 489.959 1679.73 579.032 1602.89 666.951C1590.46 681.183 1576.24 694.084 1561.15 706.045C1551.47 713.71 1541.96 721.217 1532.67 728.431C1491.47 760.458 1445.24 780.887 1412.05 796.587C1336.84 832.158 1258.95 817.681 1172.5 833.411C1003.53 864.156 823.239 1054.82 763.94 1094.75M2194.76 366.743C2194.76 366.743 1936.57 262.136 1804.59 398.683C1723.6 482.48 1674.97 568.294 1597.83 656.154C1585.48 670.22 1571.52 683.131 1556.78 695.239C1547.31 703.011 1538.09 710.685 1529.13 718.124C1489.37 751.159 1444.93 773.252 1412.61 790.743C1339.17 830.464 1263.12 822.663 1177.91 840.879C1012.35 876.283 832.683 1053.9 757.735 1081.96M2194.94 370.277C2194.94 370.277 1942.4 268.4 1805.99 396.999C1723.2 475.051 1670.2 557.557 1592.78 645.358C1580.52 659.267 1566.8 672.187 1552.41 684.423C1543.17 692.293 1534.21 700.143 1525.59 707.807C1487.26 741.851 1444.64 765.617 1413.16 784.9C1341.49 828.781 1267.27 827.636 1183.31 848.357C1021.15 888.392 842.108 1052.99 751.52 1069.19M2195.1 373.82C2195.1 373.82 1948.29 274.753 1807.37 395.316C1722.82 467.661 1665.42 546.819 1587.72 634.561C1575.54 648.314 1562.06 661.234 1548.03 673.617C1539 681.594 1530.32 689.611 1522.04 697.49C1485.15 732.542 1444.34 757.982 1413.69 779.046C1343.81 827.097 1271.41 832.579 1188.7 855.826C1029.93 900.451 851.533 1052.07 745.296 1056.41M2195.28 377.354C2195.28 377.354 1954.26 281.184 1808.77 393.632C1722.5 460.31 1660.66 536.091 1582.67 623.765C1570.57 637.361 1557.35 650.281 1543.66 662.81C1534.84 670.886 1526.46 679.078 1518.5 687.183C1483.06 723.253 1444.05 750.357 1414.26 773.213C1346.17 825.433 1275.57 837.522 1194.12 863.304C1038.73 912.5 860.977 1051.16 739.101 1043.63M2195.45 380.897C2195.45 380.897 1960.28 287.713 1810.17 391.958C1722.21 453.037 1655.91 525.373 1577.62 612.968C1565.61 626.408 1552.63 639.328 1539.3 652.004C1530.69 660.187 1522.59 668.546 1514.96 676.866C1480.97 713.944 1443.77 742.722 1414.81 767.359C1348.51 823.759 1279.71 842.436 1199.53 870.773C1047.5 924.501 870.412 1050.24 732.886 1030.85M2195.62 384.431C2195.62 384.431 1966.34 294.349 1811.56 390.275C1721.93 445.813 1651.14 514.645 1572.56 602.172C1560.63 615.455 1547.9 628.385 1534.92 641.198C1526.53 649.488 1518.72 658.024 1511.42 666.559C1478.87 704.645 1443.49 735.097 1415.36 761.525C1350.87 822.105 1283.83 847.349 1204.93 878.251C1056.24 936.491 879.847 1049.33 726.671 1018.08M2195.8 387.964C2195.8 387.964 1972.43 301.113 1812.96 388.581C1721.68 438.648 1646.39 503.907 1567.51 591.366C1555.67 604.492 1543.19 617.422 1530.56 630.382C1522.38 638.77 1514.86 647.492 1507.88 656.242C1476.86 695.396 1443.21 727.472 1415.93 755.672C1353.26 820.431 1287.96 852.234 1210.35 885.719C1064.98 948.443 889.291 1048.41 720.466 1005.29M2195.96 391.508C2195.96 391.508 1978.52 308.014 1814.34 386.907C1721.39 431.571 1641.78 493.336 1562.44 580.579C1550.71 593.568 1538.48 606.508 1526.17 619.575C1518.23 628.091 1510.98 636.959 1504.32 645.925C1474.74 686.087 1442.92 719.837 1416.45 749.828C1355.61 818.767 1292.04 857.108 1215.74 893.188C1073.67 960.375 898.716 1047.49 714.242 992.51M2196.14 395.041C2196.14 395.041 1984.59 315.032 1815.74 385.224C1721.13 424.553 1637.01 482.598 1557.39 569.782C1545.75 582.605 1533.76 595.555 1521.81 608.769C1514.07 617.383 1507.11 626.427 1500.79 635.618C1472.65 676.778 1442.65 712.212 1417.01 743.985C1358.01 817.103 1296.13 861.973 1221.16 900.666C1082.35 972.287 908.15 1046.58 708.037 979.746M2196.31 398.585C2196.31 398.585 1990.64 322.187 1817.14 383.54C1720.84 417.603 1632.25 471.86 1552.34 558.976C1540.78 571.642 1529.04 584.592 1517.45 597.953C1509.92 606.674 1503.24 615.885 1497.25 625.292C1470.56 667.46 1442.4 704.567 1417.57 738.131C1360.4 815.42 1300.21 866.818 1226.57 908.125C1091 984.17 917.595 1045.64 701.832 966.952M2196.48 402.118C2196.48 402.118 1996.64 329.45 1818.53 381.857C1720.49 410.703 1627.47 461.122 1547.28 548.179C1535.81 560.689 1524.32 573.639 1513.07 587.147C1505.76 595.966 1499.37 605.353 1493.7 614.985C1468.44 658.151 1442.12 696.942 1418.12 732.288C1362.79 813.746 1304.27 871.654 1231.97 915.603C1099.6 996.053 927.029 1044.73 695.618 954.179M2196.66 405.652C2196.66 405.652 2002.57 336.821 1819.93 380.173C1720.12 403.861 1622.7 450.375 1542.23 537.383C1530.83 549.736 1519.6 562.686 1508.71 576.34C1501.61 585.267 1495.49 594.821 1490.17 604.678C1466.36 648.852 1441.92 689.356 1418.68 726.454C1365.33 812.16 1308.3 876.509 1237.38 923.081C1108.19 1007.93 936.464 1043.82 689.413 941.405M2196.83 409.195C2196.83 409.195 2008.43 344.299 1821.32 378.489C1719.68 397.068 1617.93 439.637 1537.17 526.586C1525.86 538.773 1514.87 551.733 1504.33 565.524C1497.45 574.549 1491.62 584.279 1486.63 594.351C1464.25 639.524 1441.63 681.682 1419.22 720.591C1367.67 810.418 1312.31 881.315 1242.78 930.54C1116.73 1019.78 945.898 1042.89 683.198 928.612M2197 412.729C2197 412.729 1719.85 253.816 1499.97 554.718C1493.29 563.851 1487.75 573.747 1483.08 584.044C1326.7 929.16 1176.37 1142.15 676.983 915.838M2193.07 417.809C2191.08 416.076 2116.76 391.028 2014.26 377.941C1914.9 365.246 1789.82 363.327 1676.37 406.699C1606.5 433.186 1540.8 477.067 1489.18 546.104C1482.4 555.188 1476.74 565.045 1471.95 575.293C1425.47 674.948 1381.34 765.01 1329.61 836.66C1304.31 871.507 1277.14 902.017 1246.98 927.32C1168.45 993.205 1070 1024.12 931.443 1003.29C857.19 992.118 771.672 965.396 673.714 921.633M2189.14 422.889C2185.17 419.434 2111.03 394.102 2009.79 379.419C1909.47 364.864 1784.14 360.176 1669.4 400.758C1598.5 425.826 1531.13 468.532 1478.43 537.471C1471.54 546.515 1465.76 556.323 1460.85 566.523C1413.34 665.522 1370.24 756.621 1319.75 829.358C1295.26 864.626 1268.83 895.566 1239.49 921.535C1163.11 989.162 1067.13 1023.28 929.368 1005.88C854.694 996.445 768.305 970.486 670.485 927.408M2185.21 427.979C2179.25 422.791 2105.3 397.136 2005.29 380.907C1904.01 364.463 1778.37 356.877 1662.41 394.826C1590.44 418.377 1521.45 460.016 1467.66 528.857C1460.66 537.863 1454.76 547.612 1449.72 557.772C1401.2 656.105 1359 748.184 1309.84 822.066C1286.12 857.715 1260.47 889.136 1231.96 915.77C1157.74 985.139 1064.19 1022.51 927.264 1008.49C852.15 1000.81 764.909 975.596 667.226 933.202M2181.27 433.059C2173.34 426.139 2099.56 400.112 2000.8 382.385C1898.54 364.022 1772.6 353.549 1655.42 388.885C1582.37 410.908 1511.76 451.481 1456.87 520.234C1449.77 529.2 1443.75 538.9 1438.58 549.012C1389.04 646.689 1347.76 739.717 1299.94 814.764C1276.98 850.795 1252.11 882.685 1224.43 909.985C1152.35 981.097 1061.24 1021.76 925.16 1011.09C849.585 1005.17 761.513 980.695 663.967 938.978M2177.34 438.139C2167.41 429.486 2093.82 403.039 1996.31 383.863C1893.06 363.552 1766.82 350.221 1648.43 382.943C1574.3 403.44 1501.92 442.838 1446.11 511.601C1438.88 520.508 1432.75 530.179 1427.45 540.251C1376.89 637.263 1336.51 731.25 1290.04 807.462C1267.84 843.865 1243.75 876.244 1216.9 904.209C1146.97 977.064 1058.25 1021.05 923.046 1013.69C847.002 1009.55 758.107 985.795 660.698 944.762M2173.41 443.219C2161.5 432.844 2088.07 405.916 1991.84 385.341C1887.59 363.043 1761.04 346.873 1641.46 377.002C1566.24 395.961 1492.23 434.283 1435.34 502.977C1428 511.845 1421.74 521.457 1416.34 531.49C1364.54 627.739 1325.28 722.764 1280.15 800.16C1258.72 836.925 1235.42 869.794 1209.39 898.424C1141.62 973.021 1055.27 1020.4 920.961 1016.29C844.437 1013.95 754.73 990.885 657.458 950.537M2169.48 448.3C2155.58 436.191 2082.33 408.755 1987.34 386.819C1882.1 362.505 1755.24 343.516 1634.48 371.06C1558.16 388.473 1482.54 425.738 1424.57 494.344C1417.11 503.173 1410.73 512.736 1405.21 522.72C1352.37 618.293 1314.02 714.267 1270.26 792.848C1249.58 829.985 1227.07 863.334 1201.87 892.64C1136.24 968.969 1052.25 1019.78 918.867 1018.88C841.844 1018.36 751.344 995.975 654.199 956.322M2165.54 453.38C2149.66 439.539 2076.58 411.554 1982.85 388.297C1876.6 361.937 1749.43 340.139 1627.49 365.128C1550.07 380.985 1472.84 417.192 1413.79 485.73C1406.23 494.51 1399.73 504.034 1394.08 513.969C1340.2 608.867 1302.76 705.791 1260.35 785.556C1240.42 823.055 1218.71 856.903 1194.34 886.865C1130.87 964.936 1049.21 1019.22 916.763 1021.48C839.241 1022.8 747.948 1001.07 650.94 962.107M2161.61 458.46C2143.74 442.887 2070.85 414.305 1978.36 389.775C1871.1 361.321 1743.63 336.762 1620.5 359.187C1541.99 373.488 1463.14 408.657 1403.02 477.107C1395.34 485.848 1388.72 495.313 1382.95 505.209C1328.03 599.431 1291.48 697.285 1250.46 778.254C1231.28 816.105 1210.37 850.452 1186.81 881.09C1125.49 960.903 1046.17 1018.71 914.659 1024.09C836.618 1027.28 744.552 1006.17 647.681 967.892M2157.69 463.54C2137.83 446.244 2065.11 417.016 1973.89 391.253C1865.61 360.675 1737.83 333.365 1613.53 353.245C1533.92 365.98 1453.46 400.112 1392.26 468.473C1384.48 477.175 1377.74 486.591 1371.84 496.438C1315.89 589.995 1280.23 688.769 1240.57 770.942C1222.13 809.155 1202.03 844.002 1179.31 875.295C1120.14 956.851 1043.13 1018.23 912.574 1026.67C834.014 1031.75 741.176 1011.25 644.442 973.657M2153.75 468.63C2131.91 449.601 2059.39 419.698 1969.4 392.741C1860.11 360.009 1732.01 329.969 1606.55 347.314C1525.82 358.472 1443.77 391.576 1381.49 459.86C1373.59 468.513 1366.73 477.89 1360.71 487.697C1303.72 580.579 1268.94 680.282 1230.67 763.659C1212.96 802.225 1193.67 837.571 1171.78 869.539C1114.76 952.838 1040.06 1017.83 910.47 1029.29C831.391 1036.29 737.779 1016.37 641.183 979.462M2149.82 473.71C2125.99 452.949 2053.66 422.331 1964.9 394.219C1854.62 359.285 1726.19 326.553 1599.56 341.372C1517.73 350.945 1434.07 383.041 1370.71 451.226C1362.7 459.84 1355.73 469.168 1349.58 478.927C1291.56 571.143 1257.64 671.757 1220.76 756.347C1203.8 795.266 1185.32 831.11 1164.24 863.754C1109.38 948.785 1036.99 1017.45 908.356 1031.89C828.749 1040.82 734.374 1021.46 637.914 985.247M2145.89 478.79C2120.08 456.306 2047.95 424.935 1960.42 395.697C1849.15 358.531 1720.38 323.117 1592.58 335.431C1509.64 343.418 1424.39 374.496 1359.94 442.603C1351.83 451.177 1344.73 460.457 1338.46 470.167C1279.42 561.717 1246.36 663.231 1210.88 749.055C1194.64 788.316 1176.98 824.68 1156.74 857.979C1104.03 944.753 1033.94 1017.13 906.271 1034.5C826.136 1045.41 730.997 1026.58 634.674 991.042M2141.96 483.87C2114.16 459.654 2042.24 427.499 1955.94 397.175C1843.69 357.738 1714.56 319.681 1585.6 329.489C1501.55 335.881 1414.72 365.96 1349.18 433.979C1340.96 442.515 1333.73 451.735 1327.34 461.406C1267.27 552.291 1235.05 654.706 1200.98 741.753C1185.48 781.366 1168.63 818.229 1149.21 852.204C1098.64 940.72 1030.87 1016.84 904.167 1037.11C823.503 1050.01 727.591 1031.68 631.415 996.826M2138.02 488.951C2108.24 463.002 2036.54 430.035 1951.45 398.653C1838.24 356.896 1708.74 316.236 1578.61 323.558C1493.46 328.344 1405.03 357.445 1338.4 425.356C1330.07 433.842 1322.72 443.024 1316.22 452.646C1255.13 542.865 1223.74 646.18 1191.09 734.451C1176.31 774.407 1160.28 811.788 1141.7 846.419C1093.28 936.677 1027.82 1016.59 902.073 1039.7C820.89 1054.62 724.205 1036.77 628.166 1002.6M2134.09 494.031C2102.32 466.349 2030.86 432.55 1946.95 400.131C1832.8 356.025 1702.92 312.771 1571.63 317.616C1485.36 320.797 1395.35 348.909 1327.63 416.732C1319.19 425.18 1311.72 434.312 1305.08 443.895C1242.97 533.448 1212.41 637.654 1181.18 727.159C1167.11 767.457 1151.92 805.348 1134.16 840.654C1087.9 932.654 1024.76 1016.4 899.959 1042.31C818.257 1059.28 720.799 1041.88 624.897 1008.4M2130.17 499.111C2096.41 469.707 2025.19 435.027 1942.47 401.609C1827.38 355.105 1697.1 309.296 1564.65 311.674C1477.27 313.241 1385.68 340.384 1316.86 408.109C1308.32 416.517 1300.73 425.601 1293.96 435.134C1230.84 524.032 1201.07 629.129 1171.29 719.857C1157.95 760.498 1143.58 798.907 1126.64 834.869C1082.53 928.612 1021.73 1016.23 897.874 1044.91C815.664 1063.94 717.423 1046.97 621.658 1014.17M2126.23 504.201C2090.49 473.064 2019.53 437.493 1937.99 403.097C1821.98 354.165 1691.29 305.831 1557.67 305.743C1469.19 305.684 1376.01 331.858 1306.1 399.485C1297.44 407.854 1289.73 416.889 1282.84 426.374C1218.7 514.606 1189.74 620.593 1161.4 712.554C1148.76 753.538 1135.24 792.456 1119.13 829.094C1077.17 924.569 1018.71 1016.1 895.78 1047.51C813.07 1068.63 714.036 1052.07 618.408 1019.97M2122.3 509.281C2084.57 476.412 2013.88 439.921 1933.5 404.575C1816.59 353.167 1685.47 302.336 1550.68 299.801C1461.09 298.118 1366.33 323.332 1295.32 390.862C1286.56 399.192 1278.73 408.177 1271.71 417.613C1206.56 505.189 1178.39 612.048 1151.5 705.252C1139.58 746.579 1126.89 786.006 1111.6 823.309C1071.79 920.526 1015.7 1016 893.675 1050.1C810.477 1073.35 710.64 1057.16 615.149 1025.74M2118.36 514.361C2078.65 479.759 2008.25 442.329 1929 406.053C1811.23 352.139 1679.65 298.842 1543.69 293.86C1453 290.541 1356.66 314.816 1284.55 382.229C1275.68 390.519 1267.73 399.456 1260.59 408.843C1194.43 495.763 1167.02 603.503 1141.6 697.941C1130.38 739.609 1118.53 779.555 1104.07 817.524C1066.41 916.484 1012.7 1015.93 891.571 1052.7C807.893 1078.1 707.244 1062.25 611.89 1031.52M2114.44 519.441C2072.75 483.117 2002.63 444.717 1924.52 407.531C1805.9 351.063 1673.84 295.338 1536.72 287.918C1444.91 282.956 1347 306.291 1273.78 373.605C1264.81 381.857 1256.74 390.744 1249.46 400.082C1182.29 486.357 1155.65 594.968 1131.7 690.639C1121.18 732.65 1110.18 773.105 1096.55 811.739C1061.04 912.441 1009.73 1015.89 889.467 1055.29C805.319 1082.86 703.848 1067.35 608.631 1037.29M2110.5 524.521C2066.82 486.464 1997.03 447.086 1920.04 409.009C1800.6 349.947 1668.04 291.824 1529.73 281.986C1436.83 275.379 1337.33 297.785 1263 364.991C1253.92 373.204 1245.74 382.043 1238.33 391.341C1170.16 476.96 1144.27 586.442 1121.81 683.356C1111.99 725.71 1101.83 766.684 1089.03 805.984C1055.68 908.428 1006.77 1015.9 887.373 1057.92C802.774 1087.67 700.462 1072.47 605.382 1043.1M2106.57 529.601C2060.9 489.812 1991.45 449.435 1915.55 410.487C1795.33 348.792 1662.23 288.3 1522.74 276.045C1428.74 267.784 1327.65 289.269 1252.23 356.358C1243.04 364.531 1234.73 373.321 1227.2 382.571C1158.02 467.543 1132.89 577.897 1111.9 676.054C1102.78 718.751 1093.49 760.233 1081.51 800.199C1050.31 904.376 1003.84 1015.92 885.268 1060.51C800.24 1092.49 697.066 1077.56 602.113 1048.88M2102.63 534.681C2054.98 493.169 1985.87 451.765 1911.06 411.965C1790.07 347.598 1656.42 284.767 1515.75 270.104C1420.65 260.188 1317.98 280.753 1241.45 347.735C1232.16 355.869 1223.73 364.61 1216.08 373.811C1145.89 458.137 1121.49 569.352 1102.01 668.752C1093.57 711.781 1085.14 753.783 1073.98 794.424C1044.92 900.343 1000.93 1015.96 883.164 1063.11C797.715 1097.32 693.67 1082.66 598.854 1054.67M2098.71 539.771C2049.07 496.527 1980.33 454.094 1906.57 413.453C1784.86 346.374 1650.63 281.243 1508.77 264.172C1412.58 252.592 1308.46 272.404 1230.69 339.121C1221.3 347.235 1212.74 355.908 1204.96 365.06C1133.78 448.74 1110.09 560.826 1092.12 661.46C1084.36 704.831 1076.79 747.352 1066.46 788.649C1039.56 896.31 998.043 1016.02 881.07 1065.72C795.229 1102.19 690.284 1087.76 595.605 1060.45M2094.78 544.851C2043.15 499.874 1974.79 456.404 1902.08 414.931C1779.68 345.101 1644.83 277.699 1501.79 258.23C1404.49 244.987 1298.78 263.868 1219.91 330.487C1210.42 338.563 1201.76 347.206 1193.83 356.289C1121.8 439.451 1098.67 552.281 1082.22 654.148C1075.15 697.862 1068.44 740.892 1058.94 782.864C1034.19 892.268 995.176 1016.1 878.966 1068.31C792.743 1107.05 686.887 1092.85 592.346 1066.23M2090.84 549.932C2037.23 503.222 1969.27 458.695 1897.6 416.409C1774.54 343.8 1639.05 274.156 1494.81 252.289C1396.43 237.371 1289.1 255.343 1209.15 321.864C1199.55 329.9 1190.76 338.494 1182.7 347.529C1109.64 430.035 1087.25 543.745 1072.32 646.846C1065.94 690.912 1060.08 734.451 1051.41 777.079C1028.81 888.225 992.337 1016.18 876.862 1070.9C790.277 1111.94 683.491 1097.94 589.087 1072M2086.92 555.012C2031.32 506.579 1963.77 460.985 1893.12 417.887C1769.44 342.449 1633.26 270.603 1487.83 246.347C1388.37 229.756 1279.42 246.807 1198.38 313.231C1188.67 321.228 1179.77 329.763 1171.59 338.768C1097.51 420.608 1075.83 535.21 1062.43 639.543C1056.73 683.953 1051.74 728 1043.9 771.304C1023.46 884.192 989.538 1016.3 874.787 1073.51C787.859 1116.85 680.125 1103.04 585.857 1077.79M2082.98 560.092C2025.41 509.927 1958.29 463.256 1888.62 419.365C1764.37 341.069 1627.52 266.815 1480.84 240.416C1380.32 221.994 1269.74 238.292 1187.61 304.617C1177.79 312.575 1168.77 321.061 1160.46 330.018C1085.35 411.202 1064.4 526.694 1052.53 632.251C1047.5 677.003 1043.39 721.56 1036.37 765.529C1018.07 880.15 986.739 1016.41 872.673 1076.11C785.422 1121.77 676.719 1108.14 582.588 1083.58M2079.05 565.172C2019.49 513.274 1952.82 465.527 1884.13 420.843C1759.34 339.649 1621.71 263.369 1473.85 234.474C1372.24 214.447 1260.05 229.756 1176.83 295.994C1166.91 303.902 1157.76 312.35 1149.33 321.257C1073.21 401.786 1052.83 518.159 1042.63 624.949C1038.22 670.044 1035.05 715.119 1028.85 759.754C1012.7 876.117 983.979 1016.54 870.578 1078.72C783.024 1126.72 673.333 1113.25 579.339 1089.37M2075.11 570.252C2013.56 516.622 1947.37 467.788 1879.65 422.322C1754.37 338.201 1615.93 259.924 1466.88 228.533C1364.16 206.9 1250.37 221.231 1166.07 287.36C1065.53 366.225 1042.48 497.652 1032.74 617.637C1029.05 663.084 1026.7 708.659 1021.33 753.959C1007.33 872.065 981.239 1016.66 868.474 1081.3C780.637 1131.65 669.937 1118.33 576.08 1095.13" stroke="url(#paint0_linear_488_8668)" strokeWidth="0.5658" stroke-miterlimit="10"/>
<defs>
<linearGradient id="paint0_linear_488_8668" x1="963.018" y1="506.66" x2="1609.74" y2="1087.99" gradientUnits="userSpaceOnUse">
<stop stop-color="#F70D1A"/>
<stop offset="1" stop-color="#F70D1A"/>
</linearGradient>
</defs>
</svg>
