<svg width="34" height="24" viewBox="0 0 34 24" fill="none" xmlns="http://www.w3.org/2000/svg">
<rect width="34" height="24" rx="4" fill="#1F72CD"/>
<path fillRule="evenodd" clipRule="evenodd" d="M6.09542 8.5L2.91431 15.7467H6.72254L7.19465 14.5913H8.27379L8.7459 15.7467H12.9377V14.8649L13.3112 15.7467H15.4795L15.8531 14.8462V15.7467H24.5709L25.6309 14.6213L26.6235 15.7467L31.1011 15.7561L27.91 12.1436L31.1011 8.5H26.6929L25.661 9.60463L24.6997 8.5H15.2159L14.4015 10.3704L13.568 8.5H9.76774V9.35186L9.34498 8.5H6.09542ZM6.83226 9.5293H8.68857L10.7986 14.4434V9.5293H12.8321L14.4619 13.0527L15.9639 9.5293H17.9872V14.7293H16.7561L16.746 10.6546L14.9511 14.7293H13.8498L12.0448 10.6546V14.7293H9.512L9.03183 13.5635H6.43766L5.95848 14.7283H4.60144L6.83226 9.5293ZM24.1198 9.5293H19.1136V14.7262H24.0423L25.6309 13.0039L27.162 14.7262H28.7626L26.4362 12.1428L28.7626 9.5293H27.2315L25.651 11.2319L24.1198 9.5293ZM7.73529 10.4092L6.88062 12.4859H8.58898L7.73529 10.4092ZM20.35 11.5547V10.6054V10.6045H23.4737L24.8367 12.1226L23.4133 13.649H20.35V12.6127H23.0811V11.5547H20.35Z" fill="white"/>
</svg>
