<svg width="34" height="24" viewBox="0 0 34 24" fill="none" xmlns="http://www.w3.org/2000/svg">
<rect x="0.5" y="0.5" width="33" height="23" rx="3.5" fill="white" stroke="#D9D9D9"/>
<path d="M14 23L33 17.25V20C33 21.6569 31.6569 23 30 23H14Z" fill="#FD6020"/>
<path fillRule="evenodd" clipRule="evenodd" d="M29.3937 9.11133C30.4389 9.11133 31.0139 9.59487 31.0139 10.5082C31.0661 11.2067 30.5957 11.7977 29.9686 11.9051L31.3797 13.893H30.2822L29.0801 11.9589H28.9755V13.893H28.087V9.11133H29.3937ZM28.9756 11.3139H29.2369C29.8118 11.3139 30.0731 11.0453 30.0731 10.5617C30.0731 10.1319 29.8118 9.86328 29.2369 9.86328H28.9756V11.3139ZM25.0034 13.893H27.5121V13.0871H25.8919V11.7977H27.4599V10.9918H25.8919V9.91723H27.5121V9.11133H25.0034V13.893ZM22.3902 12.3349L21.1881 9.11133H20.2473L22.1811 14.0005H22.6515L24.5853 9.11133H23.6445L22.3902 12.3349ZM11.7805 11.5283C11.7805 12.8715 12.8258 13.9998 14.1324 13.9998C14.5505 13.9998 14.9164 13.8923 15.2823 13.7311V12.6566C15.0209 12.9789 14.6551 13.1939 14.237 13.1939C13.4007 13.1939 12.7213 12.5491 12.7213 11.6895V11.582C12.669 10.7224 13.3485 9.97024 14.1847 9.91651C14.6028 9.91651 15.0209 10.1314 15.2823 10.4538V9.37924C14.9687 9.16433 14.5505 9.11061 14.1847 9.11061C12.8258 9.00315 11.7805 10.1314 11.7805 11.5283ZM10.1603 10.9376C9.63762 10.7227 9.48082 10.6152 9.48082 10.3466C9.53309 10.0242 9.79441 9.75557 10.108 9.8093C10.3693 9.8093 10.6306 9.97048 10.8397 10.1854L11.3101 9.54066C10.9442 9.2183 10.4739 9.00339 10.0035 9.00339C9.27176 8.94967 8.64459 9.54066 8.59232 10.2928V10.3466C8.59232 10.9913 8.85365 11.3674 9.68988 11.636C9.89894 11.6897 10.108 11.7972 10.3171 11.9046C10.4739 12.0121 10.5784 12.1733 10.5784 12.3882C10.5784 12.7643 10.2648 13.0866 9.95121 13.0866H9.89894C9.48082 13.0866 9.11497 12.818 8.95818 12.4419L8.38326 13.0329C8.69685 13.6239 9.32403 13.9463 9.95121 13.9463C10.7874 14 11.4669 13.3553 11.5191 12.4956V12.3345C11.4669 11.6897 11.2056 11.3674 10.1603 10.9376ZM7.12891 13.893H8.01741V9.11133H7.12891V13.893ZM3 9.11133H4.30662H4.56794C5.8223 9.16506 6.81532 10.2396 6.76306 11.529C6.76306 12.2275 6.44947 12.8722 5.92682 13.3558C5.45644 13.7318 4.88153 13.9468 4.30662 13.893H3V9.11133ZM4.14987 13.0874C4.56799 13.1411 5.03837 12.98 5.35196 12.7113C5.66555 12.389 5.82234 11.9591 5.82234 11.4756C5.82234 11.0458 5.66555 10.616 5.35196 10.2936C5.03837 10.025 4.56799 9.86379 4.14987 9.91752H3.88855V13.0874H4.14987Z" fill="black"/>
<path fillRule="evenodd" clipRule="evenodd" d="M17.9477 9C16.6411 9 15.5435 10.0745 15.5435 11.4714C15.5435 12.8146 16.5888 13.9429 17.9477 13.9966C19.3066 14.0503 20.3519 12.9221 20.4041 11.5252C20.3519 10.1283 19.3066 9 17.9477 9V9Z" fill="#FD6020"/>
</svg>
