<svg width="20" height="20" viewBox="0 0 20 20" fill="none" xmlns="http://www.w3.org/2000/svg">
<g clip-path="url(#clip0_302_8010)">
<path d="M18.1593 15.5863C17.8569 16.2851 17.4988 16.9283 17.084 17.5196C16.5186 18.3257 16.0557 18.8838 15.6989 19.1936C15.1458 19.7022 14.5533 19.9627 13.9187 19.9775C13.4632 19.9775 12.9138 19.8479 12.2743 19.585C11.6327 19.3232 11.0431 19.1936 10.504 19.1936C9.93859 19.1936 9.33219 19.3232 8.68357 19.585C8.03396 19.8479 7.51064 19.985 7.11053 19.9985C6.50203 20.0245 5.89551 19.7566 5.2901 19.1936C4.90369 18.8566 4.42037 18.2788 3.84138 17.4603C3.22016 16.5863 2.70944 15.5727 2.30933 14.4172C1.88082 13.1691 1.66602 11.9605 1.66602 10.7904C1.66602 9.45008 1.95564 8.29407 2.53574 7.32533C2.99165 6.54721 3.59818 5.9334 4.35729 5.4828C5.1164 5.03219 5.93662 4.80257 6.81993 4.78788C7.30324 4.78788 7.93705 4.93738 8.72468 5.2312C9.51009 5.52601 10.0144 5.67551 10.2355 5.67551C10.4008 5.67551 10.961 5.5007 11.9107 5.15219C12.8089 4.82899 13.5669 4.69517 14.1878 4.74788C15.8705 4.88368 17.1347 5.54699 17.9754 6.74202C16.4705 7.65384 15.7261 8.93096 15.7409 10.5693C15.7545 11.8454 16.2174 12.9074 17.1272 13.7506C17.5396 14.1419 18.0001 14.4444 18.5124 14.6592C18.4013 14.9814 18.284 15.29 18.1593 15.5863ZM14.3002 0.400358C14.3002 1.40059 13.9348 2.3345 13.2064 3.19892C12.3274 4.22654 11.2642 4.82035 10.1113 4.72665C10.0966 4.60665 10.0881 4.48036 10.0881 4.34765C10.0881 3.38743 10.5061 2.3598 11.2484 1.51958C11.619 1.09416 12.0904 0.740434 12.662 0.458257C13.2323 0.18029 13.7718 0.0265683 14.2792 0.000244141C14.294 0.133959 14.3002 0.267682 14.3002 0.400345V0.400358Z" fill="black"/>
</g>
<defs>
<clipPath id="clip0_302_8010">
<rect width="20" height="20" fill="white"/>
</clipPath>
</defs>
</svg>
