<svg width="1920" height="820" viewBox="0 0 1920 820" fill="none" xmlns="http://www.w3.org/2000/svg">
<path d="M1348.88 -1333.43C1348.88 -1333.43 1334.49 -649.263 834.845 -757.488C496.86 -830.684 279.771 -977.269 81.2469 -926.304C-85.598 -883.473 -190.224 -636.184 -207.405 -494.911C-231.37 -297.939 -100.131 -23.265 -140.786 171.218C-225.743 577.767 -1046.29 577.574 -1284.05 60.1173M1343.25 -1336.38C1343.25 -1336.38 1327.88 -662.184 838.632 -758.487C508.203 -823.531 293.655 -961.438 95.0264 -909.964C57.3693 -900.234 22.7976 -880.3 -8.408 -853.704C-28.0605 -836.978 -46.3632 -817.675 -63.2458 -796.672C-137.578 -704.278 -184.352 -577.592 -197.465 -491.405C-226.777 -300.446 -105.163 -33.6966 -148.851 156.841C-238.961 554.467 -1037.69 562.935 -1267.91 79.8407M1337.62 -1339.31C1337.62 -1339.31 1321.34 -675.105 842.401 -759.486C519.546 -816.378 307.54 -945.606 108.771 -893.641C71.447 -883.929 37.0507 -864.398 5.88012 -838.486C-13.7724 -822.181 -32.1452 -803.474 -49.1505 -783.172C-124.026 -693.882 -172.132 -571.386 -187.577 -487.933C-222.254 -302.988 -110.72 -44.2682 -156.985 142.413C-253.249 530.852 -1029.15 548.261 -1251.81 99.5117M1332.01 -1342.23C1332.01 -1342.23 1314.85 -688.026 846.205 -760.486C530.958 -809.242 321.443 -929.792 122.568 -877.302C85.5595 -867.606 51.356 -848.479 20.203 -823.25C0.550482 -807.384 -17.8924 -789.256 -35.0029 -769.655C-110.44 -683.468 -159.878 -565.162 -177.62 -484.427C-217.661 -305.513 -115.945 -54.77 -165.05 128.036C-266.941 507.394 -1020.56 533.622 -1235.67 119.218M1326.39 -1345.18C1326.39 -1345.18 1308.4 -700.965 849.992 -761.503C542.371 -802.125 335.31 -913.979 136.33 -860.997C99.6373 -851.319 65.6091 -832.595 34.5087 -808.05C14.8386 -792.605 -3.65681 -775.073 -20.89 -756.173C-96.8705 -673.071 -147.448 -558.903 -167.697 -480.956C-212.647 -307.932 -121.186 -65.3243 -173.131 113.625C-280.616 483.901 -1011.97 518.947 -1219.54 138.906M1320.76 -1348.11C1320.76 -1348.11 1302.02 -713.921 853.761 -762.502C553.837 -795.006 349.194 -898.147 150.092 -844.657C113.732 -834.997 79.8795 -816.676 48.7966 -792.815C29.1265 -777.79 10.5609 -760.854 -6.7775 -742.656C-83.3014 -662.657 -135.176 -552.661 -157.774 -477.449C-207.984 -310.387 -126.428 -75.8258 -181.231 99.2312C-294.29 460.408 -1003.39 504.308 -1203.41 158.595M1315.13 -1351.03C1315.13 -1351.03 1295.67 -726.895 857.548 -763.501C565.337 -787.924 363.079 -882.333 163.854 -828.335C127.81 -818.692 94.15 -800.774 63.0846 -777.615C43.4145 -763.011 24.7788 -746.671 7.31769 -729.174C-69.7672 -652.278 -122.922 -546.438 -147.886 -473.978C-203.355 -312.876 -131.688 -86.3803 -189.348 84.8198C-307.929 436.88 -994.856 489.634 -1187.31 178.283M1309.5 -1353.98C1309.5 -1353.98 1289.4 -739.921 861.317 -764.518C576.855 -780.858 376.946 -866.519 177.616 -812.012C141.887 -802.387 108.42 -784.89 77.39 -762.397C57.7025 -748.213 39.0141 -732.47 21.4478 -715.674C-56.1806 -641.882 -110.65 -540.214 -137.946 -470.489C-198.71 -315.348 -136.877 -96.9344 -197.43 70.4262C-321.516 413.37 -986.266 474.977 -1171.19 197.989M1303.89 -1356.91C1303.89 -1356.91 1283.21 -752.965 865.121 -765.518C588.443 -773.828 390.849 -850.706 191.396 -795.69C156 -786.083 122.691 -768.989 91.6954 -747.179C72.0078 -733.416 53.2319 -718.251 35.5604 -702.174C-42.6114 -631.485 -98.3783 -533.972 -128.024 -467C-194.064 -317.803 -142.066 -107.471 -205.529 56.0322C-335.085 389.842 -977.693 460.338 -1155.06 217.677M1298.27 -1359.85C1298.27 -1359.85 1277.05 -766.061 868.891 -766.535C600.032 -766.85 404.839 -834.471 205.158 -779.368C170.095 -769.69 136.961 -753.087 106.001 -731.961C86.2959 -718.637 67.4674 -704.05 49.6907 -688.675C-29.0421 -621.089 -86.1239 -527.731 -118.101 -463.511C-189.453 -320.257 -147.238 -118.026 -213.611 41.6209C-348.584 366.296 -969.12 445.663 -1138.93 237.366M1292.64 -1362.78C1292.64 -1362.78 1270.97 -779.21 872.678 -767.534C611.69 -759.89 418.741 -818.604 218.92 -763.046C184.19 -753.385 151.267 -737.116 120.289 -716.743C100.601 -703.805 81.6851 -689.849 63.7857 -675.193C-15.4906 -610.692 -73.8872 -521.489 -108.196 -460.04C-184.842 -322.712 -152.41 -128.58 -221.711 27.2272C-362.066 342.768 -960.548 431.007 -1122.82 257.054M1287.01 -1365.71C1287.01 -1365.71 1264.94 -792.412 876.447 -768.533C623.366 -752.982 432.608 -802.756 232.682 -746.706C198.268 -737.063 165.537 -721.197 134.577 -701.508C114.889 -688.99 95.903 -675.631 77.8984 -661.676C-1.92136 -600.278 -61.6503 -515.231 -98.2731 -456.533C-180.267 -325.166 -157.564 -139.134 -229.828 12.8333C-375.53 319.24 -951.992 416.35 -1106.71 276.76M1281.4 -1368.65C1281.4 -1368.65 1259 -805.718 880.251 -769.55C635.094 -746.145 446.528 -786.942 246.461 -730.401C212.381 -720.776 179.825 -705.313 148.9 -686.308C129.212 -674.211 110.191 -661.412 92.0285 -648.193C11.7704 -589.742 -49.3959 -509.007 -88.3503 -453.062C-175.674 -327.621 -162.665 -149.706 -237.91 -1.59539C-388.906 295.677 -943.42 401.676 -1090.58 296.431M1275.77 -1371.58C1275.77 -1371.58 1253.09 -819.078 884.02 -770.549C646.84 -739.36 460.395 -771.093 260.224 -714.061C226.458 -704.436 194.078 -689.394 163.188 -671.073C143.483 -659.396 124.409 -647.176 106.141 -634.676C25.3399 -579.31 -37.1766 -502.748 -78.4276 -449.556C-171.115 -330.058 -167.767 -160.243 -246.009 -15.9717C-402.247 272.167 -934.829 387.037 -1074.45 316.137M1270.15 -1374.51C1270.15 -1374.51 1247.23 -832.56 887.807 -771.531C658.621 -732.628 474.298 -755.226 273.986 -697.721C240.553 -688.114 208.348 -673.475 177.493 -655.837C157.788 -644.582 138.627 -632.958 120.254 -621.159C38.909 -568.879 -24.9574 -496.489 -68.5051 -446.049C-166.575 -332.495 -172.834 -170.779 -254.091 -30.3479C-415.554 248.674 -926.256 372.397 -1058.32 335.861M1264.52 -1377.45C1264.52 -1377.45 1241.41 -846.165 891.576 -772.548C670.42 -726 488.165 -739.412 287.747 -681.416C254.631 -671.826 222.619 -657.591 191.781 -640.637C172.076 -629.802 152.844 -618.775 134.367 -607.677C52.4605 -558.5 -12.7382 -490.265 -58.5824 -442.578C-162.034 -334.984 -177.883 -181.333 -262.19 -44.7767C-428.807 225.146 -917.684 357.723 -1042.21 355.514M1258.89 -1380.38C1258.89 -1380.38 1235.61 -859.892 895.363 -773.547C682.236 -719.461 502.049 -723.581 301.509 -665.077C268.709 -655.504 236.889 -641.671 206.069 -625.402C186.347 -614.988 167.062 -604.556 148.462 -594.16C65.9947 -548.068 -0.553859 -484.024 -48.6947 -439.072C-157.564 -337.439 -182.949 -191.853 -270.325 -59.153C-442.061 201.688 -909.164 343.084 -1026.13 375.237M1253.28 -1383.31C1253.28 -1383.31 1229.84 -873.76 899.167 -774.547C694.069 -713.027 515.952 -707.767 315.307 -648.755C282.839 -639.2 251.177 -625.77 220.41 -610.184C200.687 -600.191 181.333 -590.355 162.627 -580.66C79.6164 -537.672 11.7004 -477.8 -38.7195 -435.6C-153.006 -339.946 -187.893 -202.39 -278.354 -73.5644C-455.157 178.213 -900.521 328.409 -1009.93 394.908M1247.65 -1386.26C1247.65 -1386.26 1224.04 -887.786 902.937 -775.563C705.868 -706.68 529.819 -691.953 329.051 -632.432C296.899 -622.895 265.43 -609.868 234.68 -594.966C214.94 -585.394 195.533 -576.137 176.705 -567.16C93.1332 -527.258 23.8671 -471.576 -28.8318 -432.111C-148.535 -342.453 -192.907 -212.891 -286.489 -87.9757C-468.305 154.755 -891.983 313.753 -993.857 414.597M1242.03 -1389.18C1242.03 -1389.18 1218.22 -901.969 906.723 -776.563C717.666 -700.439 543.704 -676.14 342.831 -616.11C310.994 -606.59 279.701 -593.967 249.003 -579.748C229.263 -570.614 209.786 -561.936 190.852 -553.661C106.72 -516.861 36.0865 -465.37 -18.8915 -428.623C-144.047 -344.977 -197.851 -223.393 -294.57 -102.369C-481.348 131.367 -883.41 299.096 -977.711 434.303M1236.4 -1392.13C1236.4 -1392.13 1212.31 -916.345 910.492 -777.58C729.395 -694.32 557.571 -660.343 356.575 -599.788C325.071 -590.303 293.953 -578.083 263.274 -564.531C243.516 -555.817 223.969 -547.735 204.947 -540.161C120.254 -506.465 48.2705 -459.163 -8.98656 -425.134C-139.577 -347.519 -202.812 -233.859 -302.67 -116.763C-494.392 108.015 -874.837 284.439 -961.6 453.991M1230.79 -1395.06C1230.79 -1395.06 1206.35 -930.862 914.297 -778.579C741.106 -688.272 571.473 -644.547 370.372 -583.465C339.184 -573.998 308.259 -562.181 277.597 -549.313C257.839 -541.02 238.222 -533.534 219.078 -526.661C133.841 -496.068 60.4724 -452.957 0.953842 -421.645C-135.071 -350.062 -207.703 -244.309 -310.752 -131.174C-507.365 84.6796 -866.247 269.765 -945.471 473.68M1225.16 -1397.98C1225.16 -1397.98 1200.25 -945.536 918.066 -779.578C752.729 -682.328 585.34 -628.75 384.117 -567.125C353.244 -557.676 322.494 -546.262 291.885 -534.078C272.109 -526.206 252.439 -519.316 233.19 -513.144C147.392 -485.672 72.6565 -446.751 10.8588 -418.139C-130.618 -352.621 -212.612 -254.705 -318.851 -145.551C-520.321 61.4145 -857.692 255.126 -929.36 493.386M1219.53 -1400.93C1219.53 -1400.93 1193.99 -960.386 921.853 -780.595C764.264 -676.472 599.225 -612.972 397.896 -550.821C367.357 -541.388 336.782 -530.396 306.19 -518.877C286.415 -511.444 266.675 -505.132 247.303 -499.662C160.944 -475.293 84.8584 -440.597 20.7817 -414.667C-126.13 -355.234 -217.486 -265.119 -326.951 -159.962C-533.241 38.2021 -849.119 240.469 -913.231 513.074M1213.91 -1403.86C1213.91 -1403.86 1187.54 -975.358 925.622 -781.594C775.695 -670.669 613.075 -597.175 411.641 -534.481C381.417 -525.084 351.018 -514.477 320.478 -503.659C300.685 -496.647 280.875 -490.966 261.415 -486.163C174.46 -465.072 97.06 -434.408 30.7042 -411.178C-121.642 -357.828 -222.342 -275.48 -335.05 -174.373C-546.144 15.0249 -840.546 225.795 -897.12 532.762M1208.28 -1406.79C1208.28 -1406.79 1180.89 -990.436 929.409 -782.594C787.02 -664.919 626.837 -581.764 425.421 -518.158C395.495 -508.831 365.288 -498.645 334.784 -488.442C314.974 -481.902 295.111 -476.765 275.528 -472.663C188.012 -454.675 109.244 -428.237 40.627 -407.689C-117.137 -360.44 -227.198 -285.807 -343.132 -188.767C-559.012 -8.06448 -831.973 211.156 -880.973 552.451M1202.67 -1409.73C1202.67 -1409.73 1174.06 -1005.6 933.195 -783.611C798.24 -659.221 640.722 -565.951 439.182 -501.836C409.59 -492.527 379.541 -482.744 349.072 -473.224C329.261 -467.105 309.328 -462.565 289.641 -459.181C201.581 -444.296 121.446 -422.083 50.5322 -404.218C-112.649 -363.088 -232.054 -296.133 -351.249 -203.178C-571.897 -31.1369 -823.418 196.481 -864.88 572.14M1197.04 -1412.66C1197.04 -1412.66 1166.96 -1020.78 936.982 -784.592C809.32 -653.488 654.606 -550.102 452.962 -485.496C423.685 -476.205 393.829 -466.825 363.395 -457.989C343.567 -452.291 323.581 -448.346 303.771 -445.664C215.168 -433.882 133.665 -415.912 60.4722 -400.712C-108.126 -365.718 -236.875 -306.372 -359.313 -217.572C-584.713 -54.1039 -814.81 181.824 -848.733 591.828M1191.41 -1415.6C1191.41 -1415.6 1159.65 -1036 940.752 -785.609C820.277 -647.79 668.474 -534.305 466.706 -469.174C437.762 -459.9 408.082 -450.923 377.665 -442.771C357.837 -437.494 337.782 -434.145 317.866 -432.164C228.702 -423.468 145.867 -409.758 70.3775 -397.223C-103.62 -368.347 -241.714 -316.593 -367.43 -231.966C-597.598 -77.018 -806.255 167.185 -832.622 611.534M1185.79 -1418.53C1185.79 -1418.53 1152.09 -1051.18 944.538 -786.609C831.111 -642.022 682.376 -518.474 480.486 -452.852C451.858 -443.595 422.37 -435.022 391.988 -427.553C372.143 -422.697 352.034 -419.927 331.996 -418.664C242.289 -413.072 158.086 -403.71 80.3001 -393.734C-99.1147 -371.258 -246.552 -326.779 -375.53 -246.36C-610.449 -99.8798 -797.682 152.528 -816.493 631.222M1180.18 -1421.46C1180.18 -1421.46 1144.34 -1066.3 948.325 -787.608C841.858 -636.219 696.261 -502.643 494.248 -436.529C465.935 -427.29 436.623 -419.12 406.276 -412.335C386.431 -407.917 366.235 -405.726 346.109 -405.165C255.858 -402.675 170.306 -397.503 90.2229 -390.245C-94.5564 -373.782 -251.391 -336.93 -383.612 -260.771C-623.334 -122.671 -789.109 137.854 -800.382 650.911M1174.55 -1424.41C1174.55 -1424.41 1074.95 -529.028 420.582 -397.117C400.736 -393.12 380.47 -391.525 360.222 -391.665C-318.395 -396.223 -777.591 -311.509 -784.271 670.617M1163.33 -1421.81C1164.64 -1417.29 1147.57 -1259.08 1082.05 -1066.49C1017.03 -875.356 905.654 -650.981 712.565 -506.657C633.516 -447.224 540.478 -401.15 431.381 -376.78C411.624 -372.327 391.462 -370.258 371.249 -369.89C338.764 -369.312 306.681 -368.628 275.037 -367.786C70.9737 -362.649 -112.456 -350.903 -266.643 -304.18C-333.279 -283.738 -394.569 -256.686 -450.002 -220.868C-585.589 -133.664 -686.762 4.96177 -744.808 228.565C-776.434 350.377 -793.895 497.576 -796.087 671.581M1152.11 -1419.23C1154.76 -1410.17 1138.35 -1252.71 1076.67 -1061.46C1014.31 -868.062 907.951 -641.97 719.683 -493.07C642.177 -431.761 550.471 -383.075 442.163 -356.478C422.51 -351.587 402.42 -349.027 382.259 -348.151C349.878 -346.783 317.779 -345.398 286.03 -343.996C81.9658 -335.563 -103.164 -326.744 -258.842 -283.528C-325.881 -264.926 -387.504 -239.452 -443.761 -205.791C-581.399 -123.408 -686.885 8.41522 -750.313 228.757C-785.27 350.184 -804.73 498.645 -807.955 672.51M1140.91 -1416.66C1144.87 -1403.07 1129.19 -1246.3 1071.31 -1056.43C1011.65 -860.734 910.457 -632.642 726.818 -479.465C650.925 -416.157 560.446 -365.227 452.962 -336.159C433.397 -330.864 413.394 -327.761 393.286 -326.393C360.993 -324.219 328.911 -322.08 297.039 -320.169C93.028 -307.95 -93.785 -302.269 -251.023 -262.857C-318.413 -245.974 -380.491 -222.253 -437.503 -190.678C-577.314 -113.257 -687.095 11.9218 -755.8 229.003C-794.123 350.079 -815.564 499.75 -819.789 673.492M1129.69 -1414.06C1134.98 -1395.95 1120.1 -1239.83 1065.92 -1051.38C1009 -853.353 912.965 -623.28 733.935 -465.86C659.656 -400.554 570.421 -347.186 463.744 -315.839C444.284 -310.124 424.351 -306.512 404.278 -304.636C372.073 -301.673 339.991 -298.815 308.014 -296.361C104.02 -280.705 -84.4058 -277.795 -243.221 -242.205C-310.962 -227.022 -373.479 -205.089 -431.262 -175.6C-573.265 -103.141 -687.411 15.4283 -761.305 229.196C-803.029 349.921 -826.398 500.819 -831.64 674.421M1118.47 -1411.48C1125.08 -1388.85 1111.07 -1233.34 1060.54 -1046.35C1006.41 -845.937 915.472 -613.901 741.036 -452.256C668.386 -384.933 580.379 -329.163 474.508 -295.52C455.136 -289.366 435.308 -285.263 415.27 -282.861C383.17 -279.11 351.07 -275.533 318.988 -272.535C115.03 -253.443 -75.0266 -253.285 -235.438 -221.535C-303.511 -208.052 -366.519 -187.891 -425.055 -160.488C-569.25 -93.0073 -687.849 18.9521 -766.827 229.424C-812.005 349.816 -837.25 501.924 -843.526 675.403M1107.26 -1408.91C1115.2 -1381.73 1102.13 -1226.8 1055.18 -1041.31C1003.85 -838.486 918.014 -604.504 748.171 -438.651C677.152 -369.294 590.372 -311.123 485.307 -275.2C466.041 -268.608 446.283 -264.015 426.297 -261.104C394.285 -256.546 362.185 -252.268 329.998 -248.727C126.074 -226.233 -65.5949 -228.775 -227.601 -200.864C-296.026 -189.083 -359.489 -170.709 -418.779 -145.393C-565.183 -82.8914 -688.322 22.4935 -772.297 229.634C-820.981 349.693 -848.067 503.011 -855.343 676.35M1096.04 -1406.31C1105.3 -1374.61 1093.22 -1220.21 1049.8 -1036.26C1001.34 -830.982 920.538 -595.054 755.288 -425.046C685.882 -353.656 600.365 -293.065 496.089 -254.88C476.91 -247.85 457.24 -242.766 437.307 -239.347C405.382 -234 373.282 -229.021 340.972 -224.901C137.101 -199.006 -56.1806 -204.248 -219.817 -180.194C-288.557 -170.096 -352.511 -153.528 -412.556 -130.298C-561.186 -72.7755 -688.936 25.9999 -777.819 229.862C-830.045 349.606 -858.919 504.098 -867.229 677.314M1084.82 -1403.74C1095.41 -1367.51 1084.4 -1213.62 1044.43 -1031.23C998.885 -823.461 923.098 -585.586 762.424 -411.441C694.665 -337.999 610.358 -275.007 506.906 -234.561C487.832 -227.092 468.232 -221.499 448.351 -217.59C416.532 -211.453 384.432 -205.755 352 -201.092C148.164 -171.796 -46.7137 -179.703 -211.981 -159.541C-281.054 -151.108 -345.499 -136.364 -406.28 -115.203C-557.136 -62.6942 -689.567 29.5242 -783.289 230.073C-839.091 349.501 -869.736 505.185 -879.045 678.261M1073.62 -1401.16C1085.52 -1360.41 1075.65 -1206.99 1039.07 -1026.2C996.501 -815.922 925.674 -576.102 769.559 -397.836C703.431 -322.326 620.35 -256.949 517.705 -214.241C498.719 -206.334 479.224 -200.25 459.361 -195.832C427.629 -188.89 395.53 -182.491 362.992 -177.284C159.191 -144.621 -37.2643 -155.141 -204.162 -138.888C-273.55 -132.121 -338.504 -119.2 -400.021 -100.125C-553.121 -52.6134 -690.321 32.9954 -788.759 230.266C-848.19 349.36 -880.535 506.254 -890.878 679.208M1062.4 -1398.56C1075.64 -1353.28 1066.98 -1200.31 1033.68 -1021.15C994.134 -808.313 928.252 -566.582 776.676 -384.231C712.196 -306.652 630.343 -238.891 528.486 -193.922C509.588 -185.576 490.181 -179.002 470.371 -174.075C438.744 -166.344 406.627 -159.243 373.984 -153.475C170.218 -117.447 -27.7975 -130.561 -196.36 -118.236C-266.082 -113.134 -331.544 -102.054 -393.78 -85.0303C-549.142 -42.5503 -691.18 36.484 -794.281 230.476C-857.394 349.237 -891.404 507.341 -902.747 680.154M1051.18 -1395.99C1065.73 -1346.18 1058.35 -1193.63 1028.3 -1016.12C991.838 -800.722 930.829 -557.062 783.794 -370.627C720.962 -290.961 640.319 -220.816 539.268 -173.602C520.475 -164.818 501.155 -157.7 481.38 -152.318C449.859 -143.727 417.742 -135.996 384.976 -129.649C181.263 -90.2723 -18.3481 -105.946 -188.541 -97.5481C-258.579 -94.0942 -324.549 -84.8724 -387.539 -69.9176C-545.162 -32.4693 -692.109 39.9554 -799.768 230.721C-866.598 349.15 -902.221 508.446 -914.581 681.136M1039.98 -1393.41C1055.86 -1339.08 1049.8 -1186.93 1022.94 -1011.09C989.628 -793.078 933.458 -547.507 790.912 -357.039C729.745 -275.287 650.311 -202.74 550.05 -153.3C531.344 -144.078 512.112 -136.469 492.39 -130.578C460.974 -121.181 428.839 -112.748 395.968 -105.858C192.29 -63.1327 -8.88132 -81.331 -180.74 -76.9129C-251.093 -75.1071 -317.589 -67.7611 -381.298 -54.8576C-541.183 -22.4759 -693.126 43.3391 -805.273 230.897C-875.872 348.957 -913.055 509.498 -926.449 682.065M1028.76 -1390.81C1045.96 -1331.96 1041.31 -1180.18 1017.56 -1006.04C987.472 -785.416 936.088 -537.934 798.029 -343.417C738.528 -259.579 660.286 -184.647 560.832 -132.963C542.231 -123.302 523.069 -115.203 503.399 -108.804C472.071 -98.6175 439.936 -89.4833 406.96 -82.0322C203.317 -35.9932 0.585487 -56.6809 -172.921 -56.2426C-243.59 -56.0672 -310.612 -50.5973 -375.039 -39.745C-537.203 -12.4126 -694.178 46.7579 -810.743 231.124C-885.146 348.799 -923.872 510.602 -938.265 683.029M1017.54 -1388.24C1036.07 -1324.84 1032.88 -1173.45 1012.17 -1001.01C985.386 -777.755 938.735 -528.345 805.147 -329.812C747.312 -243.87 670.279 -166.537 571.613 -112.643C553.118 -102.527 534.044 -93.9541 514.391 -87.0465C483.168 -76.0714 451.016 -66.2359 417.934 -58.2238C214.327 -8.87122 10.0348 -32.0136 -165.137 -35.5901C-236.121 -37.0277 -303.669 -33.4686 -368.815 -24.6676C-533.259 -2.41946 -695.352 50.0889 -816.266 231.317C-894.507 348.589 -934.724 511.654 -950.152 683.959M1006.34 -1385.66C1026.18 -1317.74 1024.52 -1166.72 1006.81 -995.976C983.387 -770.076 941.417 -518.755 812.282 -316.225C756.13 -228.162 680.29 -148.461 582.413 -92.3411C564.005 -81.7869 545.018 -72.7053 525.418 -65.3068C494.283 -53.5253 462.148 -43.006 428.944 -34.4153C225.354 18.2508 19.5017 -7.32838 -157.318 -14.9197C-228.618 -17.9878 -296.674 -16.3399 -362.557 -9.55499C-529.279 7.59131 -696.545 53.42 -821.753 231.563C-903.887 348.414 -945.558 512.776 -961.985 684.941M995.116 -1383.07C1016.29 -1310.62 1016.21 -1159.95 1001.43 -990.944C981.441 -762.379 944.117 -509.147 819.4 -302.62C764.948 -212.453 690.282 -130.35 593.194 -72.0215C574.892 -61.0289 555.975 -51.4564 536.428 -43.5319C505.38 -30.9615 473.246 -19.7411 439.936 -10.5894C236.381 45.3728 28.9687 17.3918 -149.499 5.75051C-221.115 1.08699 -289.697 0.788988 -356.316 5.54016C-525.299 17.5847 -697.807 56.6985 -827.258 231.773C-913.319 348.168 -956.393 513.863 -973.854 685.905M983.896 -1380.49C1006.39 -1303.52 1007.97 -1153.19 996.045 -985.912C979.583 -754.7 946.817 -499.522 826.518 -289.015C773.766 -196.726 700.293 -112.24 603.994 -51.7016C585.779 -40.2532 566.968 -30.2074 547.455 -21.7745C516.513 -8.41515 484.36 3.48907 450.928 13.2193C247.408 72.46 38.4354 42.1122 -141.698 26.4035C-213.629 20.1271 -282.737 17.9004 -350.075 20.6354C-521.337 27.543 -699.122 59.9246 -832.762 231.984C-922.785 347.888 -967.245 514.95 -985.705 686.852M972.693 -1377.91C996.518 -1296.4 999.779 -1146.44 990.698 -980.881C977.847 -746.986 949.587 -489.897 833.671 -275.428C782.637 -181.018 710.321 -94.1469 614.81 -31.3999C596.701 -19.5132 577.942 -9.01142 558.5 -0.035034C527.628 14.0607 495.493 26.7188 461.955 37.0101C258.453 99.5292 47.9199 66.832 -133.844 47.0383C-206.09 39.1665 -275.724 34.9939 -343.781 35.6952C-517.323 37.4659 -700.419 63.0626 -838.197 232.159C-932.217 347.537 -978.009 515.985 -997.504 687.763M961.473 -1375.33C986.613 -1289.3 991.645 -1139.69 985.316 -975.849C976.165 -739.29 952.339 -480.254 840.788 -261.823C791.473 -165.274 720.331 -76.0363 625.592 -11.0803C607.587 1.26228 588.899 12.2373 569.492 21.7221C538.707 36.6068 506.572 49.9486 472.93 60.836C269.445 126.616 57.3517 91.6046 -126.06 67.726C-198.64 58.2763 -268.782 52.1402 -337.557 50.8077C-513.361 47.4416 -701.839 66.2184 -843.719 232.404C-941.754 347.221 -988.878 517.106 -1009.37 688.745M950.254 -1372.74C976.726 -1282.19 983.563 -1132.92 979.934 -970.8C974.569 -731.593 955.127 -470.594 847.889 -248.218C800.309 -149.548 730.324 -57.9083 636.356 9.23927C618.457 22.0376 599.839 33.4862 580.484 43.4794C549.805 59.1705 517.652 73.1961 483.905 84.6445C280.42 153.686 66.7838 116.377 -118.259 88.3788C-191.153 77.3512 -261.804 69.2339 -331.316 65.9028C-509.398 57.3647 -703.259 69.304 -849.224 232.615C-951.309 346.836 -999.712 518.193 -1021.22 689.709M939.051 -1370.16C966.838 -1275.09 975.551 -1126.17 974.569 -965.768C973.079 -723.914 957.95 -460.952 855.024 -234.613C809.197 -133.822 740.369 -39.7802 647.156 29.5589C629.362 42.7956 610.831 54.7523 591.512 65.2365C560.92 81.7165 528.767 96.426 494.914 108.453C291.447 180.737 76.233 141.167 -110.44 109.031C-183.668 96.4258 -254.827 86.3274 -325.075 80.9802C-505.419 67.2702 -704.714 72.3194 -854.729 232.807C-960.898 346.397 -1010.55 519.263 -1033.09 690.638M927.831 -1367.58C956.95 -1267.97 967.574 -1119.44 969.187 -960.736C971.677 -716.235 960.755 -451.309 862.141 -221.008C818.068 -118.078 750.38 -21.652 657.937 49.8786C640.231 63.5711 621.788 76.0014 602.521 86.9939C572.017 104.263 539.865 119.674 505.906 132.262C302.439 207.772 85.6648 165.976 -102.638 129.684C-176.182 115.518 -247.85 103.404 -318.834 96.0755C-501.422 77.1936 -706.204 75.3 -860.216 233.018C-970.488 345.942 -1021.38 520.332 -1044.93 691.585M916.611 -1364.99C947.045 -1260.85 959.633 -1112.7 963.805 -955.687C970.362 -708.574 963.612 -441.649 869.259 -207.404C826.938 -102.334 760.408 -3.52392 668.719 70.1982C651.118 84.3465 632.745 97.25 613.531 108.751C583.131 126.826 550.962 142.903 516.898 156.087C313.431 234.841 95.0791 190.818 -94.8194 150.372C-168.696 134.628 -240.855 120.532 -312.575 111.188C-497.425 87.1165 -707.694 78.2453 -865.704 233.263C-980.095 345.468 -1032.2 521.454 -1056.78 692.567M905.408 -1362.41C937.175 -1253.75 951.779 -1105.99 958.441 -950.656C969.17 -700.947 966.487 -432.006 876.394 -193.799C835.844 -86.608 770.453 14.6217 679.518 90.5178C662.022 105.122 643.719 118.499 624.54 130.508C594.229 149.373 562.059 166.133 527.891 179.896C324.405 261.858 104.493 215.644 -87.0181 171.025C-161.245 153.738 -233.877 137.609 -306.334 126.266C-493.41 96.9872 -709.202 81.1207 -871.208 233.456C-989.737 344.907 -1043.05 522.524 -1068.63 693.514M894.189 -1359.84C927.27 -1246.65 943.925 -1099.31 953.058 -945.624C968.048 -693.338 969.363 -422.364 883.512 -180.194C844.75 -70.8645 780.498 32.7496 690.317 110.837C672.926 125.88 654.712 139.765 635.567 152.265C605.344 171.936 573.156 189.363 538.9 203.704C335.415 288.892 113.908 240.486 -79.1815 191.677C-153.742 172.83 -226.865 154.685 -300.058 141.36C-489.378 106.875 -710.71 83.9606 -876.678 233.666C-999.362 344.328 -1053.85 523.611 -1080.46 694.46M882.968 -1357.24C917.382 -1239.51 936.123 -1092.63 947.676 -940.575C967.048 -685.747 972.255 -412.703 890.63 -166.589C853.656 -55.1381 790.526 50.8955 701.099 131.157C683.831 146.655 665.669 161.014 646.577 174.023C616.458 194.483 584.254 212.593 549.892 227.513C346.39 315.909 123.304 265.347 -71.3801 212.33C-146.291 191.923 -219.887 171.761 -293.834 156.438C-485.381 116.746 -712.253 86.7309 -882.183 233.859C-1009.02 343.697 -1064.7 524.663 -1092.31 695.39M871.748 -1354.66C907.477 -1232.41 928.357 -1085.99 942.294 -935.543C966.137 -678.208 975.183 -403.061 897.73 -152.984C862.562 -39.3943 800.554 69.0411 711.863 151.477C694.7 167.431 676.608 182.263 657.569 195.798C627.538 217.046 595.333 235.841 560.867 251.356C357.329 342.961 132.666 290.26 -63.5962 233.018C-138.84 211.068 -212.927 188.872 -287.611 171.568C-481.366 126.634 -713.795 89.501 -887.688 234.105C-1018.72 343.066 -1075.54 525.785 -1104.16 696.371M860.546 -1352.09C897.607 -1225.31 920.643 -1079.36 936.947 -930.511C965.365 -670.722 978.146 -393.436 904.882 -139.397C871.52 -23.6857 810.792 87.3269 722.68 171.779C705.657 188.224 687.6 203.494 668.614 217.537C638.688 239.592 606.43 258.983 571.876 275.147C368.146 369.575 142.063 315.12 -55.7598 253.671C-131.355 230.178 -205.898 205.948 -281.334 186.646C-477.316 136.504 -715.321 92.1833 -893.175 234.315C-1028.38 342.365 -1086.35 526.872 -1116.01 697.335M849.326 -1349.49C887.702 -1218.19 912.964 -1072.75 931.565 -925.462C964.682 -663.253 981.091 -383.793 912 -125.775C880.444 -7.94203 820.785 105.437 733.462 192.116C716.527 208.999 698.575 224.778 679.606 239.312C649.768 262.156 617.51 282.248 582.851 298.973C379.138 396.714 151.407 340.033 -47.976 274.341C-123.939 249.305 -198.903 222.937 -275.111 201.758C-473.232 146.112 -716.881 94.8656 -898.697 234.543C-1038.11 341.646 -1097.22 527.976 -1127.88 698.3M838.106 -1346.91C877.814 -1211.08 905.303 -1066.19 926.183 -920.43C964.086 -655.837 984.317 -374.116 919.118 -112.17C889.508 7.81907 830.795 123.53 744.244 212.435C727.414 229.757 709.532 246.027 690.616 261.069C660.865 284.702 628.607 305.495 593.843 322.782C390.13 423.836 160.681 365.139 -40.1571 294.993C-116.506 268.52 -191.908 240.048 -268.852 216.836C-469.199 156.087 -718.389 97.4602 -904.167 234.753C-1047.77 340.875 -1108.02 529.046 -1139.72 699.247M826.904 -1344.34C867.927 -1203.98 897.677 -1059.67 920.818 -915.399C963.612 -648.491 987.051 -364.578 926.253 -98.5822C884.353 84.7149 775.677 259.071 604.853 346.573C401.157 450.924 170.113 389.824 -32.3382 315.629C-109.02 287.525 -184.913 257.16 -262.611 231.896C-465.185 166.046 -719.914 100.003 -909.672 234.929C-1057.48 340.016 -1118.87 530.098 -1151.57 700.176" stroke="url(#paint0_linear_1419_9932)" stroke-width="0.25" stroke-miterlimit="10"/>
<path opacity="0.5" d="M-854.585 1793.21C417.264 1723.08 -123.341 1061.73 56.0771 844.541C106.195 783.87 205.006 804.185 258.332 853.876C329.983 920.639 285.287 1053.53 180.042 1038.48C73.801 1023.3 53.3318 857.719 115.82 789.24C146.824 755.267 194.849 741.214 240.831 740.751C410.83 739.069 538.517 888.604 680.292 963.552C783.976 1018.37 899.241 1056.6 1016.48 1053.13C1147.38 1049.27 1272.11 987.522 1346.73 878.532C1527.97 613.865 1505.41 95.0145 1918.03 44.5175C2282.56 -0.0769501 2557.74 410.607 2710.67 684.746M2709.07 672.426C2614.79 509.405 2474.47 297.62 2300.41 169.945C2226.32 115.759 2147.19 77.0497 2062.38 61.7445C2015.49 53.2854 1966.64 52.0159 1915.94 59.514C1835.71 71.1989 1771.74 100.539 1719.22 141.942C1623.95 217.01 1565.83 332.983 1518.21 453.177C1484.85 537.356 1457.33 622.564 1428.69 702.35C1407.18 762.319 1383.16 819.679 1351.31 869.249C1320.84 916.778 1280.16 956.139 1233.18 985.669C1172.77 1023.73 1102.23 1045.59 1029.38 1049.19C913.087 1055.19 797.376 1019.14 693.023 964.118C548.074 887.78 419.838 748.215 256.393 753.997C245.653 754.375 234.86 755.593 224.291 757.652C191.726 763.983 160.722 778.07 138.932 802.538C80.5954 867.842 101.373 1023.57 199.739 1036.13C216.124 1038.22 230.845 1036.59 243.714 1031.94C309.702 1008.51 327.872 910.567 267.769 857.977C214.34 811.22 117.21 792.998 67.0579 853.876C48.3903 876.525 37.3237 903.926 31.0611 934.914C-22.5396 1200.7 254.026 1725.71 -853.11 1765.03M2707.47 660.072C2611.03 499.196 2466.89 290.31 2292.45 169.825C2218.07 118.744 2140.31 84.2561 2057.39 72.1595C2011.52 65.5021 1963.67 65.8795 1913.86 74.4415C1835.19 87.9623 1771.95 118.058 1719.48 159.701C1624.63 234.855 1563.95 349.489 1514.05 464.141C1479.12 544.442 1450.9 622.719 1425.74 697.7C1406.65 754.649 1385.51 810.568 1355.89 859.898C1327.62 907.255 1288.51 947.354 1242.7 977.69C1183.78 1016.93 1114.36 1040.01 1042.28 1045.19C926.899 1053.48 810.759 1019.87 705.736 964.65C557.597 886.923 428.777 757.326 271.955 767.226C261.678 767.878 251.435 769.405 241.5 771.687C211.011 778.688 182.204 792.586 162.043 815.818C107.859 877.966 128.946 1023.79 219.436 1033.76C234.86 1035.46 248.638 1033.75 260.563 1029.04C322.519 1005.45 337.549 911.493 277.171 862.06C223.657 818.238 128.174 802.109 77.9875 863.193C59.3714 885.824 48.116 913.106 41.5274 943.905C-14.9043 1208.01 223.519 1721.01 -851.668 1736.86M2705.86 647.718C2607.26 488.987 2459.29 283.001 2284.47 169.722C2209.8 121.764 2133.41 91.4628 2052.38 82.6091C2007.54 77.7533 1960.69 79.7264 1911.77 89.4209C1834.68 104.692 1772.12 135.646 1719.71 177.512C1625.29 252.768 1562.04 366.03 1509.88 475.157C1473.37 551.58 1444.46 622.908 1422.77 693.085C1406.11 746.997 1387.82 801.491 1360.44 850.598C1334.38 897.801 1296.84 938.603 1252.21 969.763C1194.78 1010.17 1126.48 1034.57 1055.17 1041.24C940.711 1051.97 824.142 1020.64 718.45 965.216C567.137 886.116 437.647 766.471 287.517 780.472C277.703 781.382 268.009 783.218 258.692 785.723C230.279 793.41 203.668 807.085 185.137 829.099C135.105 888.072 156.484 1023.98 239.115 1031.41C253.597 1032.72 266.413 1030.92 277.411 1026.16C335.353 1002.42 347.26 912.437 286.591 866.161C232.99 825.273 139.155 811.237 88.9513 872.51C70.4038 895.124 58.9596 922.286 52.0279 952.913C-7.23481 1215.33 193.064 1716.32 -850.193 1708.7M2704.25 635.381C2603.48 478.777 2451.98 275.245 2276.47 169.619C2201.63 124.578 2126.5 98.669 2047.35 93.0583C2003.55 90.0041 1957.68 93.573 1909.66 104.383C1834.13 121.404 1772.29 153.215 1719.91 195.305C1625.92 270.647 1560.1 382.553 1505.68 486.155C1467.57 558.701 1438.01 623.062 1419.77 688.452C1405.58 739.344 1389.97 792.329 1364.97 841.264C1340.97 888.226 1305.07 929.715 1261.7 961.801C1205.68 1003.26 1138.56 1029.1 1068.04 1037.26C954.489 1050.41 837.508 1021.37 731.13 965.765C576.642 885.275 446.432 775.565 303.045 793.718C293.694 794.902 284.532 797.03 275.867 799.775C249.513 808.131 225.166 821.652 208.214 842.397C162.489 898.316 183.953 1024.14 258.778 1029.06C272.298 1029.95 284.172 1028.08 294.226 1023.28C348.153 999.395 356.955 913.398 295.976 870.262C242.324 832.325 150.118 820.348 99.8636 881.844C81.3676 904.441 69.7346 931.482 62.4769 961.921C0.383144 1222.66 162.541 1711.62 -848.769 1680.55M2702.65 623.027C2599.72 468.568 2444.45 267.816 2268.51 169.516C2193.4 127.547 2119.63 105.876 2042.34 103.491C1999.58 102.238 1954.7 107.386 1907.58 119.345C1833.63 138.099 1772.48 170.786 1720.17 213.098C1626.61 288.526 1558.22 399.077 1501.54 497.137C1461.86 565.822 1431.66 623.182 1416.84 683.819C1405.14 731.657 1392.3 783.235 1369.57 831.947C1347.74 878.738 1313.43 920.93 1271.25 953.857C1216.69 996.461 1150.72 1023.66 1080.98 1033.3C968.335 1048.9 850.925 1022.13 743.895 966.314C586.216 884.452 455.217 784.676 318.659 806.965C309.754 808.423 301.158 810.843 293.111 813.828C268.798 822.853 246.699 836.202 231.36 855.711C189.839 908.508 211.835 1019.35 278.492 1026.73C290.983 1028.12 301.981 1025.27 311.109 1020.41C361.004 996.375 366.752 914.393 305.413 874.38C251.744 839.377 161.117 829.494 110.845 891.178C92.4172 913.758 80.5954 940.679 72.9946 970.93C8.06982 1229.99 132.086 1706.94 -847.276 1652.39M2701.04 610.674C2595.95 458.342 2436.88 260.404 2260.53 169.396C2185.14 130.498 2112.74 113.082 2037.33 113.923C1995.6 114.472 1951.73 121.198 1905.49 134.29C1833.1 154.777 1772.67 188.339 1720.39 230.874C1627.26 306.388 1556.3 415.583 1497.38 508.118C1456.11 572.925 1425.31 623.268 1413.87 679.17C1404.69 723.953 1394.58 774.124 1374.13 822.596C1354.47 869.215 1321.75 912.111 1280.76 945.879C1227.67 989.632 1162.82 1018.17 1093.84 1029.3C982.113 1047.34 864.291 1022.85 756.574 966.846C595.721 883.594 463.83 793.787 334.186 820.177C325.727 821.893 317.68 824.621 310.285 827.846C287.998 837.558 268.163 850.701 254.437 868.975C217.119 918.631 239.167 1018.13 298.155 1024.34C309.685 1025.56 319.739 1022.4 327.924 1017.5C373.803 993.304 376.514 915.319 314.798 878.463C261.129 846.395 172.08 838.605 121.774 900.495C103.398 923.058 91.4047 949.859 83.4607 979.921C15.7049 1237.3 101.596 1702.23 -845.852 1624.22M2699.44 598.32C2592.19 448.133 2429.33 252.991 2252.55 169.293C2176.89 133.466 2105.84 120.289 2032.32 124.372C1991.62 126.723 1948.74 135.028 1903.4 149.252C1832.59 171.472 1772.86 205.892 1720.63 248.667C1627.93 324.284 1554.39 432.124 1493.21 519.117C1450.36 580.046 1419.02 623.319 1410.9 674.554C1404.29 716.249 1396.87 765.047 1378.7 813.296C1361.19 859.744 1330.07 903.343 1290.28 937.951C1238.65 982.855 1174.93 1012.74 1106.75 1025.36C995.924 1045.86 877.674 1023.62 769.306 967.412C605.278 882.77 472.409 802.95 349.748 833.44C341.736 835.43 334.221 838.45 327.495 841.899C307.197 852.297 289.662 865.234 277.549 882.273C244.451 928.789 266.345 1016.74 317.852 1022.01C328.421 1023.09 337.532 1019.59 344.79 1014.63C386.655 990.284 386.346 916.315 324.218 882.581C270.566 853.464 183.061 847.75 132.721 909.846C114.413 932.392 102.214 959.073 93.9442 988.946C23.3574 1244.64 71.1074 1697.57 -844.393 1596.08M2697.83 585.983C2588.43 437.941 2421.73 245.596 2244.58 169.19C2168.62 136.435 2098.94 127.495 2027.31 134.805C1987.64 138.957 1945.78 148.84 1901.3 164.214C1832.07 188.15 1773.03 223.462 1720.85 266.46C1628.58 342.163 1552.49 448.648 1489.04 530.115C1444.62 587.184 1412.74 623.319 1407.93 669.921C1403.95 708.493 1399.16 755.953 1383.26 803.962C1367.94 850.255 1338.38 894.558 1299.8 929.99C1249.65 976.06 1187.06 1007.31 1119.65 1021.38C1009.72 1044.33 891.074 1024.36 782.02 967.944C614.801 881.929 480.851 812.13 365.311 846.669C357.727 848.934 350.761 852.263 344.687 855.935C326.345 867.036 311.161 879.768 300.643 895.553C271.767 938.929 293.248 1024.26 337.532 1019.64C347.14 1018.65 355.308 1016.74 361.622 1011.73C399.471 987.23 396.194 917.258 333.62 886.665C280.019 860.464 194.025 856.844 143.667 919.146C125.411 941.675 113.041 968.236 104.428 997.92C31.0097 1251.95 40.6181 1692.85 -842.935 1567.88M2696.24 573.629C2584.68 427.714 2414.16 238.201 2236.6 169.087C2160.35 139.403 2092.06 134.702 2022.28 145.254C1983.66 151.208 1942.77 162.653 1899.19 179.176C1831.54 204.828 1773.2 241.032 1721.08 284.254C1629.23 360.042 1550.56 465.171 1484.85 541.114C1438.85 594.304 1406.51 623.199 1404.95 665.288C1403.64 700.686 1401.43 746.859 1387.81 794.645C1374.65 840.767 1346.68 885.773 1309.31 922.046C1260.63 969.265 1199.16 1001.87 1132.53 1017.41C1023.51 1042.86 904.44 1025.12 794.733 968.511C624.34 881.106 489.189 821.429 380.872 859.915C373.701 862.455 367.301 866.075 361.896 869.987C345.493 881.809 332.659 894.301 323.754 908.868C299.116 949.122 320.083 1024.17 357.229 1017.31C365.808 1015.73 373.1 1013.93 378.488 1008.87C412.305 984.21 406.094 918.219 343.04 890.783C289.525 867.499 205.023 865.989 154.614 928.497C136.427 951.009 123.867 977.45 114.911 1006.96C38.6621 1259.31 10.1288 1688.18 -841.477 1539.75M2694.62 561.275C2580.9 417.505 2406.54 230.805 2228.62 168.967C2152.08 142.371 2085.16 141.908 2017.27 155.686C1979.68 163.442 1939.8 176.448 1897.1 194.138C1831.02 221.488 1773.39 258.602 1721.3 302.047C1629.88 377.921 1548.64 481.694 1480.68 552.112C1433.1 601.425 1400.31 622.942 1401.98 660.673C1403.4 692.793 1403.73 737.8 1392.37 785.328C1381.39 831.295 1355.02 877.005 1318.82 914.101C1271.6 962.488 1211.25 996.444 1145.42 1013.45C1037.29 1041.36 917.823 1025.89 807.43 969.059C633.863 880.265 497.407 830.832 396.417 873.161C389.657 875.993 383.806 879.922 379.071 884.023C364.572 896.6 354.158 908.817 346.832 922.149C326.448 959.262 348.976 1030.18 376.892 1014.94C384.647 1014.31 390.858 1011.1 395.319 1005.97C425.122 981.156 415.994 919.146 352.442 894.884C299.047 874.5 215.987 875.118 165.56 937.814C147.442 960.309 134.676 986.612 125.394 1015.95C46.3143 1266.62 -20.3434 1683.48 -840.035 1511.57M2693.03 548.921C2577.14 407.296 2398.94 223.427 2220.66 168.864C2143.83 145.357 2078.28 149.115 2012.28 166.119C1975.72 175.676 1936.84 190.243 1895.04 209.083C1830.54 238.132 1773.6 276.155 1721.58 319.823C1630.61 395.8 1546.77 498.201 1476.55 563.093C1427.39 608.546 1394.17 622.461 1399.04 656.023C1403.21 684.746 1406.06 728.688 1396.97 775.994C1388.17 821.807 1363.37 868.22 1328.37 906.14C1282.63 955.693 1223.4 991.022 1158.34 1009.47C1051.12 1039.89 931.223 1026.63 820.178 969.608C643.419 879.441 505.592 840.372 412.014 886.39C405.648 889.513 400.363 893.752 396.314 898.058C383.703 911.442 375.708 923.332 369.977 935.429C353.883 969.385 376.531 1030.86 396.623 1012.59C403.418 1011.65 408.685 1008.27 412.202 1003.08C437.99 978.119 425.98 920.055 361.896 898.985C308.638 881.466 227.002 884.229 176.541 947.148C158.474 969.626 145.537 995.809 135.912 1024.96C54.0008 1273.95 -50.7983 1678.8 -838.543 1483.41M2691.41 536.584C2573.37 397.087 2391.33 216.066 2212.66 168.761C2135.52 148.342 2071.37 156.321 2007.25 176.568C1971.72 187.927 1933.85 204.055 1892.93 224.062C1830.01 254.81 1773.77 293.725 1721.78 337.633C1631.24 413.696 1544.83 514.758 1472.36 574.109C1421.62 615.684 1387.93 621.741 1396.06 651.424C1402.96 676.561 1408.34 719.646 1401.52 766.694C1394.89 812.352 1371.68 859.469 1337.88 898.213C1293.61 948.95 1235.5 985.634 1171.22 1005.52C1064.9 1038.45 944.606 1027.4 832.875 970.175C652.942 878.618 513.622 850.135 427.558 899.654C421.588 903.086 416.869 907.65 413.506 912.128C402.766 926.387 397.224 937.866 393.072 948.761C381.301 979.56 404.053 1031.58 416.303 1010.27C422.137 1009.02 426.46 1005.47 429.051 1000.22C450.807 975.099 435.966 920.965 371.299 903.103C318.195 888.432 237.983 893.374 187.488 956.5C169.49 978.96 156.364 1005.02 146.395 1033.99C61.6534 1281.29 -81.2874 1674.13 -837.084 1455.27M2689.82 524.23C2569.61 386.878 2383.71 208.706 2204.7 168.658C2127.25 151.328 2064.45 163.407 2002.24 187.017C1967.72 200.109 1930.87 217.851 1890.84 239.024C1829.5 271.454 1773.94 311.295 1722 355.426C1631.89 431.575 1542.93 531.282 1468.17 585.09C1415.86 622.787 1376.38 623.577 1393.07 646.775C1397.91 669.612 1410.63 710.552 1406.05 757.36C1401.6 802.864 1379.97 850.684 1347.37 890.251C1304.57 942.155 1247.58 980.212 1184.09 1001.54C1078.66 1036.97 957.972 1028.14 845.572 970.724C662.465 877.794 521.617 860.121 443.104 912.9C437.51 916.658 433.375 921.548 430.681 926.181C421.828 941.366 418.739 952.382 416.149 962.059C408.736 989.65 431.539 1032.29 435.966 1007.92C440.856 1006.36 444.219 1002.64 445.866 997.336C463.607 972.079 445.952 921.822 380.684 907.204C327.769 895.347 248.93 902.502 198.417 965.816C180.47 988.26 167.156 1014.2 156.861 1042.98C69.2885 1288.6 -111.777 1669.43 -835.643 1427.1M2688.21 511.876C2565.84 376.668 2376.07 201.362 2196.72 168.538C2118.96 154.314 2057.54 170.597 1997.23 197.433C1963.74 212.326 1927.9 231.612 1888.74 253.952C1828.98 288.063 1774.13 328.831 1722.24 373.185C1632.56 449.42 1541.02 547.771 1464.02 596.055C1410.13 629.891 1369.67 623.645 1390.12 642.107C1397.17 661.857 1412.96 701.441 1410.63 747.992C1408.36 793.341 1388.32 841.882 1356.89 882.255C1315.59 935.343 1259.71 974.756 1197 997.525C1092.47 1035.48 971.355 1028.84 858.285 971.221C671.987 876.902 529.63 870.347 458.648 926.078C453.432 930.178 449.915 935.395 447.873 940.148C440.942 956.328 440.29 966.76 439.243 975.271C436.24 999.567 459.06 1032.89 455.646 1005.49C459.575 1003.62 461.977 999.721 462.714 994.368C476.441 968.956 455.972 922.56 390.086 911.236C337.378 902.176 259.911 911.562 209.347 975.082C191.468 997.491 177.965 1023.33 167.328 1051.92C76.9236 1295.86 -142.283 1664.66 -834.219 1398.88M2686.61 499.522C2562.08 366.442 2368.44 194.035 2188.75 168.435C2110.68 157.316 2050.64 177.821 1992.22 207.882C1959.76 224.577 1924.91 245.407 1886.65 268.931C1828.47 304.706 1774.32 346.418 1722.47 390.995C1633.21 467.333 1539.1 564.312 1459.85 607.07C1404.38 637.029 1362.94 623.765 1387.17 637.509C1396.44 654.17 1415.28 692.416 1415.21 738.709C1415.14 783.921 1396.66 833.148 1366.43 874.346C1326.6 928.6 1271.84 969.403 1209.92 993.596C1106.3 1034.09 984.772 1029.63 871.034 971.822C681.561 876.113 537.728 880.951 474.245 939.375C469.406 943.819 466.506 949.362 465.099 954.252C460.158 971.462 461.874 981.225 462.371 988.62C463.761 1009.5 486.598 1033.64 475.36 1003.19C478.328 1001.01 479.787 996.942 479.581 991.537C489.292 965.971 466.043 923.384 399.523 915.388C347.02 909.074 270.909 920.724 220.328 984.45C202.501 1006.84 188.826 1032.56 177.845 1060.98C84.6103 1303.23 -172.738 1660.02 -832.726 1370.77M2685 487.185C2558.32 356.25 2360.79 186.743 2180.77 168.332C2102.39 160.319 2043.75 185.027 1987.21 218.331C1955.78 236.845 1921.93 259.202 1884.56 283.893C1827.94 321.333 1774.49 363.988 1722.71 408.789C1633.88 485.212 1537.2 580.852 1455.68 618.069C1398.63 644.149 1356.22 623.851 1384.2 632.876C1395.68 646.448 1417.59 683.339 1419.77 729.375C1421.9 774.432 1405 824.363 1375.95 866.384C1337.62 921.822 1283.95 963.997 1222.8 989.615C1120.09 1032.65 998.138 1030.37 883.747 972.354C691.101 875.272 545.912 891.778 489.807 952.587C485.363 957.409 483.098 963.26 482.309 968.27C479.443 986.527 483.407 995.552 485.483 1001.9C491.145 1019.18 514.119 1034.31 495.057 1000.84C497.064 998.348 497.579 994.11 496.447 988.654C502.126 962.934 476.115 924.122 408.959 919.489C356.68 915.886 281.907 929.853 231.292 993.784C213.533 1016.16 199.653 1041.76 188.346 1069.98C92.2797 1310.56 -203.21 1655.34 -831.251 1342.61M2683.4 474.831C2554.56 346.041 2353.15 179.433 2172.81 168.229C2094.12 163.339 2036.87 192.251 1982.2 228.764C1951.8 249.079 1918.94 272.963 1882.48 298.855C1827.42 337.942 1774.7 381.541 1722.95 426.582C1634.55 503.091 1535.29 597.376 1451.53 629.067C1392.9 651.27 1349.51 623.954 1381.25 628.244C1394.94 638.727 1419.94 674.262 1424.35 720.058C1428.68 764.961 1413.35 815.612 1385.49 858.44C1348.64 915.062 1296.1 958.627 1235.72 985.651C1133.92 1031.24 1011.56 1031.12 896.479 972.903C700.641 874.431 554.285 902.897 505.386 965.834C501.319 971.05 499.724 977.192 499.535 982.306C498.832 1001.61 504.837 1009.84 508.611 1015.18C518.237 1028.79 541.674 1034.98 514.754 998.469C515.801 995.672 515.372 991.262 513.296 985.754C514.96 959.88 486.169 924.791 418.362 923.573C366.306 922.646 292.888 938.964 242.238 1003.1C224.532 1025.46 210.479 1050.94 198.829 1078.98C99.9324 1317.87 -233.682 1650.64 -829.792 1314.44M2681.79 462.477C2550.79 335.814 2345.52 172.158 2164.81 168.109C2085.8 166.341 2029.95 199.457 1977.17 239.196C1947.8 261.313 1915.94 286.724 1880.37 313.8C1826.87 354.534 1774.85 399.094 1723.17 444.358C1635.2 520.953 1533.39 613.882 1447.34 640.049C1387.12 658.391 1342.77 624.04 1378.27 623.611C1394.17 631.006 1422.24 665.185 1428.9 710.724C1435.44 755.49 1421.68 806.845 1394.98 850.478C1359.62 908.285 1308.19 953.239 1248.59 981.671C1147.7 1029.82 1024.9 1031.88 909.175 973.452C710.163 873.59 562.864 914.238 520.931 979.08C517.293 984.708 516.315 991.108 516.71 996.358C518.22 1016.67 526.13 1024.24 531.689 1028.48C545.003 1038.62 569.161 1035.69 534.417 996.118C534.52 992.995 533.13 988.431 530.127 982.872C527.777 956.843 496.206 925.426 427.764 927.691C375.931 929.406 303.851 948.092 253.168 1012.44C235.529 1034.78 221.289 1060.14 209.295 1087.98C107.567 1325.2 -264.189 1645.96 -828.368 1286.27M2680.18 450.123C2547.02 325.605 2337.86 164.883 2156.83 168.006C2077.51 169.379 2023.05 206.664 1972.16 249.645C1943.82 273.564 1912.95 300.485 1878.28 328.779C1826.34 371.143 1775.04 416.681 1723.39 462.168C1635.86 538.849 1531.47 630.423 1443.17 651.064C1381.37 665.529 1336.04 624.16 1375.3 618.995C1393.42 623.302 1424.58 656.126 1433.46 701.424C1442.21 746.036 1430.01 798.094 1404.5 842.551C1370.65 901.541 1320.33 947.886 1261.49 977.724C1161.53 1028.44 1038.3 1032.65 921.889 974.018C719.702 872.784 571.735 925.734 536.493 992.326C533.284 998.383 532.958 1005.02 533.919 1010.41C537.711 1031.69 547.422 1038.76 554.8 1041.78C571.786 1048.73 596.699 1036.37 554.114 993.767C553.256 990.336 550.922 985.6 546.976 979.989C540.593 953.806 506.244 926.009 437.167 931.792C385.556 936.115 314.832 957.22 264.114 1021.77C246.528 1044.09 232.098 1069.33 219.779 1096.99C115.22 1332.54 -294.678 1641.25 -826.91 1258.11M2678.58 437.786C2543.26 315.413 2330.24 157.642 2148.85 167.903C2069.22 172.416 2016.24 213.99 1967.15 260.078C1939.91 285.867 1909.95 314.246 1876.18 343.724C1825.79 387.735 1775.23 434.234 1723.63 479.944C1636.52 556.728 1529.56 646.929 1439.01 662.045C1375.62 672.632 1329.11 605.475 1372.33 614.363C1392.27 618.463 1426.93 647.049 1438.03 692.09C1448.99 736.547 1438.35 789.326 1414.02 834.59C1381.66 894.781 1332.46 942.498 1274.39 973.744C1175.36 1027.04 1051.7 1033.39 934.62 974.567C729.242 871.943 580.914 937.265 552.055 1005.57C549.31 1012.06 549.601 1018.9 551.111 1024.46C557.202 1046.65 568.749 1053.36 577.894 1055.09C598.689 1059.02 624.203 1037.09 573.793 991.451C571.975 987.711 568.698 982.803 563.825 977.141C553.427 950.803 516.264 926.592 446.586 935.927C395.165 942.824 325.813 966.383 275.061 1031.14C257.543 1053.44 242.924 1078.56 230.262 1106.03C122.872 1339.9 -325.15 1636.6 -825.451 1229.99M2676.97 425.432C2539.48 305.187 2322.59 150.401 2140.88 167.8C2060.94 175.453 2009.34 221.197 1962.13 270.527C1935.91 298.117 1906.93 328.007 1874.07 358.704C1825.22 404.345 1775.38 451.822 1723.84 497.754C1637.18 574.624 1527.62 663.487 1434.82 673.061C1369.86 679.787 1321.25 619.132 1369.34 609.747C1391.55 605.423 1429.24 637.99 1442.57 682.79C1455.75 727.093 1446.67 780.592 1423.51 826.662C1392.65 888.038 1344.55 937.162 1287.26 969.797C1189.17 1025.68 1065.05 1034.16 947.299 975.134C738.748 871.12 590.299 948.795 567.582 1018.82C565.335 1025.75 566.193 1032.79 568.286 1038.5C576.693 1061.54 590.196 1067.12 600.971 1068.37C625.575 1071.22 644.517 1045.24 593.456 989.083C590.162 985.446 586.456 979.955 580.656 974.241C566.244 947.749 526.25 927.073 455.989 940.01C404.739 949.447 336.777 975.477 286.007 1040.44C268.541 1062.73 253.734 1087.73 240.745 1115.01C130.524 1347.19 -355.639 1631.89 -823.993 1201.79M2675.37 413.078C2535.73 294.977 2314.99 143.178 2132.91 167.68C2052.67 178.49 2002.48 228.386 1957.13 280.959C1931.95 310.351 1903.94 341.751 1872 373.648C1824.68 420.902 1775.59 469.358 1724.08 515.531C1637.85 592.486 1525.72 679.993 1430.65 684.025C1364.11 686.874 1314.41 620.111 1366.38 605.08C1390.62 598.062 1431.59 628.861 1447.14 673.421C1462.55 717.57 1455.03 771.79 1433.03 818.667C1403.68 881.226 1356.7 931.757 1300.15 965.782C1203 1024.27 1078.44 1034.86 960.014 975.648C748.288 870.262 599.959 960.154 583.145 1032.03C581.429 1039.39 582.836 1046.63 585.495 1052.52C596.219 1076.38 611.575 1082.53 624.083 1081.64C652.891 1079.58 673.789 1044.71 613.153 986.698C609.001 982.735 604.249 977.089 597.506 971.324C579.078 944.694 536.218 927.502 465.391 944.077C414.313 956.036 347.758 984.57 296.954 1049.74C279.556 1072.01 264.56 1096.89 251.229 1124C138.177 1354.5 -386.128 1627.18 -822.534 1173.62M2673.76 400.724C2531.95 284.768 2307.36 135.954 2124.92 167.577C2044.38 181.544 1995.57 235.593 1952.11 291.392C1927.95 322.585 1900.91 355.495 1869.9 388.593C1824.11 437.477 1775.78 486.911 1724.32 533.307C1638.51 610.348 1523.83 696.5 1426.5 695.007C1358.38 693.977 1307.73 621.003 1363.43 600.447C1389.83 590.701 1433.94 619.785 1451.7 664.105C1469.32 708.081 1463.39 763.039 1442.56 810.722C1414.71 874.466 1368.85 926.404 1313.05 961.819C1216.85 1022.9 1091.82 1035.62 972.727 976.197C757.81 869.421 609.808 971.41 598.707 1045.28C597.54 1053.05 599.479 1060.48 602.687 1066.57C615.71 1091.23 633.005 1097.13 647.177 1094.95C680.086 1089.87 702.562 1044.35 632.833 984.365C627.823 980.041 622.024 974.276 614.354 968.442C591.895 941.658 546.153 927.931 474.811 948.195C423.853 962.659 358.739 993.716 307.901 1059.07C290.554 1081.33 275.387 1106.09 261.712 1133.01C145.829 1361.83 -416.6 1622.5 -821.093 1145.46M2672.16 388.387C2528.21 274.559 2299.77 128.765 2116.96 167.474C2036.13 184.598 1988.69 242.816 1947.11 301.841C1924 334.836 1897.91 369.256 1867.83 403.573C1823.54 454.07 1775.97 504.498 1724.56 551.117C1639.18 628.261 1521.93 713.04 1422.34 706.022C1352.65 701.132 1301.13 621.792 1360.47 595.832C1389.09 583.323 1436.31 610.708 1456.28 654.788C1476.13 698.61 1471.76 754.289 1452.1 802.778C1425.76 867.722 1381.01 921.05 1325.97 957.855C1230.73 1021.55 1105.24 1036.37 985.476 976.764C767.384 868.615 619.845 982.46 614.303 1058.52C613.703 1066.69 616.139 1074.33 619.931 1080.61C635.252 1106.02 654.521 1111.7 670.323 1108.23C707.366 1100.11 731.096 1044.09 652.565 982.014C646.662 977.347 639.851 971.444 631.238 965.559C604.763 938.62 556.104 928.343 484.248 952.296C433.409 969.248 369.737 1002.84 318.882 1068.41C301.604 1090.64 286.23 1115.28 272.23 1142.02C153.516 1369.16 -447.055 1617.8 -819.601 1117.31M2670.55 376.033C2524.44 264.35 2292.17 121.558 2108.98 167.371C2027.86 187.652 1981.79 250.023 1942.09 312.29C1920 347.087 1894.87 383.017 1865.72 418.535C1822.94 470.644 1776.14 522.068 1724.78 568.91C1639.84 646.14 1520.01 729.563 1418.16 717.021C1346.89 708.253 1294.54 622.478 1357.49 591.216C1388.36 575.876 1438.64 601.631 1460.83 645.488C1482.91 689.139 1480.1 745.538 1461.58 794.834C1436.77 860.962 1393.13 915.714 1338.84 953.892C1244.56 1020.21 1118.59 1037.13 998.155 977.312C776.889 867.774 629.899 993.304 629.831 1071.77C629.831 1080.33 632.73 1088.17 637.088 1094.66C654.692 1120.82 675.951 1126.26 693.383 1121.53C734.579 1110.34 759.32 1043.97 672.21 979.663C665.399 974.636 657.592 968.63 648.052 962.676C617.563 935.583 565.935 928.72 493.633 956.396C442.863 975.837 380.701 1011.96 329.794 1077.74C312.585 1099.96 297.023 1124.48 282.679 1151.02C161.134 1376.48 -477.579 1613.11 -818.176 1089.15M2668.96 363.68C2520.68 254.124 2284.59 114.369 2101 167.251C2019.59 190.706 1974.91 257.212 1937.08 322.705C1916.02 359.304 1891.85 396.726 1863.62 433.479C1822.36 487.219 1776.31 539.621 1725.01 586.686C1640.49 664.002 1518.09 746.087 1413.99 728.002C1341.14 715.356 1288 623.062 1354.52 586.566C1387.65 568.378 1441 592.503 1465.39 636.136C1489.71 679.616 1488.45 736.753 1471.11 786.855C1447.81 854.167 1405.29 910.326 1351.74 949.911C1258.44 1018.84 1131.99 1037.86 1010.89 977.862C786.429 866.933 640.057 1003.94 645.393 1085C645.976 1093.92 649.356 1102 654.298 1108.69C674.166 1135.6 697.432 1140.81 716.494 1134.81C761.859 1120.55 787.441 1043.92 691.907 977.295C684.186 971.908 675.384 965.782 664.901 959.777C630.38 932.529 575.75 929.063 503.035 960.48C452.334 982.391 391.665 1021.07 340.741 1087.04C323.583 1109.24 307.849 1133.64 293.162 1160C168.786 1383.78 -508.068 1608.4 -816.718 1060.96M2667.34 351.343C2516.9 243.931 2277 107.197 2093.02 167.165C2011.32 193.795 1968.01 264.453 1932.07 333.172C1912.04 371.572 1888.81 410.504 1861.53 448.459C1821.76 503.811 1776.5 557.191 1725.25 604.497C1641.16 681.898 1516.18 762.628 1409.82 739.018C1335.39 722.512 1281.46 623.611 1351.55 581.95C1386.98 560.897 1443.35 583.426 1469.96 626.837C1496.5 670.127 1496.81 728.019 1480.63 778.928C1458.86 847.441 1417.46 905.007 1364.63 945.964C1272.32 1017.51 1145.35 1038.65 1023.58 978.428C795.952 866.127 650.197 1014.39 660.938 1098.26C662.122 1107.54 665.965 1115.87 671.49 1122.76C693.606 1150.39 718.896 1155.38 739.589 1148.14C789.123 1130.78 815.46 1044.01 711.587 974.979C702.957 969.248 693.16 962.986 681.75 956.929C643.214 929.527 585.547 929.458 512.455 964.633C461.771 989.015 402.663 1030.25 351.687 1096.43C334.598 1118.61 318.659 1142.89 303.646 1169.06C176.438 1391.15 -538.54 1603.76 -815.277 1032.84M2665.75 338.989C2513.15 233.722 2269.46 100.025 2085.04 167.045C2003.06 196.849 1961.11 271.642 1927.06 343.604C1908.08 383.806 1885.77 424.248 1859.44 463.421C1821.14 520.386 1776.69 574.761 1725.47 622.29C1641.81 699.794 1514.28 779.151 1405.65 750.016C1329.64 729.632 1274.94 624.091 1348.6 577.335C1386.33 553.382 1445.71 574.332 1474.54 617.52C1503.31 660.639 1505.29 719.286 1490.17 770.984C1470.04 840.715 1429.64 899.671 1377.55 942.001C1286.23 1016.18 1158.77 1039.41 1036.33 978.977C805.526 865.286 660.389 1024.67 676.534 1111.51C678.318 1121.12 682.608 1129.7 688.716 1136.8C713.063 1165.14 740.412 1169.91 762.717 1161.42C816.421 1140.97 843.41 1044.09 731.301 972.611C721.745 966.52 710.969 960.137 698.616 954.029C656.065 926.473 595.326 929.801 521.891 968.716C471.225 995.569 413.661 1039.34 362.668 1105.73C345.631 1127.88 329.519 1152.05 314.163 1178.05C184.125 1398.46 -568.995 1599.06 -813.784 1004.66M2664.13 326.635C2509.37 223.496 2262.01 93.11 2077.07 166.942C1994.86 200.041 1954.22 278.849 1922.03 354.036C1904.08 396.04 1882.7 437.992 1857.34 478.366C1820.52 536.961 1776.86 592.314 1725.71 640.066C1642.48 717.656 1512.37 795.657 1401.48 760.998C1323.89 736.736 1268.41 624.503 1345.63 572.685C1385.68 545.815 1448.13 565.17 1479.1 608.186C1510.16 651.064 1513.62 710.501 1499.67 763.022C1481.04 833.921 1441.8 894.318 1390.43 938.02C1300.11 1014.84 1172.15 1040.15 1049.03 979.526C815.031 864.445 670.477 1034.79 692.079 1124.74C694.464 1134.67 699.216 1143.52 705.908 1150.83C732.485 1179.9 761.893 1184.5 785.811 1174.7C843.719 1151.23 871.274 1044.23 750.981 970.26C740.498 963.809 728.745 957.306 715.465 951.146C668.882 923.435 605.055 930.144 531.294 972.817C480.61 1002.14 424.625 1048.47 373.615 1115.06C356.646 1137.19 340.346 1161.23 324.646 1187.06C191.777 1405.79 -599.484 1594.36 -812.326 976.506M2662.54 314.281C2505.61 213.287 2254.42 85.8004 2069.1 166.822C1986.61 203.026 1947.35 286.038 1917.04 364.469C1900.12 408.274 1879.61 451.702 1855.27 493.311C1819.85 553.485 1777.06 609.867 1725.95 657.842C1643.15 735.518 1510.47 812.181 1397.33 771.962C1318.16 743.822 1261.9 624.864 1342.68 568.018C1385.03 538.214 1450.47 556.041 1483.68 598.817C1516.94 641.541 1521.98 701.681 1509.21 755.027C1492.07 827.092 1454.05 888.982 1403.35 934.005C1314.13 1013.55 1185.55 1040.85 1061.78 980.024C824.605 863.57 680.583 1044.74 707.675 1137.93C710.66 1148.18 715.859 1157.3 723.134 1164.84C751.942 1194.62 783.392 1198.96 808.94 1187.95C870.999 1161.3 899.138 1044.38 770.678 967.858C759.268 961.064 746.537 954.423 732.313 948.212C681.715 920.364 614.749 930.453 540.714 976.867C489.978 1008.66 435.623 1057.55 384.561 1124.34C367.644 1146.46 351.155 1170.38 335.13 1196.01C199.43 1413.08 -629.957 1589.62 -810.867 948.298M2660.93 301.944C2501.84 203.095 2246.82 78.5082 2061.11 166.736C1978.32 206.063 1940.44 293.279 1912.01 374.935C1873.18 486.43 1812.56 594.099 1726.16 675.669C1643.8 753.431 1508.53 828.738 1393.13 782.994C1312.38 750.994 1255.33 625.275 1339.68 563.437C1384.34 530.681 1452.75 546.999 1488.21 589.552C1523.68 632.104 1530.27 692.965 1518.7 747.134C1475.38 949.859 1269.32 1076.16 1074.46 980.624C807.842 849.912 660.371 1100.32 740.309 1178.92C853.67 1290.4 1000.57 1049.38 749.163 945.381C644.912 891.915 484.145 989.684 345.613 1205.07C207.082 1420.46 -660.446 1584.99 -809.426 920.192M2656.16 292.026C2502.22 196.369 2255.18 84.8054 2071.75 177.512C1991.16 218.246 1953.32 304.243 1924.79 385.385C1885.84 496.107 1825.53 603.021 1739.97 684.386C1658.18 762.199 1524.86 837.249 1410.35 794.508C1330.16 764.635 1272.7 643.721 1351.83 584.164C1369.77 570.643 1391.92 565.822 1413.97 567.984C1443.36 570.815 1472.51 586 1491.22 609.438C1524.18 650.498 1528.91 709.214 1516.37 761.581C1469.44 957.34 1265.16 1081.31 1071.64 990.542C809.489 867.585 663.082 1111.87 737.839 1191.14C843.581 1303.29 983.948 1070.84 737.015 971.719C632.044 921.703 474.811 1019.16 333.277 1225.68C188.912 1436.3 -666.691 1586.57 -811.433 929.509M2651.39 282.126C2502.58 189.643 2263.57 91.0337 2082.38 188.321C2004.01 230.411 1966.23 315.259 1937.56 395.886C1898.49 505.836 1838.49 612.012 1753.75 693.136C1672.54 770.984 1541.14 845.777 1427.53 806.038C1347.9 778.293 1290.02 662.183 1363.94 604.926C1380.67 591.919 1401.46 587.321 1422.12 589.414C1449.71 592.143 1476.96 606.813 1494.2 629.359C1524.55 669.029 1527.54 725.463 1514 776.063C1463.49 964.821 1261.05 1086.49 1068.81 1000.49C811.222 885.258 665.707 1123.35 735.351 1203.39C833.407 1316.09 967.306 1092.32 724.85 998.108C619.159 951.524 465.185 1048.69 320.906 1246.32C170.502 1452.34 -672.954 1588.18 -813.492 938.878M2646.63 272.208C2502.95 182.917 2272.03 97.1593 2093.04 199.097C2016.86 242.49 1979.15 326.24 1950.36 406.352C1911.15 515.531 1851.48 620.969 1767.56 701.853C1686.93 779.752 1557.48 854.287 1444.74 817.534C1365.66 791.917 1307.37 680.611 1376.07 625.653C1391.58 613.179 1411 608.786 1430.29 610.828C1456.08 613.47 1481.47 627.592 1497.2 649.245C1525 687.474 1526.2 741.677 1511.67 790.51C1457.59 972.251 1257.03 1091.66 1066 1010.41C813.041 902.845 668.264 1134.67 732.897 1215.62C823.198 1328.73 950.714 1113.81 712.72 1024.46C606.29 981.328 455.303 1078.17 308.587 1266.95C151.92 1468.52 -679.182 1589.76 -815.5 948.212M2641.86 262.291C2503.31 176.19 2280.49 103.182 2103.68 209.89C2029.69 254.535 1992.03 337.239 1963.14 416.819C1923.81 525.225 1864.45 629.908 1781.35 710.586C1701.31 788.52 1573.78 862.815 1461.93 829.048C1383.41 805.558 1324.7 699.056 1388.2 646.397C1402.49 634.438 1420.54 630.251 1438.46 632.241C1462.46 634.781 1485.97 648.37 1500.21 669.132C1525.45 705.919 1524.86 757.875 1509.32 804.957C1451.7 979.629 1253.07 1096.8 1063.17 1020.33C814.945 920.364 670.717 1145.86 730.409 1227.84C812.937 1341.19 934.071 1135.27 700.554 1050.82C593.405 1011.13 445.094 1107.61 296.216 1287.55C133.046 1484.8 -685.445 1591.34 -817.559 957.529M2637.09 252.391C2503.67 169.482 2288.96 109.136 2114.31 220.682C2042.53 266.529 2004.93 348.22 1975.92 427.303C1936.48 534.92 1877.4 638.882 1795.16 719.32C1715.71 797.287 1590.11 871.343 1479.15 840.561C1401.19 819.199 1342.2 717.656 1400.35 667.124C1413.46 655.731 1430.12 651.716 1446.64 653.655C1468.84 656.092 1490.48 669.132 1503.24 689.036C1525.91 724.382 1523.56 774.089 1507.02 819.422C1445.9 986.99 1249.22 1101.95 1060.4 1030.25C817.004 937.831 673.188 1156.89 728.007 1240.06C802.746 1353.46 917.514 1156.74 688.476 1077.17C580.605 1040.92 434.662 1136.97 283.949 1308.18C114.019 1501.21 -691.621 1592.94 -819.515 966.88M2632.32 242.473C2504.04 162.756 2297.47 114.97 2124.95 231.475C2055.36 278.471 2017.82 359.218 1988.69 437.786C1949.12 544.631 1890.36 647.856 1808.94 728.054C1730.05 806.072 1606.4 879.87 1496.33 852.074C1418.93 832.839 1359.55 736.135 1412.46 687.869C1424.37 677.008 1439.64 673.181 1454.77 675.069C1475.19 677.402 1494.94 689.911 1506.21 708.922C1526.3 742.81 1522.2 790.27 1504.65 833.869C1440.07 994.299 1245.4 1107.08 1057.55 1040.16C819.063 955.212 675.539 1167.77 725.502 1252.27C792.468 1365.52 900.871 1178.2 676.311 1103.51C567.72 1070.71 423.835 1166.24 271.578 1328.78C94.6304 1517.68 -697.901 1594.51 -821.557 976.197M2627.55 232.573C2504.4 156.047 2305.97 120.718 2135.61 242.267C2068.2 290.362 2030.74 370.217 2001.49 448.253C1961.78 554.326 1903.34 656.795 1822.75 736.77C1744.45 814.823 1622.78 888.141 1513.54 863.587C1436.72 846.309 1376.95 754.615 1424.59 708.613C1435.28 698.284 1449.18 694.664 1462.94 696.499C1481.56 698.73 1499.42 710.689 1509.21 728.843C1526.72 761.272 1520.88 806.467 1502.3 848.351C1434.3 1001.61 1241.67 1112.23 1054.74 1050.12C821.259 972.543 677.872 1178.49 723.031 1264.53C782.277 1377.39 884.245 1199.7 664.163 1129.9C554.851 1100.54 412.734 1195.45 259.241 1349.43C75.0192 1534.24 -704.129 1596.13 -823.581 985.549M2622.78 222.655C2504.76 149.321 2314.46 126.363 2146.25 253.06C2080.99 302.201 2043.63 381.215 2014.27 458.737C1974.45 564.037 1916.32 665.769 1836.57 745.521C1758.84 823.626 1639.1 896.669 1530.75 875.118C1454.5 859.95 1394.34 773.112 1436.74 729.358C1446.23 719.56 1458.74 716.146 1471.12 717.913C1487.96 720.041 1503.91 731.451 1512.23 748.729C1527.14 779.7 1519.61 822.613 1499.98 862.798C1428.64 1008.85 1238.05 1117.31 1051.94 1060.03C823.558 989.752 680.24 1189.01 720.595 1276.76C772.222 1389.03 867.654 1221.18 652.05 1156.26C542.018 1130.33 401.359 1224.5 246.922 1370.05C55.1505 1550.78 -710.357 1597.71 -825.589 994.9M2618.01 212.755C2505.12 142.594 2322.94 131.905 2156.88 263.852C2093.78 313.989 2056.53 392.197 2027.05 469.22C1987.11 573.749 1929.29 674.743 1850.36 754.254C1773.22 832.393 1655.42 905.162 1547.94 886.631C1472.24 873.573 1411.72 791.591 1448.85 750.102C1457.14 740.837 1468.28 737.611 1479.27 739.344C1494.3 741.386 1508.37 752.23 1515.22 768.65C1527.52 798.145 1518.31 838.794 1497.63 877.28C1423.01 1016.09 1234.49 1122.39 1049.11 1069.98C825.943 1006.89 682.591 1199.38 718.107 1289.01C762.271 1400.44 851.011 1242.68 639.885 1182.65C529.132 1160.17 389.657 1253.42 234.569 1390.69C34.9903 1567.34 -716.603 1599.32 -827.63 1004.25M2613.24 202.837C2505.48 135.868 2331.38 137.327 2167.52 274.628C2106.54 325.725 2069.43 403.178 2039.83 479.67C1999.77 583.409 1942.26 683.665 1864.16 762.954C1787.6 841.127 1671.71 913.638 1565.15 898.11C1490.01 887.163 1429.14 810.036 1461 770.812C1468.09 762.079 1477.83 759.059 1487.46 760.74C1500.7 762.679 1512.85 772.957 1518.24 788.52C1527.92 816.539 1517.07 854.905 1495.3 891.71C1417.47 1023.26 1231.02 1127.38 1046.32 1079.88C828.448 1023.86 685.044 1209.52 715.654 1301.21C752.508 1411.57 834.419 1264.13 627.755 1208.97C516.281 1189.94 377.715 1282.13 222.232 1411.28C14.5726 1583.77 -722.848 1600.88 -829.638 1013.55M2608.47 192.937C2505.84 129.16 2339.78 142.663 2178.16 285.437C2119.29 337.444 2082.32 414.194 2052.6 490.171C2012.4 593.138 1955.21 692.656 1877.93 771.721C1801.94 849.946 1688 922.166 1582.32 909.657C1507.74 900.838 1446.55 828.55 1473.1 791.574C1478.98 783.372 1487.34 780.558 1495.59 782.171C1507.04 784.007 1517.28 793.701 1521.21 808.44C1528.26 834.95 1515.8 871.068 1492.93 906.191C1411.98 1030.49 1227.59 1132.36 1043.47 1089.82C830.988 1040.73 687.549 1219.52 713.166 1313.44C742.917 1422.54 817.776 1285.61 615.59 1235.34C503.396 1219.76 365.482 1310.72 209.879 1431.92C-6.11978 1600.16 -729.094 1602.49 -831.68 1022.9M2603.72 183.02C2506.21 122.434 2348.16 147.896 2188.81 296.213C2132.02 349.078 2095.24 425.175 2065.4 500.637C2025.08 602.832 1968.2 701.613 1891.76 780.438C1816.35 858.697 1704.33 930.659 1599.55 921.171C1525.51 914.462 1464.02 847.012 1485.25 812.318C1489.95 804.648 1496.91 802.023 1503.76 803.602C1513.42 805.335 1521.74 814.429 1524.21 828.344C1528.64 853.309 1514.58 887.214 1490.6 920.656C1406.63 1037.68 1224.29 1137.26 1040.67 1099.75C833.681 1057.48 690.226 1229.37 710.712 1325.68C733.618 1433.35 801.168 1307.1 603.459 1261.71C490.545 1249.56 353.06 1339.11 197.542 1452.55C-27.069 1616.41 -735.339 1604.09 -833.704 1032.25M2598.95 173.119C2506.59 115.724 2356.46 153.027 2199.45 307.023C2144.7 360.711 2108.12 436.19 2078.18 511.121C2037.74 612.544 1981.15 710.569 1905.56 789.172C1830.73 867.482 1720.63 939.17 1616.74 932.684C1543.27 928.085 1481.47 865.44 1497.38 833.062C1500.89 825.907 1506.45 823.505 1511.93 825.015C1519.78 826.645 1526.2 835.121 1527.21 848.248C1529.01 871.634 1513.4 903.343 1488.25 935.12C1401.34 1044.88 1221.05 1142.08 1037.84 1109.69C836.426 1074.07 693.057 1239.1 708.241 1337.93C724.541 1444.02 784.559 1328.59 591.312 1288.08C477.676 1279.38 340.397 1367.3 185.206 1473.19C-48.2589 1632.49 -741.585 1605.68 -835.729 1041.6M2594.18 163.202C2506.95 108.998 2364.68 158.054 2210.09 317.798C2157.36 372.276 2121.02 447.155 2090.96 521.587C2050.4 622.238 1994.13 719.526 1919.35 797.905C1845.11 876.25 1736.93 947.68 1633.95 944.197C1561.03 941.726 1498.97 883.851 1509.51 853.79C1511.84 847.149 1515.99 844.97 1520.09 846.429C1526.15 847.956 1530.68 855.78 1530.22 868.134C1529.41 889.891 1512.25 919.472 1485.91 949.568C1396.2 1052.09 1217.89 1146.8 1035.04 1119.61C839.275 1090.49 696.111 1248.72 705.788 1350.15C715.739 1454.55 767.95 1350.04 579.198 1314.44C464.842 1309.19 327.581 1395.29 172.887 1493.81C-69.6889 1648.31 -747.796 1607.28 -837.736 1050.94M2589.41 153.301C2507.31 102.272 2372.81 163.013 2220.73 328.608C2169.99 383.84 2133.93 458.17 2103.75 532.088C2063.05 631.95 2007.1 728.517 1933.15 806.656C1859.49 885.052 1753.23 956.225 1651.14 955.727C1578.77 955.384 1516.46 902.211 1521.64 874.551C1522.79 868.409 1525.53 866.453 1528.26 867.86C1532.53 869.301 1535.17 876.439 1533.22 888.038C1529.84 908.13 1511.12 935.618 1483.56 964.032C1391.14 1059.35 1214.79 1151.44 1032.21 1129.54C842.174 1106.75 699.388 1258.31 703.3 1362.38C707.178 1465.05 751.307 1371.53 567.034 1340.79C451.957 1338.98 314.541 1423.05 160.533 1514.42C-91.359 1663.87 -754.058 1608.86 -839.761 1060.27M2584.64 143.384C2507.67 95.5464 2380.86 167.852 2231.36 339.383C2182.6 395.337 2146.81 469.152 2116.51 542.555C2075.69 641.644 2020.05 737.456 1946.94 815.372C1873.85 893.803 1769.53 964.736 1668.33 967.224C1596.51 969.008 1533.92 920.45 1533.75 895.279C1533.72 889.616 1535.07 887.918 1536.41 889.273C1538.88 890.612 1539.69 897.046 1536.2 907.941C1530.34 926.352 1510 951.781 1481.21 978.496C1386.18 1066.67 1211.75 1155.93 1029.38 1139.48C845.126 1122.85 702.888 1267.91 700.829 1374.61C698.873 1475.56 734.699 1393.01 554.886 1367.17C439.089 1368.8 301.381 1450.64 148.18 1535.06C-113.269 1679.14 -760.303 1610.47 -841.803 1069.62M2579.87 133.483C2508.03 88.8374 2388.8 172.639 2242 350.193C2195.16 406.85 2159.71 480.167 2129.29 553.039C2088.36 651.356 2033.02 746.43 1960.74 824.106C1888.23 902.571 1785.83 973.246 1685.53 978.754C1614.25 982.666 1551.29 938.655 1545.88 916.023C1544.65 910.824 1544.61 909.4 1544.58 910.687C1545.26 911.922 1544.25 917.67 1539.21 927.828C1530.92 944.54 1508.92 967.961 1478.88 992.944C1381.32 1074.05 1208.78 1160.27 1026.59 1149.38C848.18 1138.72 706.714 1277.48 698.376 1386.83C690.809 1486.06 718.09 1414.47 542.755 1393.52C426.237 1398.6 288.118 1477.99 135.86 1555.67C-135.317 1694.02 -766.532 1612.05 -843.81 1078.94M2575.1 123.566C2508.39 82.1114 2396.63 177.323 2252.64 360.968C2207.7 418.294 2172.6 491.131 2142.08 563.505C2101 661.05 2045.99 755.387 1974.53 832.839C1902.61 911.356 1802.13 981.774 1702.72 990.267C1631.99 996.307 1568.49 956.826 1557.99 936.768C1555.51 932.032 1554.13 930.865 1552.71 932.117C1551.59 933.25 1548.83 938.329 1542.17 947.749C1531.55 962.796 1507.84 984.176 1476.49 1007.41C1376.52 1081.53 1205.81 1164.46 1023.72 1159.31C851.2 1154.44 710.712 1287.17 695.854 1399.06C682.899 1496.66 701.413 1435.95 530.556 1419.88C413.318 1428.39 274.701 1505.15 123.473 1576.29C-157.622 1708.51 -772.811 1613.63 -845.886 1088.29M2570.33 113.666C2508.75 75.4025 2404.33 181.939 2263.28 371.778C2220.2 429.756 2185.5 502.147 2154.86 574.006C2113.66 670.779 2058.96 764.361 1988.34 841.59C1917 920.141 1818.45 990.336 1719.95 1001.8C1649.77 1009.96 1585.63 975.116 1570.16 957.529C1566.42 953.274 1563.72 952.364 1560.91 953.548C1558.01 954.578 1553.52 959.022 1545.23 967.653C1532.31 981.105 1506.86 1000.42 1474.21 1021.87C1371.88 1089.12 1202.97 1168.47 1020.97 1169.25C854.356 1169.95 715.104 1296.99 693.469 1411.3C675.281 1507.37 684.89 1457.44 518.494 1446.25C400.535 1458.21 261.369 1532.11 111.205 1596.93C-179.944 1722.6 -778.988 1615.24 -847.842 1097.64M2565.58 103.748C2509.13 68.6763 2411.93 186.486 2273.93 382.554C2232.67 441.167 2198.42 513.128 2167.64 584.456C2126.33 680.439 2071.94 773.3 2002.14 850.29C1931.38 928.892 1834.75 998.829 1737.14 1013.28C1667.51 1023.59 1602.72 993.476 1582.27 978.222C1577.24 974.481 1573.25 973.795 1569.06 974.928C1564.36 975.854 1558.17 979.715 1548.21 987.522C1533.01 999.447 1505.85 1016.67 1471.86 1036.3C1367.23 1096.77 1200.05 1172.23 1018.14 1179.15C857.427 1185.25 719.651 1306.91 690.981 1423.5C667.715 1518.16 668.247 1478.88 506.329 1472.57C387.65 1487.98 247.9 1558.84 98.8512 1617.51C-202.49 1736.12 -785.251 1616.79 -849.867 1106.93M2560.81 93.8478C2509.49 61.9676 2419.36 190.981 2284.57 393.363C2245.11 452.611 2211.31 524.144 2180.42 594.956C2138.99 690.168 2084.89 782.291 2015.93 859.057C1945.74 937.694 1851.05 1007.41 1754.33 1024.82C1685.27 1037.26 1619.85 1012.01 1594.4 999.001C1588.12 995.792 1582.79 995.295 1577.23 996.393C1570.74 997.216 1562.83 1000.53 1551.22 1007.46C1533.73 1017.91 1504.86 1033.03 1469.51 1050.8C1362.6 1104.61 1197.12 1175.83 1015.31 1189.11C860.499 1200.41 724.421 1317.06 688.51 1435.77C660.251 1529.16 651.621 1500.4 494.182 1498.98C374.782 1517.83 234.431 1585.45 86.4977 1638.18C-225.103 1749.25 -791.496 1618.43 -851.908 1116.33M2556.04 83.9302C2509.85 55.2243 2426.67 195.425 2295.21 404.139C2257.5 464.004 2224.21 535.108 2193.21 605.423C2151.63 699.862 2097.86 791.23 2029.73 867.774C1960.12 946.462 1867.35 1015.94 1771.52 1036.34C1703.01 1050.92 1637.04 1030.52 1606.52 1019.75C1598.98 1017.09 1592.31 1016.78 1585.38 1017.81C1577.09 1018.54 1567.45 1021.32 1554.2 1027.36C1534.38 1036.39 1503.84 1049.38 1467.16 1065.27C1357.99 1112.54 1194.13 1179.16 1012.5 1199.03C863.536 1215.33 729.38 1327.38 686.039 1448C652.873 1540.29 635.012 1521.88 482.051 1525.35C361.93 1547.64 220.997 1611.84 74.1785 1658.81C-247.751 1761.77 -797.725 1620.03 -853.916 1125.66M2551.27 74.0127C2510.21 48.4982 2433.83 199.818 2305.85 414.914C2269.87 475.397 2237.1 546.09 2205.99 615.873C2164.3 709.54 2110.83 800.17 2043.54 876.473C1974.51 955.196 1883.66 1024.45 1788.75 1047.82C1720.79 1064.55 1654.32 1049.03 1618.68 1040.44C1609.91 1038.33 1601.9 1038.21 1593.58 1039.19C1583.51 1039.82 1572.1 1042.1 1557.24 1047.22C1535.07 1054.85 1502.88 1065.75 1464.86 1079.68C1353.41 1120.53 1191.13 1182.15 1009.72 1208.92C866.556 1230.04 734.527 1337.84 683.603 1460.18C645.581 1551.53 618.421 1543.31 469.938 1551.65C349.096 1577.39 207.631 1638.01 61.8594 1679.38C-270.399 1773.68 -803.935 1621.56 -855.923 1134.95M2546.5 64.1123C2510.57 41.7893 2440.84 204.193 2316.48 425.724C2282.19 486.808 2250 557.105 2218.77 626.373C2176.96 719.269 2123.8 809.161 2057.33 885.241C1988.89 963.998 1899.98 1033.03 1805.94 1059.36C1738.54 1078.24 1671.59 1067.6 1630.79 1061.22C1620.79 1059.66 1611.42 1059.71 1601.71 1060.63C1589.84 1061.17 1576.66 1062.95 1560.21 1067.15C1535.64 1073.4 1501.85 1082.22 1462.48 1094.18C1348.7 1128.73 1187.94 1184.95 1006.87 1218.88C869.421 1244.66 739.709 1348.62 681.115 1472.45C638.255 1563.03 601.778 1564.83 457.773 1578.06C336.194 1607.25 194.282 1664.11 49.5057 1700.06C-293.065 1785.09 -810.198 1623.2 -857.948 1144.35M2541.73 54.1947C2510.95 35.0631 2447.69 208.534 2327.12 436.499C2294.49 498.201 2262.88 568.086 2231.54 636.84C2189.6 728.946 2136.76 818.1 2071.11 893.957C2003.24 972.766 1916.26 1041.57 1823.11 1070.86C1756.27 1091.88 1688.87 1086.11 1642.91 1081.94C1631.69 1080.93 1620.95 1081.17 1609.86 1082.05C1596.19 1082.48 1581.23 1083.78 1563.19 1087.04C1536.2 1091.91 1500.82 1098.69 1460.13 1108.63C1343.99 1136.97 1184.62 1187.36 1004.04 1228.8C872.183 1259.05 744.993 1359.53 678.627 1484.67C630.912 1574.63 585.152 1586.3 445.608 1604.4C323.308 1637.02 181.002 1689.98 37.1349 1720.65C-315.696 1795.83 -816.461 1624.76 -860.007 1153.65M2536.96 44.2945C2511.31 28.3544 2454.4 212.875 2337.76 447.309C2306.76 509.628 2275.79 579.085 2244.32 647.324C2202.25 738.657 2149.73 827.074 2084.92 902.691C2017.63 981.533 1932.6 1050.13 1840.32 1082.37C1774.04 1105.54 1706.18 1104.64 1655.04 1102.67C1642.6 1102.19 1630.5 1102.64 1618.03 1103.44C1602.57 1103.77 1585.81 1104.59 1566.2 1106.93C1536.77 1110.43 1499.8 1115.2 1457.79 1123.07C1339.22 1145.29 1181.14 1189.48 1001.24 1238.72C874.86 1273.31 750.364 1370.65 676.174 1496.88C623.585 1586.38 568.543 1607.74 433.478 1630.75C310.457 1666.82 167.877 1715.76 24.8158 1741.27C-338.155 1805.99 -822.689 1626.36 -862.014 1162.98M2532.19 34.377C2511.67 21.6284 2460.95 217.199 2348.4 458.085C2318.99 521.038 2288.69 590.066 2257.1 657.79C2214.91 748.352 2162.7 836.031 2098.72 911.407C2032.01 990.301 1948.97 1058.81 1857.52 1093.89C1791.84 1119.31 1723.51 1123.16 1667.17 1123.42C1653.49 1123.48 1640.04 1124.1 1626.2 1124.87C1608.93 1125.1 1590.35 1125.42 1569.2 1126.83C1537.3 1128.94 1498.73 1131.75 1455.44 1137.54C1334.34 1153.7 1177.4 1191.26 998.412 1248.65C877.313 1287.48 755.717 1381.94 673.703 1509.13C616.208 1598.31 551.917 1629.24 421.33 1657.14C297.589 1696.66 154.854 1741.42 12.4621 1761.93C-360.495 1815.6 -828.952 1627.99 -864.056 1172.37M2527.44 24.4767C2512.05 14.9023 2467.37 221.523 2359.05 468.894C2331.21 532.483 2301.59 601.082 2269.9 668.291C2227.59 758.081 2175.69 845.005 2112.53 920.175C2046.4 999.104 1965.3 1067.38 1874.74 1105.43C1809.63 1132.99 1740.88 1141.69 1679.32 1144.19C1664.44 1144.79 1649.6 1145.62 1634.38 1146.32C1615.33 1146.46 1594.93 1146.27 1572.22 1146.75C1537.85 1147.47 1497.67 1148.35 1453.13 1152.02C1329.44 1162.19 1173.42 1192.77 995.616 1258.59C879.613 1301.54 761.087 1393.4 671.249 1521.37C608.795 1610.33 535.326 1650.73 409.2 1683.5C284.738 1726.44 142.003 1766.96 0.143005 1782.54C-382.594 1824.57 -835.163 1629.55 -866.064 1181.69M2522.67 14.5589C2512.41 8.17605 2473.63 225.864 2369.69 479.67C2343.39 543.911 2314.49 612.063 2282.67 678.741C2240.24 767.758 2188.64 853.944 2126.31 928.875C2060.77 1007.85 1981.58 1075.87 1891.92 1116.91C1827.35 1146.6 1758.19 1160.25 1691.43 1164.89C1675.34 1166.05 1659.12 1167.05 1642.53 1167.7C1621.68 1167.74 1599.45 1167.05 1575.2 1166.62C1538.35 1165.95 1496.55 1164.92 1450.76 1166.45C1324.37 1170.67 1169.05 1193.92 992.785 1268.49C881.672 1315.5 766.406 1404.95 668.779 1533.57C601.315 1622.45 518.7 1672.17 397.069 1709.84C271.887 1756.23 129.306 1792.37 -12.1934 1803.14C-404.504 1833 -841.408 1631.13 -868.071 1191M2517.9 4.65853C2512.77 1.46709 2479.74 230.222 2380.33 490.479C2355.54 555.389 2327.38 623.062 2295.45 689.241C2252.88 777.47 2201.6 862.935 2140.12 937.625C2075.14 1016.64 1997.92 1084.41 1909.13 1128.44C1845.13 1160.25 1775.54 1178.72 1703.56 1185.65C1686.25 1187.33 1668.68 1188.53 1650.68 1189.13C1628.05 1189.06 1603.98 1187.88 1578.19 1186.52C1538.85 1184.46 1495.39 1181.53 1448.41 1180.91C1319.23 1179.21 1164.33 1194.81 989.954 1278.42C883.49 1329.47 771.673 1416.67 666.291 1545.8C593.748 1634.7 502.057 1693.66 384.905 1736.19C259.001 1786.04 116.747 1817.73 -24.5468 1823.75C-426.157 1840.91 -847.653 1632.71 -870.113 1200.32M2513.13 -5.25882C2513.13 -5.25882 2376.54 1190.2 1658.85 1210.56C1433.5 1208.98 1082.49 1078.41 663.837 1558.05C245.189 2037.71 -842.043 1910.45 -872.137 1209.7M3047.25 531.265C3047.25 531.265 2433.36 263.578 2324.69 751.972C2251.17 1082.36 2292.43 1335.37 2165.74 1490.91C2059.26 1621.64 1796.64 1613.23 1664.05 1570.58C1479.19 1511.11 1288.89 1281.89 1099.4 1238.27C703.3 1147.11 367.061 1876.41 729.414 2299.86M3047.56 537.476C3047.56 537.476 2442.15 274.731 2327.14 749.021C2249.47 1069.35 2284.07 1316.55 2156.88 1471.99C2132.79 1501.47 2100.92 1524.01 2064.49 1540.84C2041.57 1551.45 2016.93 1559.8 1991.33 1566.2C1878.76 1594.38 1746.99 1584.01 1665.02 1560.34C1483.31 1508.11 1296.12 1290.64 1108.89 1251.38C718.605 1168.44 383.601 1874.81 718.536 2277.47M3047.87 543.67C3047.87 543.67 2450.95 285.832 2329.59 746.07C2247.78 1056.33 2275.72 1297.73 2148.03 1453.04C2124.1 1482.23 2092.65 1504.79 2056.84 1521.88C2034.29 1532.66 2010.13 1541.32 1985.12 1548.12C1875.07 1578.06 1746.49 1570.6 1666 1550.09C1487.44 1505.09 1303.25 1299.89 1118.38 1264.47C733.721 1190.78 400.158 1873.2 707.658 2255.06M3048.16 549.864C3048.16 549.864 2459.75 296.899 2332.03 743.118C2246.1 1043.27 2267.34 1278.9 2139.16 1434.12C2115.36 1463.03 2084.36 1485.59 2049.17 1502.94C2027 1513.9 2003.34 1522.86 1978.91 1530.03C1871.38 1561.72 1745.97 1557.18 1666.96 1539.83C1491.54 1502.07 1310.44 1308.86 1127.85 1277.57C748.957 1212.59 416.698 1871.59 696.763 2232.65M3048.47 556.076C3048.47 556.076 2468.62 307.949 2334.48 740.167C2244.47 1030.19 2258.99 1260.08 2130.31 1415.19C2106.66 1443.83 2076.07 1466.39 2041.51 1483.98C2019.72 1495.12 1996.56 1504.38 1972.71 1511.95C1867.72 1545.41 1745.53 1543.55 1667.94 1529.59C1495.76 1498.6 1317.65 1317.85 1137.34 1290.66C764.227 1234.38 433.238 1869.97 685.885 2210.24M3048.76 562.27C3048.76 562.27 2477.51 318.931 2336.9 737.216C2242.83 1017.09 2250.58 1241.24 2121.42 1396.27C2097.91 1424.63 2067.77 1447.19 2033.83 1465.04C2012.42 1476.36 1989.75 1485.92 1966.47 1493.86C1864 1529.07 1745 1530.08 1668.88 1519.33C1499.85 1495.46 1324.84 1326.81 1146.79 1303.75C779.48 1256.15 449.761 1868.36 674.973 2187.83M3049.07 568.464C3049.07 568.464 2486.45 329.878 2339.36 734.265C2241.25 1003.98 2242.23 1222.42 2112.56 1377.34C2089.21 1405.41 2059.5 1427.99 2026.18 1446.1C2005.12 1457.59 1982.97 1467.46 1960.27 1475.8C1860.35 1512.77 1744.5 1516.63 1669.86 1509.1C1503.96 1492.35 1332.08 1335.8 1156.28 1316.86C794.802 1277.91 466.3 1866.77 664.077 2165.46M3049.38 574.675C3049.38 574.675 2495.46 340.79 2341.81 731.314C2239.7 990.833 2233.87 1203.6 2103.71 1358.4C2080.51 1386.2 2051.23 1408.78 2018.52 1427.14C1997.85 1438.82 1976.18 1448.98 1954.08 1457.71C1856.68 1496.44 1744 1503.16 1670.84 1498.84C1508.06 1489.23 1339.32 1344.74 1165.77 1329.95C810.141 1299.63 482.858 1865.15 653.199 2143.05M3049.67 580.87C3049.67 580.87 2504.48 351.651 2344.25 728.362C2238.19 977.656 2225.5 1184.77 2094.84 1339.47C2071.78 1367 2042.94 1389.58 2010.85 1408.19C1990.56 1420.05 1969.38 1430.52 1947.85 1439.63C1852.99 1480.12 1743.45 1489.71 1671.8 1488.6C1512.15 1486.13 1346.56 1353.68 1175.24 1343.04C825.48 1321.32 499.398 1863.52 642.304 2120.64M3049.98 587.081C3049.98 587.081 2513.61 362.496 2346.7 725.428C2236.75 964.495 2216.82 1165.69 2085.99 1320.56C2063.01 1347.76 2034.67 1370.39 2003.2 1389.25C1983.28 1401.29 1962.61 1412.05 1941.66 1421.56C1849.31 1463.8 1742.95 1476.26 1672.78 1478.37C1516.23 1483.05 1353.82 1362.64 1184.73 1356.17C840.871 1343.01 515.938 1861.94 631.426 2098.27M3050.27 593.275C3050.27 593.275 2522.79 373.288 2349.12 722.46C2235.33 951.266 2208.41 1146.82 2077.1 1301.62C2054.28 1328.53 2026.33 1351.12 1995.51 1370.29C1975.94 1382.47 1955.79 1393.57 1935.43 1403.46C1845.63 1447.47 1742.4 1462.79 1673.72 1468.09C1520.28 1479.93 1361.06 1371.51 1194.18 1369.23C856.226 1364.59 532.461 1860.3 620.514 2075.82M3050.58 599.469C3050.58 599.469 2532.07 384.046 2351.57 719.509C2233.99 938.054 2200.03 1127.98 2068.25 1282.7C2045.56 1309.33 2018.06 1331.91 1987.86 1351.35C1968.66 1363.7 1949.02 1375.11 1929.22 1385.39C1841.94 1431.17 1741.87 1449.37 1674.7 1457.87C1524.35 1476.88 1368.35 1380.43 1203.67 1382.35C871.651 1386.21 549.001 1858.72 609.636 2053.45M3050.89 605.68C3050.89 605.68 2541.44 394.805 2354.02 716.575C2232.72 924.842 2191.66 1109.16 2059.39 1263.77C2036.87 1290.11 2009.77 1312.71 1980.21 1332.4C1961.39 1344.95 1942.21 1356.6 1923.02 1367.32C1838.18 1414.68 1741.36 1435.94 1675.68 1447.62C1528.41 1473.81 1375.64 1389.3 1213.16 1395.44C887.076 1407.76 565.558 1857.11 598.758 2031.04M3051.18 611.875C3051.18 611.875 2550.89 405.529 2356.46 713.624C2231.5 911.613 2183.27 1090.32 2050.52 1244.85C2028.13 1270.91 2001.49 1293.51 1972.54 1313.46C1954.08 1326.18 1935.41 1338.13 1916.81 1349.24C1834.49 1398.34 1740.83 1422.5 1676.64 1437.38C1532.45 1470.77 1382.92 1398.17 1222.63 1408.55C902.518 1429.28 582.098 1855.51 587.863 2008.65M3051.49 618.086C3051.49 618.086 2560.48 416.27 2358.92 710.672C2230.39 898.402 2174.9 1071.49 2041.67 1225.92C2019.43 1251.71 1993.22 1274.31 1964.89 1294.5C1946.8 1307.4 1928.63 1319.66 1910.6 1331.15C1830.8 1382.03 1740.28 1409.08 1677.6 1427.12C1536.5 1467.71 1390.21 1406.99 1232.1 1421.63C917.96 1450.73 598.621 1853.88 576.968 1986.22M3051.78 624.28C3051.78 624.28 2570.18 427.011 2361.33 707.721C2229.31 885.189 2166.51 1052.65 2032.78 1206.99C2010.68 1232.49 1984.91 1255.11 1957.2 1275.56C1939.5 1288.63 1921.81 1301.19 1904.37 1313.07C1827.1 1365.69 1739.73 1395.67 1678.56 1416.87C1540.53 1464.71 1397.5 1415.81 1241.57 1434.74C933.402 1472.16 615.161 1852.28 566.056 1963.83M3052.09 630.474C3052.09 630.474 2580.01 437.769 2363.79 704.77C2228.35 872.012 2158.15 1033.83 2023.93 1188.07C2001.98 1213.29 1976.64 1235.91 1949.55 1256.62C1932.2 1269.88 1915.03 1282.73 1898.18 1295C1823.42 1349.39 1739.21 1382.27 1679.54 1406.63C1544.59 1461.71 1404.81 1424.6 1251.06 1447.83C948.861 1493.52 631.701 1850.67 555.177 1941.44M3052.4 636.686C3052.4 636.686 2589.98 448.613 2366.24 701.819C2227.49 858.869 2149.78 1015.01 2015.07 1169.13C1993.27 1194.07 1968.35 1216.69 1941.9 1237.66C1924.93 1251.09 1908.25 1264.25 1891.97 1276.9C1819.73 1333.04 1738.68 1368.85 1680.5 1396.37C1548.64 1458.72 1412.1 1433.35 1260.53 1460.92C964.32 1514.81 648.241 1849.04 544.282 1919.03M3052.69 642.88C3052.69 642.88 2600.05 459.509 2368.68 698.867C2226.68 845.76 2141.42 996.187 2006.2 1150.2C1984.55 1174.86 1960.07 1197.49 1934.23 1218.71C1917.64 1232.34 1901.46 1245.79 1885.76 1258.83C1816.05 1316.74 1738.15 1355.46 1681.48 1386.13C1552.73 1455.76 1419.41 1442.08 1270.02 1474.01C979.779 1536.07 664.798 1847.43 533.404 1896.62M3053 649.074C3053 649.074 2610.28 470.49 2371.13 695.916C2225.98 832.736 2133.07 977.364 1997.35 1131.27C1975.85 1155.66 1951.8 1178.3 1926.58 1199.75C1910.36 1213.55 1894.66 1227.31 1879.55 1240.74C1812.36 1300.42 1737.63 1342.08 1682.44 1375.88C1556.79 1452.8 1426.69 1450.8 1279.49 1487.12C995.204 1557.3 681.321 1845.83 522.509 1874.23M3053.29 655.285C3053.29 655.285 2620.6 481.626 2373.55 692.965C2225.33 819.782 2124.7 958.541 1988.46 1112.35C1967.12 1136.46 1943.49 1159.1 1918.89 1180.81C1903.05 1194.79 1887.85 1208.85 1873.32 1222.66C1808.65 1284.1 1737.1 1328.7 1683.38 1365.62C1560.86 1449.85 1433.94 1459.46 1288.94 1500.21C1010.59 1578.44 697.844 1844.22 511.597 1851.82M3053.6 661.479C3053.6 661.479 2631.07 492.899 2376 690.014C2224.76 806.896 2116.34 939.736 1979.61 1093.42C1958.4 1117.26 1935.22 1139.9 1911.24 1161.87C1895.76 1176.02 1881.07 1190.38 1867.12 1204.59C1805 1267.82 1736.61 1315.33 1684.38 1355.4C1565.01 1446.94 1441.24 1468.13 1298.45 1513.32C1026.02 1599.56 714.401 1842.62 500.736 1829.43M3053.91 667.691C3053.91 667.691 2641.62 504.344 2378.46 687.08C2224.24 794.148 2108.02 920.947 1970.76 1074.5C1949.7 1098.06 1926.95 1120.7 1903.58 1142.92C1888.49 1157.27 1874.3 1171.92 1860.91 1186.51C1801.32 1251.5 1736.11 1301.95 1685.34 1345.14C1569.11 1444 1448.49 1476.74 1307.92 1526.41C1041.39 1620.6 730.941 1841.01 489.841 1807.02M3054.2 673.885C3054.2 673.885 2652.24 515.977 2380.89 684.128C2223.76 781.485 2099.66 902.142 1961.89 1055.57C1940.99 1078.86 1918.67 1101.52 1895.91 1123.98C1881.19 1138.52 1867.5 1153.48 1854.7 1168.44C1797.64 1235.2 1735.61 1288.58 1686.3 1334.91C1573.25 1441.1 1455.72 1485.35 1317.39 1539.52C1056.71 1641.61 747.481 1839.42 478.946 1784.63M3054.51 680.079C3054.51 680.079 2662.92 527.833 2383.35 681.16C2223.32 768.925 2091.32 883.319 1953.03 1036.63C1932.29 1059.64 1910.41 1082.3 1888.26 1105.02C1873.92 1119.73 1860.74 1135.01 1848.51 1150.35C1794.12 1218.99 1735.13 1275.22 1687.29 1324.65C1577.43 1438.17 1462.96 1493.92 1326.9 1552.61C1072.04 1662.56 764.038 1837.8 468.068 1762.22M3054.8 686.29C3054.8 686.29 2673.59 539.93 2385.77 678.226C2222.82 756.519 2083.24 864.788 1944.14 1017.72C1923.59 1040.49 1902.14 1063.17 1880.58 1086.08C1866.64 1101.01 1853.93 1116.55 1842.26 1132.27C1790.39 1202.67 1734.62 1261.83 1688.22 1314.4C1581.55 1435.25 1470.11 1502.46 1336.35 1565.71C1087.27 1683.48 780.561 1836.19 457.155 1739.81M3055.11 692.484C3055.11 692.484 2684.24 552.232 2388.22 675.275C2222.36 744.217 2074.89 845.965 1935.29 998.795C1914.89 1021.27 1893.87 1043.97 1872.92 1067.14C1859.35 1082.24 1847.15 1098.09 1836.07 1114.2C1786.74 1186.35 1734.15 1248.47 1689.2 1304.16C1585.75 1432.33 1477.28 1510.99 1345.84 1578.81C1102.49 1704.36 797.101 1834.59 446.277 1717.44M3055.41 698.696C3055.41 698.696 2694.85 564.775 2390.67 672.323C2221.84 732.034 2066.53 827.143 1926.44 979.852C1906.18 1002.05 1885.6 1024.76 1865.27 1048.18C1852.08 1063.46 1840.38 1079.61 1829.87 1096.1C1783.07 1170.02 1733.71 1235.06 1690.18 1293.9C1589.96 1429.38 1484.44 1519.48 1355.33 1591.89C1117.66 1725.19 813.658 1832.95 435.4 1695.01M3055.71 704.89C3055.71 704.89 2705.36 577.506 2393.11 669.372C2221.24 719.938 2058.16 808.32 1917.57 960.926C1897.46 982.855 1877.32 1005.56 1857.6 1029.23C1844.78 1044.69 1833.58 1061.15 1823.65 1078.03C1779.36 1153.7 1733.21 1221.7 1691.14 1283.66C1594.14 1426.45 1491.54 1527.96 1364.8 1605C1132.74 1746.02 830.198 1831.35 424.505 1672.62M3056.02 711.084C3056.02 711.084 2715.76 590.427 2395.56 666.421C2220.59 707.944 2049.8 789.48 1908.71 942.001C1888.74 963.654 1869.05 986.355 1849.95 1010.29C1837.51 1025.94 1826.79 1042.69 1817.45 1059.96C1775.71 1137.4 1732.87 1208.4 1692.12 1273.43C1598.59 1423.67 1498.61 1536.47 1374.29 1618.11C1147.79 1766.84 846.738 1829.76 413.626 1650.23M3056.32 717.295C3056.32 717.295 2726.02 603.536 2398 663.47C2219.82 696.036 2041.43 770.658 1899.84 923.075C1880.03 944.437 1860.76 967.155 1842.28 991.331C1830.22 1007.15 1819.99 1024.21 1811.24 1041.86C1772.02 1121.05 1732.35 1194.95 1693.08 1263.15C1602.69 1420.61 1505.65 1544.89 1383.76 1631.18C1162.77 1787.61 863.278 1828.13 402.731 1627.8M3056.62 723.49C3056.62 723.49 2220.11 444.924 1834.63 972.388C1822.93 988.397 1813.21 1005.74 1805.03 1023.79C1530.87 1628.76 1267.33 2002.13 391.836 1605.41M3049.72 732.395C3046.24 729.358 2915.94 685.449 2736.25 662.509C2562.06 640.254 2342.77 636.891 2143.88 712.92C2021.39 759.35 1906.21 836.271 1815.72 957.289C1803.83 973.212 1793.91 990.49 1785.5 1008.45C1704.02 1183.14 1626.66 1341.02 1535.98 1466.62C1491.61 1527.7 1443.98 1581.18 1391.12 1625.54C1253.44 1741.03 1080.84 1795.22 837.936 1758.7C707.761 1739.12 557.837 1692.28 386.106 1615.57M3042.84 741.3C3035.87 735.243 2905.9 690.837 2728.41 665.1C2552.54 639.585 2332.82 631.367 2131.66 702.505C2007.37 746.447 1889.26 821.309 1796.88 942.155C1784.8 958.009 1774.66 975.202 1766.05 993.081C1682.76 1166.62 1607.2 1326.31 1518.69 1453.82C1475.76 1515.64 1429.41 1569.88 1377.98 1615.4C1244.08 1733.94 1075.81 1793.76 834.299 1763.25C703.386 1746.71 551.935 1701.21 380.443 1625.69M3035.94 750.222C3025.49 741.128 2895.85 696.156 2720.53 667.708C2542.97 638.882 2322.71 625.584 2119.41 692.107C1993.23 733.39 1872.29 806.381 1777.99 927.056C1765.72 942.842 1755.38 959.931 1746.54 977.742C1661.47 1150.11 1587.51 1311.52 1501.32 1441.03C1459.73 1503.52 1414.76 1558.6 1364.78 1605.29C1234.66 1726.89 1070.66 1792.4 830.61 1767.83C698.925 1754.36 545.981 1710.16 374.73 1635.85M3029.04 759.127C3015.13 746.997 2885.79 701.372 2712.66 670.299C2533.37 638.11 2312.59 619.75 2107.16 681.692C1979.1 720.298 1855.3 791.419 1759.08 911.939C1746.63 927.656 1736.07 944.66 1727.01 962.385C1640.16 1133.61 1567.79 1296.68 1483.96 1428.23C1443.71 1491.39 1400.11 1547.3 1351.59 1595.15C1225.22 1719.8 1065.48 1791.08 826.921 1772.38C694.429 1762 540.027 1719.1 369.016 1645.97M3022.15 768.032C3004.75 752.864 2875.72 706.503 2704.78 672.89C2523.77 637.286 2302.45 613.916 2094.91 671.277C1964.94 707.206 1838.06 776.268 1740.21 896.806C1727.53 912.42 1716.79 929.372 1707.51 947.028C1618.85 1117.08 1548.08 1281.84 1466.59 1415.43C1427.68 1479.24 1385.46 1536 1338.38 1585.03C1215.78 1712.74 1060.25 1789.84 823.215 1776.94C689.9 1769.68 534.056 1728.04 363.286 1656.11M3015.27 776.938C2994.38 758.75 2865.65 711.547 2696.94 675.48C2514.18 636.394 2292.33 608.048 2082.69 660.862C1950.82 694.097 1821.07 761.272 1721.34 881.689C1708.47 897.234 1697.49 914.084 1688.01 931.671C1597.22 1100.39 1528.38 1266.96 1449.27 1402.63C1411.69 1467.08 1370.84 1524.7 1325.22 1574.89C1206.4 1705.65 1055.02 1788.7 819.561 1781.49C685.404 1777.39 528.137 1736.96 357.606 1666.24M3008.37 785.843C2984 764.618 2855.58 716.523 2689.06 678.071C2504.55 635.45 2282.15 602.163 2070.44 650.446C1936.65 680.971 1804.07 746.293 1702.44 866.556C1689.37 882.032 1678.18 898.796 1668.51 916.298C1575.87 1083.83 1508.65 1252.07 1431.92 1389.82C1395.66 1454.91 1356.2 1513.37 1312.02 1564.74C1196.98 1698.55 1049.73 1787.61 815.889 1786.04C680.858 1785.13 522.2 1745.89 351.893 1676.38M3001.47 794.748C2973.62 770.486 2845.51 721.431 2681.19 680.662C2494.91 634.455 2271.98 596.243 2058.19 640.049C1922.47 667.845 1787.07 731.314 1683.55 851.456C1670.29 866.847 1658.9 883.542 1649 900.958C1554.54 1067.31 1488.9 1237.21 1414.56 1377.03C1379.61 1442.77 1341.55 1502.1 1298.83 1554.62C1187.56 1691.48 1044.4 1786.64 812.2 1790.6C676.294 1792.92 516.247 1754.82 346.18 1686.52M2994.57 803.653C2963.24 776.354 2835.45 726.252 2673.31 683.253C2485.26 633.374 2261.8 590.324 2045.94 629.634C1908.3 654.702 1770.06 716.352 1664.66 836.34C1651.21 851.662 1639.6 868.254 1629.49 885.601C1533.2 1050.77 1469.13 1222.3 1397.21 1364.23C1363.58 1430.58 1326.93 1490.79 1285.63 1544.5C1178.12 1684.41 1039.06 1785.74 808.511 1795.16C671.695 1800.76 510.293 1763.76 340.466 1696.66M2987.69 812.558C2952.88 782.24 2825.4 731.005 2665.47 685.844C2475.66 632.241 2251.63 584.37 2033.73 619.218C1894.15 641.541 1753.09 701.372 1645.81 821.206C1632.17 836.46 1620.34 852.966 1610.02 870.227C1511.93 1034.23 1449.4 1207.37 1379.88 1351.42C1347.55 1418.4 1312.31 1479.49 1272.47 1534.34C1168.74 1677.3 1033.74 1784.9 804.856 1799.69C667.131 1808.6 504.373 1772.67 334.787 1706.76M2980.8 821.481C2942.5 788.125 2815.36 735.706 2657.6 688.452C2466.01 631.075 2241.44 578.416 2021.47 608.821C1879.96 628.381 1736.11 686.41 1626.92 806.107C1613.07 821.275 1601.04 837.712 1590.49 854.905C1490.58 1017.72 1429.6 1192.5 1362.52 1338.65C1331.48 1406.25 1297.66 1468.21 1259.28 1524.25C1159.32 1670.27 1028.35 1784.2 801.167 1804.29C662.533 1816.56 498.42 1781.64 329.073 1716.94M2973.9 830.386C2932.12 793.993 2805.32 740.322 2649.72 691.043C2456.39 629.805 2231.23 572.428 2009.22 598.405C1865.77 615.186 1719.1 671.448 1608.03 790.973C1593.99 806.072 1581.76 822.424 1570.98 839.531C1469.27 1001.18 1409.8 1177.55 1345.15 1325.83C1315.42 1394.05 1283.01 1456.89 1246.07 1514.11C1149.88 1663.17 1022.97 1783.53 797.461 1808.84C657.901 1824.5 492.449 1790.57 323.343 1727.08M2967.02 839.291C2921.77 799.878 2795.32 744.886 2641.86 693.634C2446.8 628.484 2221.04 566.405 1996.99 587.99C1851.6 601.992 1702.14 656.469 1589.15 775.857C1574.93 790.887 1562.47 807.153 1551.49 824.174C1447.98 984.656 1390.02 1162.61 1327.82 1313.05C1299.36 1381.87 1268.39 1445.61 1232.91 1503.99C1140.5 1656.1 1017.63 1782.96 793.807 1813.42C653.32 1832.53 486.529 1799.54 317.663 1737.24M2960.12 848.196C2911.39 805.746 2785.3 749.381 2634 696.225C2437.22 627.094 2210.84 560.382 1984.76 577.575C1837.41 588.779 1685.18 641.507 1570.28 760.74C1555.87 775.702 1543.2 791.865 1532 808.818C1426.69 968.133 1370.2 1147.66 1310.48 1300.25C1283.3 1369.69 1253.75 1434.31 1219.71 1493.86C1131.06 1649.03 1012.24 1782.47 790.118 1817.98C648.704 1840.6 480.559 1808.48 311.95 1747.38M2953.22 857.101C2901.01 811.615 2775.32 753.826 2626.13 698.816C2427.67 625.619 2200.64 554.343 1972.51 567.177C1823.22 575.568 1668.2 626.579 1551.39 745.624C1536.79 760.5 1523.9 776.595 1512.49 793.461C1405.39 951.61 1350.37 1132.72 1293.13 1287.45C1267.22 1357.49 1239.12 1423.02 1206.54 1483.72C1121.66 1641.94 1006.91 1782.02 786.446 1822.53C644.123 1848.68 474.622 1817.4 306.254 1757.5M2946.33 866.006C2890.63 817.483 2765.35 758.235 2618.25 701.407C2418.13 624.091 2190.43 548.269 1960.26 556.762C1809.03 562.339 1651.23 611.617 1532.5 730.507C1517.71 745.315 1504.62 761.324 1492.97 778.122C1384.08 935.103 1330.5 1117.77 1275.75 1274.67C1251.09 1345.31 1224.47 1411.73 1193.32 1473.62C1112.22 1634.89 1001.54 1781.69 782.74 1827.11C639.507 1856.85 468.651 1826.36 300.523 1767.66M2939.45 874.912C2880.27 823.368 2755.41 762.576 2610.4 703.998C2408.62 622.479 2180.23 542.178 1948.02 546.347C1794.84 549.092 1634.28 596.672 1513.62 715.391C1498.65 730.13 1485.35 746.053 1473.48 762.765C1362.81 918.597 1310.63 1102.83 1258.42 1261.87C1235.03 1333.11 1209.85 1400.44 1180.15 1463.48C1102.82 1627.8 996.216 1781.39 779.085 1831.66C634.961 1865.02 462.732 1835.28 294.844 1777.78M2932.55 883.834C2869.89 829.253 2745.5 766.9 2602.54 706.606C2399.17 620.831 2170.04 536.103 1935.79 535.949C1780.67 535.846 1617.33 581.727 1494.75 700.274C1479.58 714.945 1466.06 730.782 1453.98 747.408C1341.53 902.073 1290.76 1087.86 1241.07 1249.07C1218.92 1320.91 1195.21 1389.13 1166.97 1453.35C1093.41 1620.72 990.932 1781.16 775.414 1836.22C630.414 1873.25 456.795 1844.22 289.147 1787.94M2925.65 892.739C2859.51 835.122 2735.58 771.155 2594.66 709.197C2389.71 619.081 2159.83 529.978 1923.54 525.534C1766.48 522.583 1600.36 566.782 1475.86 685.158C1460.5 699.759 1446.78 715.511 1434.48 732.051C1320.26 885.567 1270.86 1072.88 1223.73 1236.27C1202.83 1308.71 1180.58 1377.82 1153.78 1443.21C1083.98 1613.63 985.647 1780.99 771.725 1840.77C625.867 1881.52 450.842 1853.14 283.434 1798.06M2918.75 901.644C2849.13 840.99 2725.71 775.376 2586.79 711.787C2380.31 617.279 2149.64 523.852 1911.29 515.119C1752.29 509.302 1583.39 551.855 1456.97 670.024C1441.42 684.557 1427.49 700.223 1414.97 716.678C1298.98 869.044 1250.94 1057.91 1206.36 1223.45C1186.7 1296.49 1165.92 1366.51 1140.58 1433.07C1074.56 1606.54 980.397 1780.87 768.036 1845.32C621.338 1889.84 444.888 1862.06 277.72 1808.19M2911.87 910.55C2838.78 846.875 2715.86 779.563 2578.93 714.378C2370.98 615.392 2139.45 517.71 1899.05 504.704C1738.12 496.005 1566.45 536.91 1438.1 654.908C1422.36 669.372 1408.22 684.952 1395.46 701.321C1277.71 852.554 1231 1042.94 1189.02 1210.65C1170.57 1284.29 1151.29 1355.21 1127.39 1422.93C1065.14 1599.46 975.181 1780.8 764.347 1849.86C616.825 1898.18 438.934 1871 272.007 1818.31M2904.98 919.455C2828.4 852.743 2706.05 783.715 2571.07 716.969C2361.68 613.436 2129.28 511.55 1886.8 494.306C1723.94 482.724 1549.5 521.999 1419.21 639.808C1403.28 654.204 1388.94 669.698 1375.95 685.999C1256.43 836.082 1211.05 1028 1171.67 1197.88C1154.46 1272.13 1136.65 1343.95 1114.21 1412.84C1055.74 1592.42 969.999 1780.82 760.675 1854.46C612.364 1906.62 432.997 1879.98 266.31 1828.49M2898.08 928.36C2818.02 858.611 2696.25 787.833 2563.19 719.56C2352.43 611.411 2119.1 505.373 1874.55 483.891C1709.75 469.409 1532.53 507.072 1400.31 624.675C1384.2 639.002 1369.64 654.41 1356.44 670.625C1235.15 819.576 1191.09 1013.02 1154.31 1185.08C1138.32 1259.93 1122.02 1332.64 1101.02 1402.7C1046.32 1585.32 964.852 1780.85 756.986 1859.01C607.92 1915.07 427.044 1888.9 260.58 1838.63M2891.18 937.265C2807.64 864.497 2686.47 791.917 2555.32 722.151C2343.22 609.318 2108.91 499.179 1862.3 473.476C1695.58 456.094 1515.58 492.144 1381.42 609.558C1365.12 623.817 1350.35 639.139 1336.93 655.268C1213.9 803.087 1171.1 998.04 1136.96 1172.28C1122.17 1247.71 1107.38 1321.34 1087.82 1392.58C1036.88 1578.25 959.756 1780.92 753.297 1863.57C603.493 1923.54 421.09 1897.84 254.866 1848.77M2884.3 946.187C2797.28 870.382 2676.76 796.001 2547.46 724.759C2334.09 607.173 2098.75 493.002 1850.07 463.078C1681.43 442.779 1498.89 477.508 1362.55 594.459C1346.1 608.683 1331.08 623.886 1317.44 639.929C1192.65 786.615 1151.13 983.095 1119.61 1159.5C1106.03 1235.53 1092.75 1310.06 1074.64 1382.45C1027.48 1571.18 954.695 1781.03 749.626 1868.14C599.136 1932.07 415.153 1906.78 249.17 1858.91M2877.4 955.092C2786.9 876.25 2667.05 800.05 2539.59 727.35C2324.99 604.943 2088.6 486.79 1837.82 452.663C1667.25 429.447 1481.92 462.546 1343.66 579.325C1327.02 593.481 1311.83 608.632 1297.93 624.554C1171.65 770.332 1131.11 968.116 1102.27 1146.68C1089.88 1223.31 1078.11 1298.74 1061.45 1372.31C1018.06 1564.09 949.667 1781.16 745.937 1872.69C594.778 1940.6 409.2 1915.7 243.456 1869.03M2870.51 963.998C2776.52 882.118 2657.37 804.065 2531.73 729.941C2315.99 602.661 2078.46 480.579 1825.59 442.247C1653.12 416.098 1464.95 447.601 1324.79 564.209C1307.95 578.296 1292.55 593.361 1278.43 609.198C1150.34 753.825 1111.09 953.154 1084.9 1133.88C1073.72 1211.13 1063.46 1287.45 1048.26 1362.17C1008.64 1557.01 944.692 1781.3 742.248 1877.23C590.454 1949.16 403.246 1924.62 237.743 1879.15M2863.63 972.903C2766.15 888.003 2647.73 808.08 2523.87 732.532C2307.05 600.293 2068.32 474.351 1813.35 431.832C1638.98 402.749 1447.98 432.639 1305.91 549.075C1288.89 563.093 1273.28 578.055 1258.94 593.841C1129.07 737.302 1091.06 938.191 1067.58 1121.08C1057.57 1198.93 1048.84 1276.14 1035.1 1352.05C999.253 1549.94 939.785 1781.51 738.61 1881.8C586.216 1957.77 397.344 1933.56 232.081 1889.29M2856.73 981.808C2755.79 893.872 2638.12 812.061 2515.99 735.123C2298.16 597.873 2058.24 467.71 1801.1 421.434C1624.87 389.142 1431.01 417.711 1287.02 533.976C1269.81 547.926 1253.99 562.802 1239.43 578.502C1107.76 720.813 1071.02 923.264 1050.21 1108.3C1041.39 1186.75 1034.19 1264.85 1021.88 1341.93C989.799 1542.85 934.877 1781.71 734.904 1886.36C581.943 1966.4 391.373 1942.5 226.35 1899.45M2849.83 990.713C2745.41 899.74 2628.53 816.041 2508.12 737.714C2289.34 595.385 2048.07 461.671 1788.85 411.019C1610.7 375.913 1414.02 402.749 1268.13 518.859C1250.73 532.723 1234.69 547.531 1219.92 563.145C1086.47 704.306 1050.74 908.302 1032.87 1095.5C1025.13 1174.55 1019.57 1253.56 1008.71 1331.8C980.397 1535.78 930.039 1781.93 731.233 1890.92C577.74 1975.07 385.436 1951.46 220.654 1909.59M2842.93 999.618C2735.03 905.608 2618.97 820.005 2500.26 740.305C2280.62 592.846 2037.93 455.631 1776.62 400.604C1596.55 362.684 1397.05 387.804 1249.26 503.726C1073.01 641.97 1032.59 872.355 1015.52 1082.68C1009.05 1162.35 1004.93 1242.24 995.513 1321.65C970.977 1528.68 925.235 1782.14 727.544 1895.45C573.553 1983.72 379.483 1960.36 214.94 1919.7" stroke="url(#paint1_linear_1419_9932)" stroke-width="0.5658" stroke-miterlimit="10"/>
<defs>
<linearGradient id="paint0_linear_1419_9932" x1="95.7374" y1="512.074" x2="-364.624" y2="-975.625" gradientUnits="userSpaceOnUse">
<stop offset="0.7946" stop-color="white"/>
<stop offset="1" stop-color="white"/>
</linearGradient>
<linearGradient id="paint1_linear_1419_9932" x1="893.291" y1="888.146" x2="2026.96" y2="1907.3" gradientUnits="userSpaceOnUse">
<stop stop-color="white"/>
<stop offset="1" stop-color="#2882FF"/>
</linearGradient>
</defs>
</svg>
