<svg width="1349" height="701" viewBox="0 0 1349 701" fill="none" xmlns="http://www.w3.org/2000/svg">
<path d="M1348.88 -1333.43C1348.88 -1333.43 1334.49 -649.263 834.845 -757.488C496.86 -830.684 279.771 -977.269 81.2469 -926.304C-85.598 -883.473 -190.224 -636.184 -207.405 -494.911C-231.37 -297.939 -100.131 -23.265 -140.786 171.218C-225.743 577.767 -1046.29 577.574 -1284.05 60.1173M1343.25 -1336.38C1343.25 -1336.38 1327.88 -662.184 838.632 -758.487C508.203 -823.531 293.655 -961.438 95.0264 -909.964C57.3693 -900.234 22.7976 -880.3 -8.408 -853.704C-28.0605 -836.978 -46.3632 -817.675 -63.2458 -796.672C-137.578 -704.278 -184.352 -577.592 -197.465 -491.405C-226.777 -300.446 -105.163 -33.6966 -148.851 156.841C-238.961 554.467 -1037.69 562.935 -1267.91 79.8407M1337.62 -1339.31C1337.62 -1339.31 1321.34 -675.105 842.401 -759.486C519.546 -816.378 307.54 -945.606 108.771 -893.641C71.447 -883.929 37.0507 -864.398 5.88012 -838.486C-13.7724 -822.181 -32.1452 -803.474 -49.1505 -783.172C-124.026 -693.882 -172.132 -571.386 -187.577 -487.933C-222.254 -302.988 -110.72 -44.2682 -156.985 142.413C-253.249 530.852 -1029.15 548.261 -1251.81 99.5117M1332.01 -1342.23C1332.01 -1342.23 1314.85 -688.026 846.205 -760.486C530.958 -809.242 321.443 -929.792 122.568 -877.302C85.5595 -867.606 51.356 -848.479 20.203 -823.25C0.550482 -807.384 -17.8924 -789.256 -35.0029 -769.655C-110.44 -683.468 -159.878 -565.162 -177.62 -484.427C-217.661 -305.513 -115.945 -54.77 -165.05 128.036C-266.941 507.394 -1020.56 533.622 -1235.67 119.218M1326.39 -1345.18C1326.39 -1345.18 1308.4 -700.965 849.992 -761.503C542.371 -802.125 335.31 -913.979 136.33 -860.997C99.6373 -851.319 65.6091 -832.595 34.5087 -808.05C14.8386 -792.605 -3.65681 -775.073 -20.89 -756.173C-96.8705 -673.071 -147.448 -558.903 -167.697 -480.956C-212.647 -307.932 -121.186 -65.3243 -173.131 113.625C-280.616 483.901 -1011.97 518.947 -1219.54 138.906M1320.76 -1348.11C1320.76 -1348.11 1302.02 -713.921 853.761 -762.502C553.837 -795.006 349.194 -898.147 150.092 -844.657C113.732 -834.997 79.8795 -816.676 48.7966 -792.815C29.1265 -777.79 10.5609 -760.854 -6.7775 -742.656C-83.3014 -662.657 -135.176 -552.661 -157.774 -477.449C-207.984 -310.387 -126.428 -75.8258 -181.231 99.2312C-294.29 460.408 -1003.39 504.308 -1203.41 158.595M1315.13 -1351.03C1315.13 -1351.03 1295.67 -726.895 857.548 -763.501C565.337 -787.924 363.079 -882.333 163.854 -828.335C127.81 -818.692 94.15 -800.774 63.0846 -777.615C43.4145 -763.011 24.7788 -746.671 7.31769 -729.174C-69.7672 -652.278 -122.922 -546.438 -147.886 -473.978C-203.355 -312.876 -131.688 -86.3803 -189.348 84.8198C-307.929 436.88 -994.856 489.634 -1187.31 178.283M1309.5 -1353.98C1309.5 -1353.98 1289.4 -739.921 861.317 -764.518C576.855 -780.858 376.946 -866.519 177.616 -812.012C141.887 -802.387 108.42 -784.89 77.39 -762.397C57.7025 -748.213 39.0141 -732.47 21.4478 -715.674C-56.1806 -641.882 -110.65 -540.214 -137.946 -470.489C-198.71 -315.348 -136.877 -96.9344 -197.43 70.4262C-321.516 413.37 -986.266 474.977 -1171.19 197.989M1303.89 -1356.91C1303.89 -1356.91 1283.21 -752.965 865.121 -765.518C588.443 -773.828 390.849 -850.706 191.396 -795.69C156 -786.083 122.691 -768.989 91.6954 -747.179C72.0078 -733.416 53.2319 -718.251 35.5604 -702.174C-42.6114 -631.485 -98.3783 -533.972 -128.024 -467C-194.064 -317.803 -142.066 -107.471 -205.529 56.0322C-335.085 389.842 -977.693 460.338 -1155.06 217.677M1298.27 -1359.85C1298.27 -1359.85 1277.05 -766.061 868.891 -766.535C600.032 -766.85 404.839 -834.471 205.158 -779.368C170.095 -769.69 136.961 -753.087 106.001 -731.961C86.2959 -718.637 67.4674 -704.05 49.6907 -688.675C-29.0421 -621.089 -86.1239 -527.731 -118.101 -463.511C-189.453 -320.257 -147.238 -118.026 -213.611 41.6209C-348.584 366.296 -969.12 445.663 -1138.93 237.366M1292.64 -1362.78C1292.64 -1362.78 1270.97 -779.21 872.678 -767.534C611.69 -759.89 418.741 -818.604 218.92 -763.046C184.19 -753.385 151.267 -737.116 120.289 -716.743C100.601 -703.805 81.6851 -689.849 63.7857 -675.193C-15.4906 -610.692 -73.8872 -521.489 -108.196 -460.04C-184.842 -322.712 -152.41 -128.58 -221.711 27.2272C-362.066 342.768 -960.548 431.007 -1122.82 257.054M1287.01 -1365.71C1287.01 -1365.71 1264.94 -792.412 876.447 -768.533C623.366 -752.982 432.608 -802.756 232.682 -746.706C198.268 -737.063 165.537 -721.197 134.577 -701.508C114.889 -688.99 95.903 -675.631 77.8984 -661.676C-1.92136 -600.278 -61.6503 -515.231 -98.2731 -456.533C-180.267 -325.166 -157.564 -139.134 -229.828 12.8333C-375.53 319.24 -951.992 416.35 -1106.71 276.76M1281.4 -1368.65C1281.4 -1368.65 1259 -805.718 880.251 -769.55C635.094 -746.145 446.528 -786.942 246.461 -730.401C212.381 -720.776 179.825 -705.313 148.9 -686.308C129.212 -674.211 110.191 -661.412 92.0285 -648.193C11.7704 -589.742 -49.3959 -509.007 -88.3503 -453.062C-175.674 -327.621 -162.665 -149.706 -237.91 -1.59539C-388.906 295.677 -943.42 401.676 -1090.58 296.431M1275.77 -1371.58C1275.77 -1371.58 1253.09 -819.078 884.02 -770.549C646.84 -739.36 460.395 -771.093 260.224 -714.061C226.458 -704.436 194.078 -689.394 163.188 -671.073C143.483 -659.396 124.409 -647.176 106.141 -634.676C25.3399 -579.31 -37.1766 -502.748 -78.4276 -449.556C-171.115 -330.058 -167.767 -160.243 -246.009 -15.9717C-402.247 272.167 -934.829 387.037 -1074.45 316.137M1270.15 -1374.51C1270.15 -1374.51 1247.23 -832.56 887.807 -771.531C658.621 -732.628 474.298 -755.226 273.986 -697.721C240.553 -688.114 208.348 -673.475 177.493 -655.837C157.788 -644.582 138.627 -632.958 120.254 -621.159C38.909 -568.879 -24.9574 -496.489 -68.5051 -446.049C-166.575 -332.495 -172.834 -170.779 -254.091 -30.3479C-415.554 248.674 -926.256 372.397 -1058.32 335.861M1264.52 -1377.45C1264.52 -1377.45 1241.41 -846.165 891.576 -772.548C670.42 -726 488.165 -739.412 287.747 -681.416C254.631 -671.826 222.619 -657.591 191.781 -640.637C172.076 -629.802 152.844 -618.775 134.367 -607.677C52.4605 -558.5 -12.7382 -490.265 -58.5824 -442.578C-162.034 -334.984 -177.883 -181.333 -262.19 -44.7767C-428.807 225.146 -917.684 357.723 -1042.21 355.514M1258.89 -1380.38C1258.89 -1380.38 1235.61 -859.892 895.363 -773.547C682.236 -719.461 502.049 -723.581 301.509 -665.077C268.709 -655.504 236.889 -641.671 206.069 -625.402C186.347 -614.988 167.062 -604.556 148.462 -594.16C65.9947 -548.068 -0.553859 -484.024 -48.6947 -439.072C-157.564 -337.439 -182.949 -191.853 -270.325 -59.153C-442.061 201.688 -909.164 343.084 -1026.13 375.237M1253.28 -1383.31C1253.28 -1383.31 1229.84 -873.76 899.167 -774.547C694.069 -713.027 515.952 -707.767 315.307 -648.755C282.839 -639.2 251.177 -625.77 220.41 -610.184C200.687 -600.191 181.333 -590.355 162.627 -580.66C79.6164 -537.672 11.7004 -477.8 -38.7195 -435.6C-153.006 -339.946 -187.893 -202.39 -278.354 -73.5644C-455.157 178.213 -900.521 328.409 -1009.93 394.908M1247.65 -1386.26C1247.65 -1386.26 1224.04 -887.786 902.937 -775.563C705.868 -706.68 529.819 -691.953 329.051 -632.432C296.899 -622.895 265.43 -609.868 234.68 -594.966C214.94 -585.394 195.533 -576.137 176.705 -567.16C93.1332 -527.258 23.8671 -471.576 -28.8318 -432.111C-148.535 -342.453 -192.907 -212.891 -286.489 -87.9757C-468.305 154.755 -891.983 313.753 -993.857 414.597M1242.03 -1389.18C1242.03 -1389.18 1218.22 -901.969 906.723 -776.563C717.666 -700.439 543.704 -676.14 342.831 -616.11C310.994 -606.59 279.701 -593.967 249.003 -579.748C229.263 -570.614 209.786 -561.936 190.852 -553.661C106.72 -516.861 36.0865 -465.37 -18.8915 -428.623C-144.047 -344.977 -197.851 -223.393 -294.57 -102.369C-481.348 131.367 -883.41 299.096 -977.711 434.303M1236.4 -1392.13C1236.4 -1392.13 1212.31 -916.345 910.492 -777.58C729.395 -694.32 557.571 -660.343 356.575 -599.788C325.071 -590.303 293.953 -578.083 263.274 -564.531C243.516 -555.817 223.969 -547.735 204.947 -540.161C120.254 -506.465 48.2705 -459.163 -8.98656 -425.134C-139.577 -347.519 -202.812 -233.859 -302.67 -116.763C-494.392 108.015 -874.837 284.439 -961.6 453.991M1230.79 -1395.06C1230.79 -1395.06 1206.35 -930.862 914.297 -778.579C741.106 -688.272 571.473 -644.547 370.372 -583.465C339.184 -573.998 308.259 -562.181 277.597 -549.313C257.839 -541.02 238.222 -533.534 219.078 -526.661C133.841 -496.068 60.4724 -452.957 0.953842 -421.645C-135.071 -350.062 -207.703 -244.309 -310.752 -131.174C-507.365 84.6796 -866.247 269.765 -945.471 473.68M1225.16 -1397.98C1225.16 -1397.98 1200.25 -945.536 918.066 -779.578C752.729 -682.328 585.34 -628.75 384.117 -567.125C353.244 -557.676 322.494 -546.262 291.885 -534.078C272.109 -526.206 252.439 -519.316 233.19 -513.144C147.392 -485.672 72.6565 -446.751 10.8588 -418.139C-130.618 -352.621 -212.612 -254.705 -318.851 -145.551C-520.321 61.4145 -857.692 255.126 -929.36 493.386M1219.53 -1400.93C1219.53 -1400.93 1193.99 -960.386 921.853 -780.595C764.264 -676.472 599.225 -612.972 397.896 -550.821C367.357 -541.388 336.782 -530.396 306.19 -518.877C286.415 -511.444 266.675 -505.132 247.303 -499.662C160.944 -475.293 84.8584 -440.597 20.7817 -414.667C-126.13 -355.234 -217.486 -265.119 -326.951 -159.962C-533.241 38.2021 -849.119 240.469 -913.231 513.074M1213.91 -1403.86C1213.91 -1403.86 1187.54 -975.358 925.622 -781.594C775.695 -670.669 613.075 -597.175 411.641 -534.481C381.417 -525.084 351.018 -514.477 320.478 -503.659C300.685 -496.647 280.875 -490.966 261.415 -486.163C174.46 -465.072 97.06 -434.408 30.7042 -411.178C-121.642 -357.828 -222.342 -275.48 -335.05 -174.373C-546.144 15.0249 -840.546 225.795 -897.12 532.762M1208.28 -1406.79C1208.28 -1406.79 1180.89 -990.436 929.409 -782.594C787.02 -664.919 626.837 -581.764 425.421 -518.158C395.495 -508.831 365.288 -498.645 334.784 -488.442C314.974 -481.902 295.111 -476.765 275.528 -472.663C188.012 -454.675 109.244 -428.237 40.627 -407.689C-117.137 -360.44 -227.198 -285.807 -343.132 -188.767C-559.012 -8.06448 -831.973 211.156 -880.973 552.451M1202.67 -1409.73C1202.67 -1409.73 1174.06 -1005.6 933.195 -783.611C798.24 -659.221 640.722 -565.951 439.182 -501.836C409.59 -492.527 379.541 -482.744 349.072 -473.224C329.261 -467.105 309.328 -462.565 289.641 -459.181C201.581 -444.296 121.446 -422.083 50.5322 -404.218C-112.649 -363.088 -232.054 -296.133 -351.249 -203.178C-571.897 -31.1369 -823.418 196.481 -864.88 572.14M1197.04 -1412.66C1197.04 -1412.66 1166.96 -1020.78 936.982 -784.592C809.32 -653.488 654.606 -550.102 452.962 -485.496C423.685 -476.205 393.829 -466.825 363.395 -457.989C343.567 -452.291 323.581 -448.346 303.771 -445.664C215.168 -433.882 133.665 -415.912 60.4722 -400.712C-108.126 -365.718 -236.875 -306.372 -359.313 -217.572C-584.713 -54.1039 -814.81 181.824 -848.733 591.828M1191.41 -1415.6C1191.41 -1415.6 1159.65 -1036 940.752 -785.609C820.277 -647.79 668.474 -534.305 466.706 -469.174C437.762 -459.9 408.082 -450.923 377.665 -442.771C357.837 -437.494 337.782 -434.145 317.866 -432.164C228.702 -423.468 145.867 -409.758 70.3775 -397.223C-103.62 -368.347 -241.714 -316.593 -367.43 -231.966C-597.598 -77.018 -806.255 167.185 -832.622 611.534M1185.79 -1418.53C1185.79 -1418.53 1152.09 -1051.18 944.538 -786.609C831.111 -642.022 682.376 -518.474 480.486 -452.852C451.858 -443.595 422.37 -435.022 391.988 -427.553C372.143 -422.697 352.034 -419.927 331.996 -418.664C242.289 -413.072 158.086 -403.71 80.3001 -393.734C-99.1147 -371.258 -246.552 -326.779 -375.53 -246.36C-610.449 -99.8798 -797.682 152.528 -816.493 631.222M1180.18 -1421.46C1180.18 -1421.46 1144.34 -1066.3 948.325 -787.608C841.858 -636.219 696.261 -502.643 494.248 -436.529C465.935 -427.29 436.623 -419.12 406.276 -412.335C386.431 -407.917 366.235 -405.726 346.109 -405.165C255.858 -402.675 170.306 -397.503 90.2229 -390.245C-94.5564 -373.782 -251.391 -336.93 -383.612 -260.771C-623.334 -122.671 -789.109 137.854 -800.382 650.911M1174.55 -1424.41C1174.55 -1424.41 1074.95 -529.028 420.582 -397.117C400.736 -393.12 380.47 -391.525 360.222 -391.665C-318.395 -396.223 -777.591 -311.509 -784.271 670.617M1163.33 -1421.81C1164.64 -1417.29 1147.57 -1259.08 1082.05 -1066.49C1017.03 -875.356 905.654 -650.981 712.565 -506.657C633.516 -447.224 540.478 -401.15 431.381 -376.78C411.624 -372.327 391.462 -370.258 371.249 -369.89C338.764 -369.312 306.681 -368.628 275.037 -367.786C70.9737 -362.649 -112.456 -350.903 -266.643 -304.18C-333.279 -283.738 -394.569 -256.686 -450.002 -220.868C-585.589 -133.664 -686.762 4.96177 -744.808 228.565C-776.434 350.377 -793.895 497.576 -796.087 671.581M1152.11 -1419.23C1154.76 -1410.17 1138.35 -1252.71 1076.67 -1061.46C1014.31 -868.062 907.951 -641.97 719.683 -493.07C642.177 -431.761 550.471 -383.075 442.163 -356.478C422.51 -351.587 402.42 -349.027 382.259 -348.151C349.878 -346.783 317.779 -345.398 286.03 -343.996C81.9658 -335.563 -103.164 -326.744 -258.842 -283.528C-325.881 -264.926 -387.504 -239.452 -443.761 -205.791C-581.399 -123.408 -686.885 8.41522 -750.313 228.757C-785.27 350.184 -804.73 498.645 -807.955 672.51M1140.91 -1416.66C1144.87 -1403.07 1129.19 -1246.3 1071.31 -1056.43C1011.65 -860.734 910.457 -632.642 726.818 -479.465C650.925 -416.157 560.446 -365.227 452.962 -336.159C433.397 -330.864 413.394 -327.761 393.286 -326.393C360.993 -324.219 328.911 -322.08 297.039 -320.169C93.028 -307.95 -93.785 -302.269 -251.023 -262.857C-318.413 -245.974 -380.491 -222.253 -437.503 -190.678C-577.314 -113.257 -687.095 11.9218 -755.8 229.003C-794.123 350.079 -815.564 499.75 -819.789 673.492M1129.69 -1414.06C1134.98 -1395.95 1120.1 -1239.83 1065.92 -1051.38C1009 -853.353 912.965 -623.28 733.935 -465.86C659.656 -400.554 570.421 -347.186 463.744 -315.839C444.284 -310.124 424.351 -306.512 404.278 -304.636C372.073 -301.673 339.991 -298.815 308.014 -296.361C104.02 -280.705 -84.4058 -277.795 -243.221 -242.205C-310.962 -227.022 -373.479 -205.089 -431.262 -175.6C-573.265 -103.141 -687.411 15.4283 -761.305 229.196C-803.029 349.921 -826.398 500.819 -831.64 674.421M1118.47 -1411.48C1125.08 -1388.85 1111.07 -1233.34 1060.54 -1046.35C1006.41 -845.937 915.472 -613.901 741.036 -452.256C668.386 -384.933 580.379 -329.163 474.508 -295.52C455.136 -289.366 435.308 -285.263 415.27 -282.861C383.17 -279.11 351.07 -275.533 318.988 -272.535C115.03 -253.443 -75.0266 -253.285 -235.438 -221.535C-303.511 -208.052 -366.519 -187.891 -425.055 -160.488C-569.25 -93.0073 -687.849 18.9521 -766.827 229.424C-812.005 349.816 -837.25 501.924 -843.526 675.403M1107.26 -1408.91C1115.2 -1381.73 1102.13 -1226.8 1055.18 -1041.31C1003.85 -838.486 918.014 -604.504 748.171 -438.651C677.152 -369.294 590.372 -311.123 485.307 -275.2C466.041 -268.608 446.283 -264.015 426.297 -261.104C394.285 -256.546 362.185 -252.268 329.998 -248.727C126.074 -226.233 -65.5949 -228.775 -227.601 -200.864C-296.026 -189.083 -359.489 -170.709 -418.779 -145.393C-565.183 -82.8914 -688.322 22.4935 -772.297 229.634C-820.981 349.693 -848.067 503.011 -855.343 676.35M1096.04 -1406.31C1105.3 -1374.61 1093.22 -1220.21 1049.8 -1036.26C1001.34 -830.982 920.538 -595.054 755.288 -425.046C685.882 -353.656 600.365 -293.065 496.089 -254.88C476.91 -247.85 457.24 -242.766 437.307 -239.347C405.382 -234 373.282 -229.021 340.972 -224.901C137.101 -199.006 -56.1806 -204.248 -219.817 -180.194C-288.557 -170.096 -352.511 -153.528 -412.556 -130.298C-561.186 -72.7755 -688.936 25.9999 -777.819 229.862C-830.045 349.606 -858.919 504.098 -867.229 677.314M1084.82 -1403.74C1095.41 -1367.51 1084.4 -1213.62 1044.43 -1031.23C998.885 -823.461 923.098 -585.586 762.424 -411.441C694.665 -337.999 610.358 -275.007 506.906 -234.561C487.832 -227.092 468.232 -221.499 448.351 -217.59C416.532 -211.453 384.432 -205.755 352 -201.092C148.164 -171.796 -46.7137 -179.703 -211.981 -159.541C-281.054 -151.108 -345.499 -136.364 -406.28 -115.203C-557.136 -62.6942 -689.567 29.5242 -783.289 230.073C-839.091 349.501 -869.736 505.185 -879.045 678.261M1073.62 -1401.16C1085.52 -1360.41 1075.65 -1206.99 1039.07 -1026.2C996.501 -815.922 925.674 -576.102 769.559 -397.836C703.431 -322.326 620.35 -256.949 517.705 -214.241C498.719 -206.334 479.224 -200.25 459.361 -195.832C427.629 -188.89 395.53 -182.491 362.992 -177.284C159.191 -144.621 -37.2643 -155.141 -204.162 -138.888C-273.55 -132.121 -338.504 -119.2 -400.021 -100.125C-553.121 -52.6134 -690.321 32.9954 -788.759 230.266C-848.19 349.36 -880.535 506.254 -890.878 679.208M1062.4 -1398.56C1075.64 -1353.28 1066.98 -1200.31 1033.68 -1021.15C994.134 -808.313 928.252 -566.582 776.676 -384.231C712.196 -306.652 630.343 -238.891 528.486 -193.922C509.588 -185.576 490.181 -179.002 470.371 -174.075C438.744 -166.344 406.627 -159.243 373.984 -153.475C170.218 -117.447 -27.7975 -130.561 -196.36 -118.236C-266.082 -113.134 -331.544 -102.054 -393.78 -85.0303C-549.142 -42.5503 -691.18 36.484 -794.281 230.476C-857.394 349.237 -891.404 507.341 -902.747 680.154M1051.18 -1395.99C1065.73 -1346.18 1058.35 -1193.63 1028.3 -1016.12C991.838 -800.722 930.829 -557.062 783.794 -370.627C720.962 -290.961 640.319 -220.816 539.268 -173.602C520.475 -164.818 501.155 -157.7 481.38 -152.318C449.859 -143.727 417.742 -135.996 384.976 -129.649C181.263 -90.2723 -18.3481 -105.946 -188.541 -97.5481C-258.579 -94.0942 -324.549 -84.8724 -387.539 -69.9176C-545.162 -32.4693 -692.109 39.9554 -799.768 230.721C-866.598 349.15 -902.221 508.446 -914.581 681.136M1039.98 -1393.41C1055.86 -1339.08 1049.8 -1186.93 1022.94 -1011.09C989.628 -793.078 933.458 -547.507 790.912 -357.039C729.745 -275.287 650.311 -202.74 550.05 -153.3C531.344 -144.078 512.112 -136.469 492.39 -130.578C460.974 -121.181 428.839 -112.748 395.968 -105.858C192.29 -63.1327 -8.88132 -81.331 -180.74 -76.9129C-251.093 -75.1071 -317.589 -67.7611 -381.298 -54.8576C-541.183 -22.4759 -693.126 43.3391 -805.273 230.897C-875.872 348.957 -913.055 509.498 -926.449 682.065M1028.76 -1390.81C1045.96 -1331.96 1041.31 -1180.18 1017.56 -1006.04C987.472 -785.416 936.088 -537.934 798.029 -343.417C738.528 -259.579 660.286 -184.647 560.832 -132.963C542.231 -123.302 523.069 -115.203 503.399 -108.804C472.071 -98.6175 439.936 -89.4833 406.96 -82.0322C203.317 -35.9932 0.585487 -56.6809 -172.921 -56.2426C-243.59 -56.0672 -310.612 -50.5973 -375.039 -39.745C-537.203 -12.4126 -694.178 46.7579 -810.743 231.124C-885.146 348.799 -923.872 510.602 -938.265 683.029M1017.54 -1388.24C1036.07 -1324.84 1032.88 -1173.45 1012.17 -1001.01C985.386 -777.755 938.735 -528.345 805.147 -329.812C747.312 -243.87 670.279 -166.537 571.613 -112.643C553.118 -102.527 534.044 -93.9541 514.391 -87.0465C483.168 -76.0714 451.016 -66.2359 417.934 -58.2238C214.327 -8.87122 10.0348 -32.0136 -165.137 -35.5901C-236.121 -37.0277 -303.669 -33.4686 -368.815 -24.6676C-533.259 -2.41946 -695.352 50.0889 -816.266 231.317C-894.507 348.589 -934.724 511.654 -950.152 683.959M1006.34 -1385.66C1026.18 -1317.74 1024.52 -1166.72 1006.81 -995.976C983.387 -770.076 941.417 -518.755 812.282 -316.225C756.13 -228.162 680.29 -148.461 582.413 -92.3411C564.005 -81.7869 545.018 -72.7053 525.418 -65.3068C494.283 -53.5253 462.148 -43.006 428.944 -34.4153C225.354 18.2508 19.5017 -7.32838 -157.318 -14.9197C-228.618 -17.9878 -296.674 -16.3399 -362.557 -9.55499C-529.279 7.59131 -696.545 53.42 -821.753 231.563C-903.887 348.414 -945.558 512.776 -961.985 684.941M995.116 -1383.07C1016.29 -1310.62 1016.21 -1159.95 1001.43 -990.944C981.441 -762.379 944.117 -509.147 819.4 -302.62C764.948 -212.453 690.282 -130.35 593.194 -72.0215C574.892 -61.0289 555.975 -51.4564 536.428 -43.5319C505.38 -30.9615 473.246 -19.7411 439.936 -10.5894C236.381 45.3728 28.9687 17.3918 -149.499 5.75051C-221.115 1.08699 -289.697 0.788988 -356.316 5.54016C-525.299 17.5847 -697.807 56.6985 -827.258 231.773C-913.319 348.168 -956.393 513.863 -973.854 685.905M983.896 -1380.49C1006.39 -1303.52 1007.97 -1153.19 996.045 -985.912C979.583 -754.7 946.817 -499.522 826.518 -289.015C773.766 -196.726 700.293 -112.24 603.994 -51.7016C585.779 -40.2532 566.968 -30.2074 547.455 -21.7745C516.513 -8.41515 484.36 3.48907 450.928 13.2193C247.408 72.46 38.4354 42.1122 -141.698 26.4035C-213.629 20.1271 -282.737 17.9004 -350.075 20.6354C-521.337 27.543 -699.122 59.9246 -832.762 231.984C-922.785 347.888 -967.245 514.95 -985.705 686.852M972.693 -1377.91C996.518 -1296.4 999.779 -1146.44 990.698 -980.881C977.847 -746.986 949.587 -489.897 833.671 -275.428C782.637 -181.018 710.321 -94.1469 614.81 -31.3999C596.701 -19.5132 577.942 -9.01142 558.5 -0.035034C527.628 14.0607 495.493 26.7188 461.955 37.0101C258.453 99.5292 47.9199 66.832 -133.844 47.0383C-206.09 39.1665 -275.724 34.9939 -343.781 35.6952C-517.323 37.4659 -700.419 63.0626 -838.197 232.159C-932.217 347.537 -978.009 515.985 -997.504 687.763M961.473 -1375.33C986.613 -1289.3 991.645 -1139.69 985.316 -975.849C976.165 -739.29 952.339 -480.254 840.788 -261.823C791.473 -165.274 720.331 -76.0363 625.592 -11.0803C607.587 1.26228 588.899 12.2373 569.492 21.7221C538.707 36.6068 506.572 49.9486 472.93 60.836C269.445 126.616 57.3517 91.6046 -126.06 67.726C-198.64 58.2763 -268.782 52.1402 -337.557 50.8077C-513.361 47.4416 -701.839 66.2184 -843.719 232.404C-941.754 347.221 -988.878 517.106 -1009.37 688.745M950.254 -1372.74C976.726 -1282.19 983.563 -1132.92 979.934 -970.8C974.569 -731.593 955.127 -470.594 847.889 -248.218C800.309 -149.548 730.324 -57.9083 636.356 9.23927C618.457 22.0376 599.839 33.4862 580.484 43.4794C549.805 59.1705 517.652 73.1961 483.905 84.6445C280.42 153.686 66.7838 116.377 -118.259 88.3788C-191.153 77.3512 -261.804 69.2339 -331.316 65.9028C-509.398 57.3647 -703.259 69.304 -849.224 232.615C-951.309 346.836 -999.712 518.193 -1021.22 689.709M939.051 -1370.16C966.838 -1275.09 975.551 -1126.17 974.569 -965.768C973.079 -723.914 957.95 -460.952 855.024 -234.613C809.197 -133.822 740.369 -39.7802 647.156 29.5589C629.362 42.7956 610.831 54.7523 591.512 65.2365C560.92 81.7165 528.767 96.426 494.914 108.453C291.447 180.737 76.233 141.167 -110.44 109.031C-183.668 96.4258 -254.827 86.3274 -325.075 80.9802C-505.419 67.2702 -704.714 72.3194 -854.729 232.807C-960.898 346.397 -1010.55 519.263 -1033.09 690.638M927.831 -1367.58C956.95 -1267.97 967.574 -1119.44 969.187 -960.736C971.677 -716.235 960.755 -451.309 862.141 -221.008C818.068 -118.078 750.38 -21.652 657.937 49.8786C640.231 63.5711 621.788 76.0014 602.521 86.9939C572.017 104.263 539.865 119.674 505.906 132.262C302.439 207.772 85.6648 165.976 -102.638 129.684C-176.182 115.518 -247.85 103.404 -318.834 96.0755C-501.422 77.1936 -706.204 75.3 -860.216 233.018C-970.488 345.942 -1021.38 520.332 -1044.93 691.585M916.611 -1364.99C947.045 -1260.85 959.633 -1112.7 963.805 -955.687C970.362 -708.574 963.612 -441.649 869.259 -207.404C826.938 -102.334 760.408 -3.52392 668.719 70.1982C651.118 84.3465 632.745 97.25 613.531 108.751C583.131 126.826 550.962 142.903 516.898 156.087C313.431 234.841 95.0791 190.818 -94.8194 150.372C-168.696 134.628 -240.855 120.532 -312.575 111.188C-497.425 87.1165 -707.694 78.2453 -865.704 233.263C-980.095 345.468 -1032.2 521.454 -1056.78 692.567M905.408 -1362.41C937.175 -1253.75 951.779 -1105.99 958.441 -950.656C969.17 -700.947 966.487 -432.006 876.394 -193.799C835.844 -86.608 770.453 14.6217 679.518 90.5178C662.022 105.122 643.719 118.499 624.54 130.508C594.229 149.373 562.059 166.133 527.891 179.896C324.405 261.858 104.493 215.644 -87.0181 171.025C-161.245 153.738 -233.877 137.609 -306.334 126.266C-493.41 96.9872 -709.202 81.1207 -871.208 233.456C-989.737 344.907 -1043.05 522.524 -1068.63 693.514M894.189 -1359.84C927.27 -1246.65 943.925 -1099.31 953.058 -945.624C968.048 -693.338 969.363 -422.364 883.512 -180.194C844.75 -70.8645 780.498 32.7496 690.317 110.837C672.926 125.88 654.712 139.765 635.567 152.265C605.344 171.936 573.156 189.363 538.9 203.704C335.415 288.892 113.908 240.486 -79.1815 191.677C-153.742 172.83 -226.865 154.685 -300.058 141.36C-489.378 106.875 -710.71 83.9606 -876.678 233.666C-999.362 344.328 -1053.85 523.611 -1080.46 694.46M882.968 -1357.24C917.382 -1239.51 936.123 -1092.63 947.676 -940.575C967.048 -685.747 972.255 -412.703 890.63 -166.589C853.656 -55.1381 790.526 50.8955 701.099 131.157C683.831 146.655 665.669 161.014 646.577 174.023C616.458 194.483 584.254 212.593 549.892 227.513C346.39 315.909 123.304 265.347 -71.3801 212.33C-146.291 191.923 -219.887 171.761 -293.834 156.438C-485.381 116.746 -712.253 86.7309 -882.183 233.859C-1009.02 343.697 -1064.7 524.663 -1092.31 695.39M871.748 -1354.66C907.477 -1232.41 928.357 -1085.99 942.294 -935.543C966.137 -678.208 975.183 -403.061 897.73 -152.984C862.562 -39.3943 800.554 69.0411 711.863 151.477C694.7 167.431 676.608 182.263 657.569 195.798C627.538 217.046 595.333 235.841 560.867 251.356C357.329 342.961 132.666 290.26 -63.5962 233.018C-138.84 211.068 -212.927 188.872 -287.611 171.568C-481.366 126.634 -713.795 89.501 -887.688 234.105C-1018.72 343.066 -1075.54 525.785 -1104.16 696.371M860.546 -1352.09C897.607 -1225.31 920.643 -1079.36 936.947 -930.511C965.365 -670.722 978.146 -393.436 904.882 -139.397C871.52 -23.6857 810.792 87.3269 722.68 171.779C705.657 188.224 687.6 203.494 668.614 217.537C638.688 239.592 606.43 258.983 571.876 275.147C368.146 369.575 142.063 315.12 -55.7598 253.671C-131.355 230.178 -205.898 205.948 -281.334 186.646C-477.316 136.504 -715.321 92.1833 -893.175 234.315C-1028.38 342.365 -1086.35 526.872 -1116.01 697.335M849.326 -1349.49C887.702 -1218.19 912.964 -1072.75 931.565 -925.462C964.682 -663.253 981.091 -383.793 912 -125.775C880.444 -7.94203 820.785 105.437 733.462 192.116C716.527 208.999 698.575 224.778 679.606 239.312C649.768 262.156 617.51 282.248 582.851 298.973C379.138 396.714 151.407 340.033 -47.976 274.341C-123.939 249.305 -198.903 222.937 -275.111 201.758C-473.232 146.112 -716.881 94.8656 -898.697 234.543C-1038.11 341.646 -1097.22 527.976 -1127.88 698.3M838.106 -1346.91C877.814 -1211.08 905.303 -1066.19 926.183 -920.43C964.086 -655.837 984.317 -374.116 919.118 -112.17C889.508 7.81907 830.795 123.53 744.244 212.435C727.414 229.757 709.532 246.027 690.616 261.069C660.865 284.702 628.607 305.495 593.843 322.782C390.13 423.836 160.681 365.139 -40.1571 294.993C-116.506 268.52 -191.908 240.048 -268.852 216.836C-469.199 156.087 -718.389 97.4602 -904.167 234.753C-1047.77 340.875 -1108.02 529.046 -1139.72 699.247M826.904 -1344.34C867.927 -1203.98 897.677 -1059.67 920.818 -915.399C963.612 -648.491 987.051 -364.578 926.253 -98.5822C884.353 84.7149 775.677 259.071 604.853 346.573C401.157 450.924 170.113 389.824 -32.3382 315.629C-109.02 287.525 -184.913 257.16 -262.611 231.896C-465.185 166.046 -719.914 100.003 -909.672 234.929C-1057.48 340.016 -1118.87 530.098 -1151.57 700.176" stroke="url(#paint0_linear_1419_9933)" stroke-width="0.25" stroke-miterlimit="10"/>
<defs>
<linearGradient id="paint0_linear_1419_9933" x1="95.7374" y1="512.074" x2="-364.624" y2="-975.625" gradientUnits="userSpaceOnUse">
<stop offset="0.7946" stop-color="white"/>
<stop offset="1" stop-color="white"/>
</linearGradient>
</defs>
</svg>
