<svg width="1224" height="400" viewBox="0 0 1224 400" fill="none" xmlns="http://www.w3.org/2000/svg">
<path d="M1222.89 -760.683C1222.89 -760.683 1214.68 -370.385 929.68 -432.124C736.89 -473.88 613.06 -557.502 499.82 -528.428C404.65 -503.995 344.97 -362.924 335.17 -282.332C321.5 -169.965 396.36 -13.2719 373.17 97.6745C324.71 329.599 -143.34 329.489 -278.96 34.2951M1219.68 -762.363C1219.68 -762.363 1210.91 -377.756 931.84 -432.694C743.36 -469.8 620.98 -548.471 507.68 -519.107C486.2 -513.556 466.48 -502.184 448.68 -487.012C437.47 -477.471 427.03 -466.459 417.4 -454.477C375 -401.769 348.32 -329.499 340.84 -280.332C324.12 -171.395 393.49 -19.2229 368.57 89.4732C317.17 316.307 -138.43 321.138 -269.75 45.5468M1216.47 -764.033C1216.47 -764.033 1207.18 -385.127 933.99 -433.264C749.83 -465.719 628.9 -539.44 515.52 -509.795C494.23 -504.255 474.61 -493.113 456.83 -478.331C445.62 -469.029 435.14 -458.358 425.44 -446.776C382.73 -395.839 355.29 -325.958 346.48 -278.351C326.7 -172.846 390.32 -25.2536 363.93 81.2421C309.02 302.835 -133.56 312.766 -260.57 56.7684M1213.27 -765.703C1213.27 -765.703 1203.48 -392.498 936.16 -433.834C756.34 -461.648 636.83 -530.419 523.39 -500.474C502.28 -494.943 482.77 -484.032 465 -469.64C453.79 -460.588 443.27 -450.247 433.51 -439.065C390.48 -389.898 362.28 -322.408 352.16 -276.351C329.32 -174.286 387.34 -31.2446 359.33 73.0408C301.21 289.453 -128.66 304.415 -251.36 68.0101M1210.06 -767.384C1210.06 -767.384 1199.8 -399.879 938.32 -434.414C762.85 -457.588 644.74 -521.397 531.24 -491.173C510.31 -485.652 490.9 -474.97 473.16 -460.968C461.94 -452.157 451.39 -442.155 441.56 -431.374C398.22 -383.967 369.37 -318.837 357.82 -274.371C332.18 -175.666 384.35 -37.2655 354.72 64.8196C293.41 276.051 -123.76 296.044 -242.16 79.2417M1206.85 -769.054C1206.85 -769.054 1196.16 -407.27 940.47 -434.984C769.39 -453.527 652.66 -512.366 539.09 -481.851C518.35 -476.34 499.04 -465.889 481.31 -452.277C470.09 -443.706 459.5 -434.044 449.61 -423.663C405.96 -378.026 376.37 -315.277 363.48 -272.37C334.84 -177.066 381.36 -43.2563 350.1 56.6085C285.61 262.649 -118.87 287.693 -232.96 90.4734M1203.64 -770.724C1203.64 -770.724 1192.54 -414.671 942.63 -435.555C775.95 -449.487 660.58 -503.345 546.94 -472.54C526.38 -467.039 507.18 -456.818 489.46 -443.606C478.24 -435.274 467.61 -425.953 457.65 -415.972C413.68 -372.105 383.36 -311.726 369.12 -270.39C337.48 -178.486 378.36 -49.2773 345.47 48.3871C277.83 249.227 -114 279.321 -223.78 101.705M1200.43 -772.404C1200.43 -772.404 1188.96 -422.102 944.78 -436.134C782.52 -445.456 668.49 -494.323 554.79 -463.229C534.41 -457.738 515.32 -447.756 497.62 -434.924C486.39 -426.833 475.73 -417.852 465.71 -408.27C421.43 -366.174 390.36 -308.176 374.79 -268.4C340.13 -179.897 375.4 -55.2981 340.86 40.176C270.08 235.815 -109.1 270.96 -214.58 112.947M1197.23 -774.075C1197.23 -774.075 1185.43 -429.544 946.95 -436.705C789.13 -441.445 676.42 -485.302 562.65 -453.917C542.46 -448.436 523.46 -438.685 505.78 -426.243C494.55 -418.392 483.84 -409.741 473.76 -400.569C429.17 -360.243 397.36 -304.615 380.45 -266.409C342.78 -181.297 372.44 -61.3091 336.24 31.9647C262.34 222.393 -104.21 262.609 -205.38 124.178M1194.02 -775.755C1194.02 -775.755 1181.92 -437.015 949.1 -437.285C795.74 -437.465 684.4 -476.041 570.5 -444.606C550.5 -439.085 531.6 -429.614 513.94 -417.562C502.7 -409.961 491.96 -401.639 481.82 -392.868C436.91 -354.312 404.35 -301.055 386.11 -264.419C345.41 -182.697 369.49 -67.33 331.63 23.7435C254.64 208.961 -99.3199 254.238 -196.18 135.41M1190.81 -777.425C1190.81 -777.425 1178.45 -444.516 951.26 -437.855C802.39 -433.494 692.33 -466.989 578.35 -435.294C558.54 -429.784 539.76 -420.502 522.09 -408.88C510.86 -401.499 500.07 -393.538 489.86 -385.177C444.64 -348.382 411.33 -297.494 391.76 -262.439C348.04 -184.097 366.54 -73.3508 327.01 15.5323C246.95 195.539 -94.43 245.876 -186.99 146.642M1187.6 -779.095C1187.6 -779.095 1175.01 -452.047 953.41 -438.425C809.05 -429.554 700.24 -457.948 586.2 -425.973C566.57 -420.472 547.9 -411.421 530.24 -400.189C519.01 -393.048 508.18 -385.427 497.91 -377.466C452.38 -342.441 418.31 -293.923 397.42 -260.439C350.65 -185.497 363.6 -79.3718 322.38 7.32104C239.27 182.117 -89.5499 237.515 -177.8 157.883M1184.4 -780.776C1184.4 -780.776 1171.62 -459.638 955.58 -439.005C815.74 -425.653 708.18 -448.926 594.06 -416.672C574.62 -411.181 556.05 -402.359 538.41 -391.518C527.18 -384.617 516.33 -377.316 505.97 -369.775C460.19 -336.43 425.3 -290.373 403.08 -258.458C353.27 -186.898 360.69 -85.4026 317.77 -0.910095C231.64 168.675 -84.66 229.144 -168.6 169.105M1181.19 -782.446C1181.19 -782.446 1168.25 -467.259 957.73 -439.575C822.44 -421.782 716.09 -439.885 601.91 -407.35C582.65 -401.859 564.18 -393.278 546.56 -382.827C535.32 -376.166 524.44 -369.195 514.02 -362.064C467.93 -330.479 432.27 -286.802 408.74 -256.458C355.87 -188.288 357.78 -91.4135 313.15 -9.11133C224.03 155.263 -79.7599 220.793 -159.4 180.347M1177.98 -784.116C1177.98 -784.116 1164.91 -474.95 959.89 -440.135C829.16 -417.942 724.02 -430.834 609.76 -398.029C590.69 -392.548 572.32 -384.197 554.72 -374.135C543.48 -367.714 532.55 -361.083 522.07 -354.352C475.67 -324.528 439.24 -283.232 414.4 -254.458C358.46 -189.678 354.89 -97.4244 308.54 -17.3126C216.44 141.861 -74.8699 212.441 -150.2 191.598M1174.77 -785.796C1174.77 -785.796 1161.59 -482.711 962.04 -440.715C835.89 -414.161 731.93 -421.812 617.61 -388.728C598.72 -383.257 580.46 -375.136 562.87 -365.464C551.63 -359.283 540.66 -352.992 530.12 -346.661C483.4 -318.607 446.21 -279.681 420.06 -252.477C361.05 -191.098 352.01 -103.445 303.92 -25.5437C208.88 128.439 -69.98 204.07 -141.01 202.81M1171.56 -787.467C1171.56 -787.467 1158.28 -490.543 964.2 -441.285C842.63 -410.431 739.85 -412.781 625.46 -379.406C606.75 -373.945 588.6 -366.054 571.02 -356.773C559.77 -350.832 548.77 -344.881 538.16 -338.95C491.12 -312.656 453.16 -276.121 425.7 -250.477C363.6 -192.498 349.12 -109.446 299.28 -33.745C201.32 115.057 -65.12 195.719 -131.84 214.062M1168.36 -789.137C1168.36 -789.137 1154.99 -498.454 966.37 -441.855C849.38 -406.76 747.78 -403.76 633.33 -370.095C614.81 -364.644 596.75 -356.983 579.2 -348.092C567.95 -342.391 556.91 -336.78 546.24 -331.249C498.89 -306.725 460.15 -272.57 431.39 -248.497C366.2 -193.929 346.3 -115.457 294.7 -41.9662C193.85 101.665 -60.19 187.348 -122.6 225.283M1165.15 -790.817C1165.15 -790.817 1151.68 -506.455 968.52 -442.435C856.11 -403.14 755.69 -394.738 641.17 -360.783C622.83 -355.343 604.88 -347.911 587.34 -339.41C576.08 -333.949 565.01 -328.669 554.27 -323.548C506.6 -300.784 467.09 -269.02 437.03 -246.506C368.75 -195.359 343.44 -121.448 290.06 -50.1874C186.35 88.2831 -55.3199 178.986 -113.43 236.515M1161.94 -792.487C1161.94 -792.487 1148.36 -514.546 970.68 -443.006C862.84 -399.579 763.61 -385.717 649.03 -351.472C630.87 -346.041 613.02 -338.84 595.51 -330.729C584.25 -325.518 573.14 -320.567 562.34 -315.847C514.35 -294.854 474.06 -265.479 442.7 -244.516C371.31 -196.799 340.62 -127.439 285.45 -58.3986C178.91 74.9411 -50.43 170.625 -104.22 247.757M1158.73 -794.168C1158.73 -794.168 1144.99 -522.747 972.83 -443.586C869.53 -396.089 771.52 -376.706 656.87 -342.161C638.9 -336.75 621.15 -329.779 603.65 -322.048C592.38 -317.077 581.23 -312.466 570.38 -308.146C522.07 -288.923 481.01 -261.939 448.35 -242.526C373.86 -198.249 337.79 -133.41 280.83 -66.6098C171.47 61.6192 -45.54 162.264 -95.03 258.988M1155.53 -795.838C1155.53 -795.838 1141.59 -531.029 975 -444.156C876.21 -392.638 779.45 -367.694 664.74 -332.849C646.95 -327.448 629.31 -320.707 611.82 -313.366C600.55 -308.636 589.36 -304.365 578.44 -300.444C529.82 -282.992 487.97 -258.398 454.02 -240.536C376.43 -199.7 335 -139.371 276.22 -74.8311C164.07 48.3072 -40.64 153.893 -85.83 270.22M1152.32 -797.508C1152.32 -797.508 1138.11 -539.4 977.15 -444.726C882.84 -389.248 787.36 -358.683 672.58 -323.528C654.97 -318.137 637.43 -311.626 619.97 -304.675C608.69 -300.184 597.47 -296.254 586.49 -292.733C537.55 -277.061 494.92 -254.858 459.67 -238.535C378.97 -201.16 332.2 -145.302 271.6 -83.0323C156.68 35.0351 -35.76 145.542 -76.64 281.462M1149.11 -799.188C1149.11 -799.188 1134.54 -547.871 979.31 -445.306C889.42 -385.907 795.28 -349.682 680.44 -314.226C663.02 -308.846 645.58 -302.575 628.13 -296.004C616.85 -291.763 605.59 -288.163 594.54 -285.042C545.28 -271.14 501.88 -251.347 465.33 -236.555C381.53 -202.65 329.42 -151.242 266.98 -91.2535C149.31 21.7932 -30.8699 137.18 -67.4399 292.693M1145.9 -800.859C1145.9 -800.859 1130.86 -556.412 981.46 -445.876C895.94 -382.597 803.18 -340.67 688.28 -304.905C671.04 -299.544 653.7 -293.493 636.28 -287.323C624.99 -283.322 613.69 -280.081 602.59 -277.341C552.99 -265.309 508.84 -247.817 470.99 -234.565C384.09 -204.13 326.65 -157.153 262.36 -99.4747C141.95 8.57126 -25.98 128.809 -58.25 303.925M1142.69 -802.529C1142.69 -802.529 1127.07 -565.014 983.62 -446.446C902.4 -379.316 811.03 -331.879 696.14 -295.594C679.07 -290.273 661.84 -284.462 644.44 -278.641C633.14 -274.911 621.81 -271.98 610.64 -269.64C560.72 -259.378 515.79 -244.296 476.65 -232.574C386.66 -205.62 323.88 -163.044 257.75 -107.686C134.61 -4.60052 -21.0899 120.458 -49.0399 315.157M1139.49 -804.209C1139.49 -804.209 1123.17 -573.665 985.78 -447.026C908.8 -376.066 818.95 -322.858 703.99 -286.282C687.11 -280.972 669.97 -275.391 652.59 -269.96C641.29 -266.469 629.92 -263.879 618.69 -261.949C568.46 -253.458 522.75 -240.786 482.3 -230.594C389.22 -207.131 321.11 -168.935 253.12 -115.907C127.26 -17.7626 -16.21 112.087 -39.86 326.388M1136.28 -805.879C1136.28 -805.879 1119.12 -582.326 987.94 -447.586C915.12 -372.795 826.87 -313.817 711.85 -276.961C695.15 -271.66 678.12 -266.309 660.76 -261.269C649.45 -258.018 638.05 -255.768 626.75 -254.238C576.21 -247.517 529.72 -237.265 487.97 -228.594C391.8 -208.631 318.36 -174.776 248.52 -124.118C119.95 -30.8646 -11.3 103.725 -30.65 337.62M1133.07 -807.56C1133.07 -807.56 1114.95 -591.007 990.09 -448.166C921.37 -369.545 834.78 -304.805 719.69 -267.65C703.18 -262.359 686.25 -257.238 668.9 -252.587C657.59 -249.577 646.15 -247.667 634.79 -246.536C583.93 -241.576 536.68 -233.755 493.62 -226.603C394.37 -210.131 315.6 -180.607 243.89 -132.33C112.6 -43.9364 -6.41996 95.3743 -21.46 348.862M1129.86 -809.23C1129.86 -809.23 1110.64 -599.669 992.25 -448.736C927.55 -366.254 842.71 -295.774 727.55 -258.338C711.22 -253.057 694.4 -248.167 677.07 -243.906C665.75 -241.136 654.28 -239.555 642.85 -238.835C591.68 -235.645 543.65 -230.304 499.28 -224.613C396.94 -211.791 312.84 -186.418 239.27 -140.541C105.27 -56.9784 -1.53001 87.0128 -12.26 360.093M1126.66 -810.9C1126.66 -810.9 1106.22 -608.29 994.41 -449.306C933.68 -362.944 850.63 -286.742 735.4 -249.027C719.25 -243.756 702.53 -239.095 685.22 -235.225C673.9 -232.704 662.38 -231.454 650.9 -231.134C599.42 -229.714 550.62 -226.763 504.94 -222.623C399.54 -213.231 310.08 -192.208 234.66 -148.762C97.92 -69.9803 3.36005 78.6417 -3.06995 371.325M1123.45 -812.58C1123.45 -812.58 1066.64 -301.795 693.38 -226.543C682.06 -224.263 670.5 -223.353 658.95 -223.433C271.86 -226.033 9.93006 -177.706 6.12006 382.567M1117.05 -811.1C1117.8 -808.52 1108.06 -718.266 1070.69 -608.4C1033.6 -499.364 970.07 -371.365 859.93 -289.033C814.84 -255.128 761.77 -228.844 699.54 -214.942C688.27 -212.401 676.77 -211.221 665.24 -211.011C646.71 -210.681 628.41 -210.291 610.36 -209.811C493.96 -206.881 389.33 -200.18 301.38 -173.526C263.37 -161.864 228.41 -146.432 196.79 -125.999C119.45 -76.2512 61.7401 2.83057 28.6301 130.389C10.5901 199.88 0.630127 283.852 -0.619873 383.117M1110.65 -809.63C1112.16 -804.459 1102.8 -714.636 1067.62 -605.53C1032.05 -495.203 971.38 -366.224 863.99 -281.282C819.78 -246.307 767.47 -218.532 705.69 -203.36C694.48 -200.57 683.02 -199.11 671.52 -198.609C653.05 -197.829 634.74 -197.039 616.63 -196.239C500.23 -191.428 394.63 -186.398 305.83 -161.744C267.59 -151.132 232.44 -136.6 200.35 -117.397C121.84 -70.4004 61.6701 4.80066 25.4901 130.499C5.55011 199.77 -5.54989 284.462 -7.38989 383.647M1104.26 -808.16C1106.52 -800.408 1097.58 -710.975 1064.56 -602.659C1030.53 -491.023 972.81 -360.903 868.06 -273.52C824.77 -237.405 773.16 -208.351 711.85 -191.768C700.69 -188.748 689.28 -186.978 677.81 -186.198C659.39 -184.957 641.09 -183.737 622.91 -182.647C506.54 -175.676 399.98 -172.435 310.29 -149.952C271.85 -140.321 236.44 -126.789 203.92 -108.776C124.17 -64.6095 61.5501 6.80107 22.3601 130.639C0.500107 199.71 -11.7299 285.092 -14.1399 384.207M1097.86 -806.679C1100.88 -796.348 1092.39 -707.285 1061.49 -599.779C1029.02 -486.812 974.24 -355.563 872.12 -265.759C829.75 -228.504 778.85 -198.059 718 -180.177C706.9 -176.916 695.53 -174.856 684.08 -173.786C665.71 -172.095 647.41 -170.465 629.17 -169.065C512.81 -160.134 405.33 -158.473 314.74 -138.17C276.1 -129.509 240.44 -116.997 207.48 -100.175C126.48 -58.8386 61.3701 8.8014 19.2201 130.749C-4.57988 199.62 -17.9099 285.702 -20.8999 384.737M1091.46 -805.209C1095.23 -792.297 1087.24 -703.584 1058.42 -596.908C1027.54 -482.581 975.67 -350.212 876.17 -257.998C834.73 -219.592 784.53 -187.778 724.14 -168.585C713.09 -165.074 701.78 -162.734 690.35 -161.364C672.04 -159.224 653.73 -157.183 635.43 -155.473C519.09 -144.581 410.68 -144.491 319.18 -126.379C280.35 -118.688 244.41 -107.186 211.02 -91.5535C128.77 -53.0578 61.1201 10.8116 16.0701 130.879C-9.69993 199.56 -24.0999 286.332 -27.6799 385.297M1085.07 -803.739C1089.6 -788.237 1082.14 -699.854 1055.36 -594.038C1026.08 -478.331 977.12 -344.851 880.24 -250.237C839.73 -210.671 790.23 -177.486 730.3 -156.993C719.31 -153.233 708.04 -150.612 696.64 -148.952C678.38 -146.352 660.07 -143.911 641.71 -141.891C525.39 -129.059 416.06 -130.509 323.65 -114.587C284.62 -107.866 248.42 -97.3845 214.6 -82.9423C131.09 -47.287 60.8501 12.8319 12.9501 130.999C-14.8199 199.49 -30.2699 286.953 -34.4199 385.837M1078.67 -802.259C1083.95 -784.176 1077.06 -696.093 1052.29 -591.158C1024.65 -474.05 978.56 -339.46 884.3 -242.476C844.71 -201.75 795.93 -167.185 736.45 -145.402C725.51 -141.391 714.29 -138.491 702.92 -136.54C684.71 -133.49 666.4 -130.649 647.97 -128.299C531.68 -113.527 421.43 -116.517 328.09 -102.795C288.88 -97.0344 252.4 -87.583 218.15 -74.3311C133.37 -41.5162 60.5 14.8322 9.80005 131.129C-19.99 199.44 -36.46 287.573 -41.2 386.387M1072.27 -800.788C1078.31 -780.125 1072.03 -692.332 1049.23 -588.287C1023.25 -469.759 980.02 -334.059 888.37 -234.715C849.72 -192.818 801.63 -156.883 742.62 -133.81C731.74 -129.549 720.56 -126.359 709.22 -124.128C691.07 -120.628 672.76 -117.377 654.26 -114.717C537.99 -98.0043 426.83 -102.515 332.56 -91.0134C293.16 -86.2027 256.4 -77.7913 221.73 -65.7195C135.68 -35.7651 60.1401 16.8427 6.68005 131.25C-25.1499 199.38 -42.6299 288.193 -47.9399 386.927M1065.88 -799.318C1072.67 -776.075 1067.04 -688.552 1046.17 -585.417C1021.89 -465.459 981.49 -328.649 892.44 -226.954C854.72 -183.877 807.33 -146.582 748.78 -122.218C737.95 -117.707 726.83 -114.237 715.5 -111.716C697.4 -107.756 679.09 -104.105 660.53 -101.135C544.28 -82.5021 432.22 -88.503 337.02 -79.2316C297.44 -75.3711 260.39 -68 225.3 -57.1183C137.97 -30.0143 59.7101 18.8229 3.56006 131.36C-30.3399 199.3 -48.7899 288.803 -54.6899 387.468M1059.48 -797.838C1067.03 -772.004 1062.09 -684.741 1043.1 -582.536C1020.54 -461.118 982.96 -323.218 896.5 -219.192C859.72 -174.936 813.03 -136.28 754.93 -110.626C744.15 -105.866 733.08 -102.115 721.78 -99.3047C703.74 -94.894 685.42 -90.8435 666.8 -87.553C550.57 -66.9999 437.62 -74.481 341.47 -67.45C301.7 -64.5395 264.36 -58.2186 228.86 -48.5072C140.24 -24.2736 59.2201 20.813 0.410065 131.479C-35.5899 199.229 -54.99 289.423 -61.46 388.007M1053.08 -796.368C1061.38 -767.954 1057.17 -680.931 1040.03 -579.666C1019.23 -456.788 984.43 -317.787 900.56 -211.431C864.72 -165.985 818.72 -125.969 761.08 -99.0347C750.36 -94.0239 739.34 -89.9633 728.06 -86.8928C710.08 -81.9921 691.76 -77.5815 673.07 -73.9609C556.87 -51.4976 443.01 -60.4389 345.93 -55.6482C305.98 -53.6779 268.35 -48.4171 232.42 -39.8859C142.51 -18.5227 58.6901 22.7934 -2.71994 131.62C-40.8399 199.18 -61.16 290.053 -68.21 388.568M1046.69 -794.898C1055.75 -763.903 1052.29 -677.11 1036.97 -576.795C1017.97 -452.427 985.93 -312.336 904.62 -203.68C869.73 -157.043 824.42 -115.657 767.23 -87.4529C756.56 -82.1921 745.59 -77.8515 734.34 -74.491C716.42 -69.1302 698.09 -64.3194 679.34 -60.3889C563.16 -36.0152 448.41 -46.3968 350.38 -43.8765C310.25 -42.8463 272.32 -38.6556 235.98 -31.2946C144.78 -12.8218 58.11 24.7237 -5.85999 131.72C-46.13 199.07 -67.34 290.653 -74.98 389.098M1040.29 -793.417C1050.1 -759.842 1047.45 -673.26 1033.9 -573.915C1016.74 -448.056 987.43 -306.875 908.68 -195.909C874.74 -148.082 830.11 -105.335 773.38 -75.8511C762.77 -70.3403 751.84 -65.7197 740.62 -62.0692C722.75 -56.2583 704.42 -51.0475 685.61 -46.7969C569.45 -20.533 453.81 -32.3347 354.84 -32.0847C314.53 -31.9846 276.3 -28.8642 239.55 -22.6733C147.05 -7.08097 57.51 26.674 -8.97998 131.85C-51.42 198.979 -73.51 291.283 -81.72 389.648M1033.89 -791.947C1044.46 -755.782 1042.64 -669.419 1030.83 -571.045C1015.55 -443.686 988.94 -301.405 912.74 -188.148C879.75 -139.121 835.81 -95.0041 779.53 -64.2595C768.98 -58.4887 758.1 -53.5979 746.89 -49.6573C729.08 -43.3964 710.74 -37.7856 691.87 -33.2149C575.73 -5.06074 459.2 -18.2627 359.28 -20.303C318.79 -21.1232 280.26 -19.0928 243.1 -14.0721C149.3 -1.3802 56.84 28.5742 -12.13 131.96C-56.76 198.859 -79.7 291.883 -88.5 390.178M1027.5 -790.477C1038.82 -751.731 1037.87 -665.579 1027.77 -568.174C1014.41 -439.305 990.47 -295.934 916.81 -180.397C884.78 -130.159 841.52 -84.6925 785.69 -52.6778C775.19 -46.6569 764.36 -41.4762 753.18 -37.2556C735.42 -30.5346 717.09 -24.5336 698.15 -19.6329C582.02 10.4116 464.6 -4.18059 363.74 -8.51123C323.07 -10.2615 284.25 -9.32138 246.67 -5.45081C151.57 4.33064 56.16 30.4745 -15.26 132.1C-62.11 198.759 -85.88 292.523 -95.25 390.738M1021.1 -788.997C1033.18 -747.671 1033.13 -661.718 1024.7 -565.304C1013.3 -434.914 992.01 -290.453 920.87 -172.636C889.81 -121.198 847.22 -74.361 791.84 -41.0861C781.4 -34.8151 770.61 -29.3543 759.46 -24.8336C741.75 -17.6626 723.42 -11.2617 704.42 -6.04089C588.31 25.8838 470 9.9215 368.2 3.28052C327.35 0.620123 288.23 0.450121 250.23 3.16052C153.84 10.0315 55.44 32.3448 -18.4 132.22C-67.49 198.619 -92.06 293.143 -102.02 391.288M1014.7 -787.527C1027.53 -743.62 1028.43 -657.857 1021.63 -562.433C1012.24 -430.534 993.55 -284.962 924.93 -164.874C894.84 -112.226 852.93 -64.0293 798 -29.4942C787.61 -22.9632 776.88 -17.2324 765.75 -12.4217C748.1 -4.80056 729.76 1.99044 710.69 7.54126C594.6 41.3363 475.4 24.0238 372.65 15.0624C331.62 11.4819 292.2 10.2117 253.79 11.7719C156.1 15.7125 54.69 34.1852 -21.54 132.34C-72.89 198.46 -98.25 293.764 -108.78 391.828M1008.31 -786.056C1021.9 -739.559 1023.76 -654.007 1018.58 -559.563C1011.25 -426.133 995.13 -279.471 929.01 -157.123C899.9 -103.265 858.65 -53.708 804.17 -17.9127C793.84 -11.1317 783.14 -5.14072 772.05 -0.0199585C754.44 8.02123 736.11 15.2423 716.98 21.1132C600.9 56.7784 480.81 38.1257 377.13 26.834C335.92 22.3433 296.2 19.963 257.38 20.363C158.39 21.3732 53.95 35.9754 -24.64 132.44C-78.27 198.259 -104.39 294.354 -115.51 392.348M1001.91 -784.586C1016.25 -735.509 1019.12 -650.156 1015.51 -556.692C1010.29 -421.742 996.7 -273.971 933.07 -149.362C904.94 -94.284 864.36 -43.3764 810.32 -6.32092C800.05 0.720119 789.39 6.98104 778.32 12.3918C760.76 20.8831 742.43 28.4942 723.24 34.7051C607.17 72.2307 486.19 52.2577 381.57 38.6357C340.17 33.2449 300.16 29.7444 260.93 28.9843C160.65 27.064 53.14 37.7756 -27.79 132.58C-83.71 198.079 -110.59 294.994 -122.28 392.908M995.51 -783.106C1010.61 -731.448 1014.51 -646.296 1012.44 -553.812C1009.38 -417.352 998.29 -268.46 937.12 -141.601C909.98 -85.3126 870.06 -33.0349 816.46 5.27075C806.25 12.5718 795.63 19.1029 784.59 24.8037C767.09 33.755 748.75 41.7562 729.5 48.2872C613.43 87.673 491.57 66.3898 386.02 50.4175C344.44 44.1265 304.14 39.4959 264.49 37.5956C162.91 32.7249 52.3301 39.5359 -30.9299 132.7C-89.1599 197.859 -116.77 295.614 -129.04 393.458M989.12 -781.636C1004.97 -727.398 1009.94 -642.445 1009.38 -550.942C1008.53 -412.971 999.9 -262.959 941.19 -133.84C915.05 -76.3413 875.79 -22.6934 822.62 16.8625C812.47 24.4136 801.9 31.2346 790.88 37.2155C773.43 46.6168 755.09 55.0081 735.78 61.8691C619.72 103.105 496.96 80.5318 390.48 62.1991C348.71 55.008 308.12 49.2472 268.05 46.1968C165.18 38.3756 51.5001 41.2561 -34.0699 132.81C-94.6299 197.609 -122.95 296.224 -135.81 393.988M982.72 -780.165C999.33 -723.337 1005.39 -638.604 1006.31 -548.071C1007.73 -408.59 1001.5 -257.458 945.25 -126.079C920.11 -67.3599 881.5 -12.3518 828.77 28.4543C818.67 36.2654 808.15 43.3565 797.16 49.6274C779.76 59.4789 761.42 68.2702 742.05 75.4512C625.99 118.528 502.34 94.6841 394.93 73.981C352.98 65.8998 312.1 58.9888 271.61 54.8082C167.46 44.0366 50.6501 42.9564 -37.1999 132.93C-100.1 197.349 -129.13 296.834 -142.56 394.528M976.32 -778.685C993.68 -719.276 1000.86 -634.764 1003.24 -545.191C1006.98 -404.22 1003.13 -251.947 949.31 -118.318C925.17 -58.3786 887.22 -2.01027 834.92 40.046C824.88 48.1172 814.4 55.4782 803.44 62.0392C786.1 72.3507 767.75 81.5221 748.32 89.0432C632.26 133.97 507.71 108.856 399.39 85.7827C357.25 76.8014 316.09 68.7602 275.18 63.4294C169.74 49.6973 49.8 44.6366 -40.33 133.07C-105.58 197.079 -135.3 297.474 -149.32 395.089M969.93 -777.215C988.05 -715.226 996.38 -630.933 1000.18 -542.32C1006.3 -399.869 1004.77 -246.446 953.38 -110.556C930.25 -49.4072 892.95 8.34128 841.08 51.6377C831.1 59.9689 820.66 67.6001 809.72 74.4511C792.43 85.2127 774.08 94.7741 754.59 102.625C638.52 149.382 513.08 123.018 403.84 97.5646C361.5 87.7031 320.07 78.5017 278.74 72.0308C172.03 55.3283 48.9401 46.2769 -43.4699 133.18C-111.08 196.759 -141.49 298.084 -156.08 395.629M963.53 -775.745C982.4 -711.175 991.9 -627.123 997.11 -539.45C1005.66 -395.529 1006.41 -240.946 957.44 -102.795C935.33 -40.4261 898.68 18.6827 847.24 63.2293C837.32 71.8106 826.93 79.7317 816.01 86.8628C798.77 98.0845 780.41 108.026 760.87 116.207C644.8 164.804 518.45 137.19 408.31 109.346C365.78 98.5945 324.07 88.243 282.32 80.6418C174.33 60.9689 48.0801 47.897 -46.5899 133.3C-116.57 196.429 -147.65 298.704 -162.83 396.169M957.13 -774.265C976.76 -707.105 987.45 -623.312 994.04 -536.569C1005.09 -391.198 1008.06 -235.435 961.5 -95.034C940.41 -31.4546 904.4 29.0344 853.39 74.8212C843.54 83.6625 833.18 91.8536 822.29 99.2747C805.11 110.946 786.74 121.278 767.14 129.789C651.06 180.217 523.81 151.372 412.76 121.128C370.03 109.486 328.05 97.9846 285.87 89.2433C176.61 66.5999 47.2 49.4774 -49.73 133.41C-122.08 196.069 -153.84 299.304 -169.59 396.699M950.73 -772.794C971.11 -703.054 983.02 -619.522 990.97 -533.699C1004.57 -386.897 1009.73 -229.934 965.55 -87.2728C945.49 -22.4732 910.12 39.3859 859.53 86.4128C849.74 95.5142 839.42 103.976 828.56 111.697C811.43 123.818 793.06 134.54 773.4 143.391C657.3 195.649 529.15 165.585 417.2 132.93C374.28 120.408 332.02 107.746 289.42 97.8746C178.9 72.2408 46.32 51.0576 -52.87 133.55C-127.61 195.709 -160.02 299.945 -176.35 397.259M944.34 -771.324C965.48 -699.003 978.62 -615.741 987.92 -530.829C1004.13 -382.627 1011.42 -224.443 969.63 -79.5217C950.6 -13.512 915.96 49.8174 865.7 97.9945C855.99 107.376 845.69 116.087 834.86 124.098C817.79 136.68 799.39 147.742 779.68 156.963C663.47 210.831 534.51 179.767 421.67 144.711C378.55 131.309 336.03 117.487 293 106.476C181.21 77.8715 45.45 52.5878 -56 133.67C-133.12 195.309 -166.19 300.564 -183.11 397.809M937.94 -769.844C959.83 -694.943 974.24 -611.971 984.85 -527.948C1003.74 -378.366 1013.1 -218.942 973.69 -71.7506C955.69 -4.53066 921.66 60.1489 871.85 109.596C862.19 119.228 851.95 128.229 841.13 136.52C824.11 149.552 805.71 161.014 785.94 170.555C669.74 226.313 539.84 193.979 426.11 156.503C382.78 142.221 340.02 127.179 296.55 115.097C183.54 83.3523 44.56 54.118 -59.15 133.8C-138.67 194.899 -172.39 301.195 -189.88 398.359M931.54 -768.374C954.19 -690.882 969.87 -608.23 981.78 -525.078C1003.4 -374.135 1014.94 -213.422 977.75 -63.9896C960.86 4.46057 927.37 70.4704 878 121.188C868.4 131.069 858.2 140.351 847.41 148.932C830.44 162.414 812.04 174.276 792.21 184.137C676.01 241.786 545.13 208.301 430.57 168.285C387.02 153.183 344.01 136.94 300.12 123.698C185.84 89.0432 43.7 55.5981 -62.27 133.92C-144.18 194.459 -178.55 301.805 -196.63 398.899M925.15 -766.903C948.55 -686.832 965.52 -604.509 978.72 -522.207C1003.13 -369.945 1016.5 -207.981 981.82 -56.2382C957.92 48.3273 895.93 147.792 798.49 197.709C682.3 257.238 550.51 222.383 435.03 180.057C391.29 164.024 348 146.702 303.68 132.29C188.13 94.7242 42.83 57.0486 -65.41 134.02C-149.72 193.969 -184.74 302.405 -203.39 399.429" stroke="url(#paint0_linear_488_8733)" stroke-width="0.25" stroke-miterlimit="10"/>
<defs>
<linearGradient id="paint0_linear_488_8733" x1="508.086" y1="292.123" x2="245.441" y2="-556.549" gradientUnits="userSpaceOnUse">
<stop offset="0.7946" stop-color="#2882FF"/>
<stop offset="1" stop-color="#F70D1A"/>
</linearGradient>
</defs>
</svg>
