<svg width="13" height="18" viewBox="0 0 13 18" fill="none" xmlns="http://www.w3.org/2000/svg">
<path fill-rule="evenodd" clip-rule="evenodd" d="M3.25 1.20418H4V6.60691C4.02895 6.59645 4.05785 6.58527 4.08654 6.57332C4.29087 6.48818 4.45346 6.37712 4.56279 6.24046C4.6627 6.11557 4.75 5.93102 4.75 5.625V1.20418H5.5C5.91421 1.20418 6.25 1.20418 6.25 1.20418V5.625C6.25 6.25648 6.05605 6.77505 5.73409 7.17751C5.42154 7.5682 5.02163 7.80869 4.66346 7.95793C4.42993 8.05524 4.20083 8.11937 4 8.16192V17.25C4 17.25 3.66421 17.25 3.25 17.25C2.83579 17.25 2.5 17.25 2.5 17.25V8.16192C2.29917 8.11937 2.07007 8.05524 1.83654 7.95793C1.47837 7.80869 1.07846 7.5682 0.765911 7.17751C0.44395 6.77505 0.25 6.25648 0.25 5.625V1.20418H1H1.75V5.625C1.75 5.93102 1.8373 6.11557 1.93721 6.24046C2.04654 6.37712 2.20913 6.48818 2.41346 6.57332C2.44215 6.58527 2.47105 6.59645 2.5 6.60691V1.20418H3.25ZM12.25 0.75C12.6642 0.75 12.9877 1.1995 12.9877 1.61371V17.25C12.9877 17.25 12.6642 17.25 12.25 17.25C11.8358 17.25 11.5 17.25 11.5 17.25V8.625H9.25C8.83579 8.625 8.5 8.28921 8.5 7.875V4.5C8.5 3.61876 8.72246 2.90797 9.09471 2.3496C9.46383 1.79592 9.95062 1.43617 10.4146 1.20418C10.8756 0.973662 11.3276 0.862141 11.658 0.80708C11.8249 0.779253 11.9657 0.765049 12.0677 0.757765C12.1188 0.754114 12.1605 0.752176 12.1913 0.751149C12.2067 0.750635 12.2195 0.750348 12.2293 0.750189L12.2419 0.750035L12.2465 0.750007L12.2484 0.750002L12.2492 0.75C12.2492 0.75 12.25 0.75 12.25 1.5V0.75ZM11.5 2.38151C11.3653 2.42277 11.2243 2.47638 11.0854 2.54582C10.7994 2.68883 10.5362 2.89158 10.3428 3.18165C10.1525 3.46703 10 3.88124 10 4.5V7.125H11.5V2.38151Z" fill="#5B5B5B"/>
</svg>
