<svg width="77" height="20" viewBox="0 0 77 20" fill="none" xmlns="http://www.w3.org/2000/svg">
<g clip-path="url(#clip0_316_12555)">
<path d="M24.6207 3.99951C24.4622 3.99951 24.3276 4.11223 24.3028 4.2657L22.4684 15.6629C22.4618 15.7045 22.4644 15.7471 22.4761 15.7876C22.4878 15.8282 22.5084 15.8658 22.5363 15.8978C22.5643 15.9298 22.599 15.9555 22.6381 15.9732C22.6771 15.9908 22.7196 15.9999 22.7626 15.9999H24.938C25.0963 15.9999 25.2311 15.887 25.2559 15.7337L25.7947 12.3869C25.8193 12.2336 25.9541 12.1207 26.1126 12.1207H28.0904C30.4013 12.1207 32.363 10.4687 32.7213 8.23028C33.0826 5.97289 31.2826 4.00441 28.7314 3.99951H24.6207ZM26.7353 6.54381H28.3178C29.6206 6.54381 30.0448 7.29694 29.9107 8.12982C29.7765 8.96448 29.1176 9.57928 27.8574 9.57928H26.2467L26.7353 6.54381ZM37.1458 7.31855C36.5965 7.32055 35.9644 7.43081 35.2548 7.7204C33.6271 8.38509 32.8455 9.75882 32.5135 10.7603C32.5135 10.7603 31.457 13.8158 33.844 15.4945C33.844 15.4945 36.0579 17.1106 38.55 15.3949L38.507 15.6629C38.5003 15.7045 38.503 15.747 38.5147 15.7875C38.5263 15.8281 38.5468 15.8656 38.5748 15.8976C38.6027 15.9296 38.6373 15.9554 38.6763 15.973C38.7153 15.9907 38.7578 15.9999 38.8008 15.9999H40.8659C41.0244 15.9999 41.159 15.887 41.1837 15.7337L42.4399 7.92889C42.4467 7.88726 42.4441 7.8447 42.4324 7.80413C42.4208 7.76356 42.4003 7.72595 42.3724 7.69388C42.3445 7.66181 42.3098 7.63604 42.2707 7.61836C42.2317 7.60067 42.1892 7.59148 42.1462 7.59142H40.081C39.9226 7.59142 39.7877 7.70436 39.7632 7.85761L39.6957 8.27773C39.6957 8.27773 38.7939 7.31253 37.1458 7.31855ZM37.2133 9.78376C37.4505 9.78376 37.6674 9.81584 37.862 9.8771C38.753 10.1573 39.2582 10.996 39.112 11.9051C38.9317 13.0244 37.9948 13.8486 36.7932 13.8486C36.5563 13.8486 36.3393 13.8167 36.1445 13.7555C35.2537 13.4752 34.7453 12.6366 34.8915 11.7275C35.0718 10.6082 36.0117 9.78376 37.2133 9.78376Z" fill="#003087"/>
<path d="M54.3628 3.99951C54.2044 3.99951 54.0698 4.11223 54.045 4.2657L52.2106 15.6629C52.204 15.7045 52.2066 15.7471 52.2183 15.7876C52.23 15.8282 52.2506 15.8658 52.2785 15.8978C52.3065 15.9298 52.3412 15.9555 52.3803 15.9732C52.4193 15.9908 52.4618 15.9999 52.5048 15.9999H54.6802C54.8385 15.9999 54.9733 15.887 54.9981 15.7337L55.5369 12.3869C55.5615 12.2336 55.6963 12.1207 55.8548 12.1207H57.8326C60.1435 12.1207 62.105 10.4687 62.4631 8.23028C62.8246 5.97289 61.0248 4.00441 58.4735 3.99951H54.3628ZM56.4775 6.54381H58.06C59.3628 6.54381 59.787 7.29694 59.6529 8.12982C59.5187 8.96448 58.8601 9.57928 57.5996 9.57928H55.9889L56.4775 6.54381ZM66.8878 7.31855C66.3385 7.32055 65.7064 7.43081 64.9968 7.7204C63.3691 8.38509 62.5874 9.75882 62.2555 10.7603C62.2555 10.7603 61.1994 13.8158 63.5865 15.4945C63.5865 15.4945 65.7998 17.1106 68.2922 15.3949L68.2492 15.6629C68.2425 15.7045 68.2451 15.7471 68.2569 15.7876C68.2686 15.8282 68.2891 15.8658 68.3171 15.8978C68.3451 15.9298 68.3798 15.9555 68.4188 15.9732C68.4579 15.9908 68.5004 15.9999 68.5434 15.9999H70.6083C70.7668 15.9999 70.9014 15.887 70.9262 15.7337L72.1828 7.92889C72.1895 7.88723 72.187 7.84463 72.1753 7.80402C72.1636 7.76342 72.1431 7.72579 72.1151 7.69371C72.0871 7.66163 72.0524 7.63588 72.0133 7.61822C71.9742 7.60056 71.9316 7.59142 71.8886 7.59142H69.8235C69.665 7.59142 69.5302 7.70436 69.5056 7.85761L69.4381 8.27773C69.4381 8.27773 68.5359 7.31253 66.8878 7.31855ZM66.9553 9.78376C67.1924 9.78376 67.4093 9.81584 67.604 9.8771C68.495 10.1573 69.0002 10.996 68.854 11.9051C68.6737 13.0244 67.7367 13.8486 66.5351 13.8486C66.2982 13.8486 66.0813 13.8167 65.8865 13.7555C64.9957 13.4752 64.4873 12.6366 64.6335 11.7275C64.8138 10.6082 65.7537 9.78376 66.9553 9.78376Z" fill="#0070E0"/>
<path d="M43.4215 7.59153C43.2578 7.59153 43.1414 7.74813 43.1914 7.90071L45.4555 14.784L43.4083 18.0278C43.3089 18.1853 43.4245 18.3886 43.6134 18.3886H46.033C46.1022 18.3886 46.1702 18.371 46.2304 18.3377C46.2907 18.3044 46.3412 18.2564 46.377 18.1984L52.7001 7.95017C52.7972 7.79268 52.6813 7.59131 52.4935 7.59131H50.0741C50.0042 7.59137 49.9356 7.60925 49.8749 7.64319C49.8142 7.67713 49.7636 7.72596 49.7281 7.78488L47.2391 11.9018L45.9757 7.8154C45.9345 7.68241 45.8092 7.59131 45.6676 7.59131L43.4215 7.59153Z" fill="#003087"/>
<path d="M74.5274 3.99951C74.3692 3.99951 74.2344 4.11245 74.2096 4.2657L72.3748 15.6625C72.368 15.7041 72.3706 15.7467 72.3823 15.7873C72.394 15.8279 72.4145 15.8656 72.4425 15.8977C72.4704 15.9297 72.5052 15.9555 72.5443 15.9731C72.5834 15.9908 72.6259 15.9999 72.669 15.9999H74.8444C75.0026 15.9999 75.1374 15.887 75.1622 15.7337L76.9966 4.33654C77.0032 4.29494 77.0006 4.25243 76.9889 4.21191C76.9772 4.1714 76.9567 4.13384 76.9288 4.10182C76.9009 4.06981 76.8663 4.04408 76.8273 4.02642C76.7882 4.00876 76.7458 3.99958 76.7028 3.99951H74.5274Z" fill="#0070E0"/>
<path d="M6.48815 3.99951C6.34801 3.99963 6.21252 4.0487 6.106 4.13791C5.99948 4.22712 5.92891 4.35062 5.907 4.48623L4.94141 10.4863C4.98642 10.2061 5.23288 9.99961 5.52254 9.99961H8.35206C11.1998 9.99961 13.6162 7.96431 14.0577 5.20617C14.0906 5.00025 14.1092 4.7924 14.1134 4.58402C13.3897 4.21224 12.5396 3.99951 11.6081 3.99951H6.48815Z" fill="#001C64"/>
<path d="M14.1102 4.58423C14.106 4.79261 14.0873 5.00046 14.0545 5.20638C13.613 7.96452 11.1963 9.99983 8.34885 9.99983H5.51932C5.22989 9.99983 4.98321 10.2061 4.93819 10.4865L4.05034 16.0002L3.49422 19.4591C3.48336 19.5259 3.48743 19.5942 3.50615 19.6594C3.52487 19.7245 3.5578 19.7849 3.60265 19.8364C3.6475 19.8878 3.70321 19.9291 3.76594 19.9574C3.82867 19.9858 3.89693 20.0004 3.96599 20.0004H7.0372C7.17733 20.0003 7.31283 19.9512 7.41935 19.862C7.52586 19.7728 7.59642 19.6493 7.61833 19.5137L8.42728 14.4868C8.4492 14.3511 8.51983 14.2275 8.62644 14.1383C8.73306 14.0491 8.86867 14.0001 9.00888 14H10.8171C13.6648 14 16.0812 11.9647 16.5227 9.2066C16.8363 7.24904 15.83 5.46767 14.1102 4.58423Z" fill="#0070E0"/>
<path d="M2.99711 0.000488281C2.70767 0.000488281 2.46099 0.206759 2.41598 0.486761L0.00593147 15.4594C-0.0397683 15.7436 0.184417 16.0007 0.478168 16.0007H4.05207L4.93947 10.4871L5.90506 4.48698C5.92697 4.35137 5.99754 4.22787 6.10406 4.13866C6.21058 4.04944 6.34607 4.00037 6.48621 4.00026H11.6062C12.5379 4.00026 13.3878 4.21321 14.1115 4.58477C14.161 2.07366 12.0461 0.000488281 9.13838 0.000488281H2.99711Z" fill="#003087"/>
</g>
<defs>
<clipPath id="clip0_316_12555">
<rect width="77" height="20" fill="white"/>
</clipPath>
</defs>
</svg>
