<svg width="20" height="20" viewBox="0 0 20 20" fill="none" xmlns="http://www.w3.org/2000/svg">
<path d="M18.9353 11.0728C19.1344 10.9731 19.3018 10.8199 19.4187 10.6304C19.5357 10.441 19.5977 10.2227 19.5977 10C19.5977 9.77737 19.5357 9.5591 19.4187 9.36964C19.3018 9.18018 19.1344 9.027 18.9353 8.92723L2.13534 0.527233C1.92703 0.423005 1.69289 0.381654 1.46149 0.408224C1.23008 0.434794 1.01141 0.528135 0.83215 0.676863C0.652889 0.82559 0.520788 1.02327 0.45196 1.2458C0.383131 1.46832 0.38055 1.70607 0.444536 1.93003L2.15933 7.93003C2.23106 8.1808 2.38254 8.40138 2.59084 8.55836C2.79914 8.71534 3.05291 8.80018 3.31374 8.80003L8.79894 8.80003C9.1172 8.80003 9.42242 8.92646 9.64746 9.15151C9.87251 9.37655 9.99894 9.68177 9.99894 10C9.99894 10.3183 9.87251 10.6235 9.64746 10.8486C9.42242 11.0736 9.1172 11.2 8.79894 11.2L3.31374 11.2C3.05291 11.1999 2.79914 11.2847 2.59084 11.4417C2.38254 11.5987 2.23106 11.8193 2.15933 12.07L0.445736 18.07C0.381624 18.2939 0.384048 18.5316 0.452715 18.7542C0.521379 18.9767 0.653318 19.1745 0.832441 19.3233C1.01156 19.4722 1.23012 19.5657 1.46147 19.5924C1.69282 19.6192 1.92696 19.5781 2.13534 19.474L18.9353 11.074V11.0728Z" fill="#5B5B5B"/>
</svg>
