<svg width="34" height="24" viewBox="0 0 34 24" fill="none" xmlns="http://www.w3.org/2000/svg">
<rect x="0.5" y="0.5" width="33" height="23" rx="3.5" fill="white" stroke="#D9D9D9"/>
<path fill-rule="evenodd" clip-rule="evenodd" d="M18.2665 8.14192L16.5393 8.52349V7.08202L18.2665 6.70752V8.14192ZM21.8582 8.94038C21.1839 8.94038 20.7504 9.26542 20.5095 9.49153L20.4201 9.05344H18.9063V17.2924L20.6265 16.9179L20.6334 14.9183C20.8811 15.102 21.2458 15.3634 21.8513 15.3634C23.083 15.3634 24.2046 14.3459 24.2046 12.106C24.1978 10.0568 23.0624 8.94038 21.8582 8.94038ZM21.4453 13.8089C21.0394 13.8089 20.7985 13.6605 20.6334 13.4768L20.6265 10.8553C20.8054 10.6504 21.0531 10.509 21.4453 10.509C22.0715 10.509 22.505 11.2298 22.505 12.1554C22.505 13.1023 22.0784 13.8089 21.4453 13.8089ZM29.6269 12.1766C29.6269 10.3677 28.7737 8.94038 27.1429 8.94038C25.5052 8.94038 24.5143 10.3677 24.5143 12.1625C24.5143 14.2894 25.6841 15.3634 27.3631 15.3634C28.1819 15.3634 28.8012 15.1726 29.2691 14.9041V13.4909C28.8012 13.7312 28.2645 13.8795 27.5833 13.8795C26.9158 13.8795 26.324 13.6393 26.2483 12.8055H29.6131C29.6131 12.7666 29.6156 12.6782 29.6185 12.5763L29.6185 12.5761C29.6223 12.4377 29.6269 12.2743 29.6269 12.1766ZM26.2277 11.5054C26.2277 10.7069 26.7024 10.3748 27.1359 10.3748C27.5557 10.3748 28.003 10.7069 28.003 11.5054H26.2277ZM16.5392 9.06052H18.2664V15.2433H16.5392V9.06052ZM14.5783 9.06051L14.6884 9.5834C15.0944 8.82026 15.8995 8.97572 16.1197 9.06051V10.6857C15.9063 10.608 15.2182 10.509 14.8123 11.0531V15.2433H13.092V9.06051H14.5783ZM11.2478 7.52717L9.56885 7.8946L9.56197 13.5545C9.56197 14.6003 10.3258 15.3705 11.3441 15.3705C11.9084 15.3705 12.3212 15.2645 12.5483 15.1373V13.7029C12.3281 13.7947 11.2409 14.1198 11.2409 13.074V10.5656H12.5483V9.0605H11.2409L11.2478 7.52717ZM7.18124 10.4737C6.81655 10.4737 6.59636 10.5797 6.59636 10.8553C6.59636 11.1562 6.97531 11.2885 7.44544 11.4527C8.21187 11.7204 9.22063 12.0728 9.2249 13.3779C9.2249 14.6427 8.24091 15.3705 6.80967 15.3705C6.2179 15.3705 5.57109 15.2504 4.93116 14.9677V13.286C5.50916 13.611 6.23855 13.8513 6.80967 13.8513C7.195 13.8513 7.47024 13.7453 7.47024 13.4203C7.47024 13.087 7.05945 12.9346 6.56351 12.7507C5.80823 12.4706 4.85547 12.1173 4.85547 10.9401C4.85547 9.6894 5.7844 8.9404 7.18124 8.9404C7.75236 8.9404 8.31661 9.03225 8.88773 9.26543V10.926C8.36477 10.6362 7.7042 10.4737 7.18124 10.4737Z" fill="#6461FC"/>
</svg>
